<?xml version="1.0" encoding="UTF-8" standalone="no"?>
<!-- Created with Inkscape (http://www.inkscape.org/) -->

<svg
   xmlns:dc="http://purl.org/dc/elements/1.1/"
   xmlns:cc="http://creativecommons.org/ns#"
   xmlns:rdf="http://www.w3.org/1999/02/22-rdf-syntax-ns#"
   xmlns:svg="http://www.w3.org/2000/svg"
   xmlns="http://www.w3.org/2000/svg"
   xmlns:sodipodi="http://sodipodi.sourceforge.net/DTD/sodipodi-0.dtd"
   xmlns:inkscape="http://www.inkscape.org/namespaces/inkscape"
   width="74.179337mm"
   height="51.141338mm"
   viewBox="0 0 74.179336 51.141338"
   version="1.1"
   id="svg8"
   inkscape:version="0.92.3 (2405546, 2018-03-11)"
   sodipodi:docname="build-tools-logos.svg"
   inkscape:export-filename="/home/jvican/Images/build-tools-logos.svg.png"
   inkscape:export-xdpi="96"
   inkscape:export-ydpi="96">
  <defs
     id="defs2" />
  <sodipodi:namedview
     id="base"
     pagecolor="#ffffff"
     bordercolor="#666666"
     borderopacity="1.0"
     inkscape:pageopacity="0.0"
     inkscape:pageshadow="2"
     inkscape:zoom="2.1870732"
     inkscape:cx="248.91622"
     inkscape:cy="100.45271"
     inkscape:document-units="mm"
     inkscape:current-layer="layer1"
     showgrid="false"
     inkscape:window-width="1920"
     inkscape:window-height="1172"
     inkscape:window-x="1918"
     inkscape:window-y="26"
     inkscape:window-maximized="0" />
  <metadata
     id="metadata5">
    <rdf:RDF>
      <cc:Work
         rdf:about="">
        <dc:format>image/svg+xml</dc:format>
        <dc:type
           rdf:resource="http://purl.org/dc/dcmitype/StillImage" />
        <dc:title></dc:title>
      </cc:Work>
    </rdf:RDF>
  </metadata>
  <g
     inkscape:label="Layer 1"
     inkscape:groupmode="layer"
     id="layer1"
     transform="translate(-43.727744,-12.875919)">
    <g
       id="g161"
       transform="matrix(0.13856104,0,0,0.13856104,47.124302,26.876837)">
      <g
         display="none"
         id="guidelines"
         style="display:none">
        <line
           id="line134"
           y2="159.20799"
           x2="126.958"
           y1="21.833"
           x1="160.83299"
           display="inline"
           style="display:inline;fill:none;stroke:#ff2d00" />
        <line
           id="line136"
           y2="166.25"
           x2="147.375"
           y1="28.875"
           x1="181.25"
           display="inline"
           style="display:inline;fill:none;stroke:#ff2d00" />
      </g>
      <g
         id="Layer_3">
        <path
           id="path139"
           d="m 17.417,106.458 -13.25,12 c 0,0 6.5,8.125 15.125,13 8.625,4.875 13.381,4.508 23.065,4.379 9.31,0 18.81,-1.754 26.435,-8.504 7.625,-6.75 9.066,-8.6 9.033,-17.112 -0.016,-3.994 -1.075,-12.813 -5.908,-18.513 -5.466,-6.445 -14.781,-9.566 -14.781,-9.566 0,0 -28.53,-7.155 -25.594,-17.059 1.232,-4.156 7.818,-5.726 14.292,-4.583 8.192,1.444 16.474,6.371 16.474,6.371 l 11.577,-11.33 c 0,0 -5.274,-6.198 -13.468,-10.208 C 54.353,42.366 45.989,41.274 40.634,41.255 28.042,41.208 12.299,52.452 10.417,64.083 c -1.375,8.5 1.383,15.676 7.625,21.125 7.875,6.875 13.478,7.771 13.478,7.771 0,0 25.123,6.469 25.123,14.286 0,7.817 -6.101,10.692 -15.851,10.817 -9.75,0.125 -23.375,-11.624 -23.375,-11.624 z"
           inkscape:connector-curvature="0"
           style="fill:#380d09" />
        <path
           id="path141"
           d="m 198.508,45.484 0.2,18.199 h 10.4 l 0.1,53.9 c 0,0 1.801,6.2 6.5,10.8 6.065,5.937 12.4,7.454 12.4,7.454 h 20.399 l 0.101,-18.554 -11,-0.1 c 0,0 -2.401,0.101 -5.1,-2.5 -2.801,-2.7 -2.7,-6.2 -2.7,-6.2 l 0.2,-44.9 h 20 l 0.1,-18.2 -20,-0.1 -0.2,-35.2 h -20.8 l 0.2,35.4 h -10.8 z"
           inkscape:connector-curvature="0"
           style="fill:#380d09" />
        <path
           id="path143"
           d="m 156.667,49.833 c -12.529,-2.767 -25.25,-1.375 -33.375,3.375 l 10.625,-43.125 -21.188,-5.188 -30.125,121.438 21,6.062 2.896,-11.895 c 6.167,11.666 13.194,17.279 26.667,20.333 25,5.667 47.312,-11.762 53.334,-38.667 5.166,-23.083 -10.584,-48.083 -29.834,-52.333 z m 6.089,67.261 -30.152,8.302 -22.49,-22.776 7.666,-31.077 30.155,-8.302 22.487,22.776 z"
           inkscape:connector-curvature="0"
           style="fill:#380d09" />
      </g>
    </g>
    <g
       id="g9544"
       transform="translate(-82.567742,21.753076)">
      <path
         style="fill:#22d826;stroke-width:0.07050961"
         d="m 151.39638,4.0493425 c -1.95484,-0.363934 -3.41464,-1.620617 -4.09367,-3.52406104 -0.15021,-0.421068 -0.26766,-0.645251 -0.34633,-0.661027 -0.18631,-0.03736 -0.51709,0.128087 -0.70678,0.353517 -0.29415,0.349582 -0.34494,0.686326 -0.3491,2.31446504 l -0.004,1.515957 -0.99368,0.0195 -0.99368,0.0195 -0.3561,-0.478889 c -0.46843,-0.629948 -1.37317,-1.484713 -1.83251,-1.731295 -1.18409,-0.635643 -2.14369,-0.05488 -2.80107,1.695252 l -0.19201,0.511195 h -0.87249 -0.87249 l -0.0774,-0.299666 c -0.13327,-0.515822 -0.15369,-0.573529 -0.32042,-0.905345 -0.2018,-0.401626 -0.57497,-0.736554 -0.94378,-0.847053 -0.23658,-0.07088 -0.33111,-0.06498 -0.59921,0.03741 -0.5425,0.207182 -0.83365,0.618549 -1.31484,1.857755 -0.0617,0.158847 -0.0733,0.16021 -1.20378,0.14102 l -1.14149,-0.01938 -0.0678,-0.211529 c -0.0373,-0.116341 -0.0703,-0.973032 -0.0734,-1.903759 -0.004,-1.34260204 0.0203,-1.83062604 0.11986,-2.36207204 0.17086,-0.91217096 0.55602,-2.04186296 0.91351,-2.67936596 0.40334,-0.719243 1.26232,-1.575794 1.92859,-1.923122 0.27713,-0.144472 0.53774,-0.262676 0.57914,-0.262676 0.0414,0 0.28405,0.410598 0.53923,0.912439 0.70711,1.390612 1.2087,1.851045 2.01854,1.852942 0.42727,10e-4 0.78743,-0.120594 1.23994,-0.418627 0.36321,-0.239213 1.07733,-0.957267 1.07733,-1.083263 0,-0.112014 -0.0818,-0.07324 -0.48042,0.227714 -1.03845,0.784036 -1.93456,0.967281 -2.48115,0.507362 -0.24269,-0.204213 -0.992,-1.429906 -1.45574,-2.381252 -0.53141,-1.090186 -0.41175,-1.509292 0.56369,-1.974277 0.5815,-0.277194 1.40169,-0.534884 2.40817,-0.75661 0.58675,-0.129258 0.93588,-0.156152 2.08004,-0.160228 1.22957,-0.0044 1.44153,0.0127 2.00479,0.161546 1.33966,0.354006 2.20884,0.837184 3.31868,1.844847 0.7657,0.695206 1.56588,1.356811 1.77467,1.467341 0.13899,0.07358 0.17183,0.05045 0.35986,-0.253385 0.36065,-0.582798 0.78105,-1.064013 1.25474,-1.436271 0.25268,-0.198575 0.44779,-0.395926 0.43358,-0.438557 -0.0142,-0.04263 -0.21385,-0.22379 -0.44364,-0.402574 -0.22979,-0.178786 -0.42842,-0.379784 -0.44139,-0.446664 -0.0141,-0.0726 0.12045,-0.265641 0.33387,-0.479059 0.32272,-0.322724 0.37966,-0.35302 0.58597,-0.311759 0.38729,0.07746 0.80403,0.3165 1.25803,0.721592 0.30228,0.26972 0.47012,0.373481 0.55048,0.340319 0.28756,-0.118661 1.75082,-0.119628 2.34079,-0.0015 1.56616,0.313462 2.95645,1.499877 3.44181,2.937104 0.26837,0.79469 0.29214,0.769529 -0.72689,0.769529 h -0.87692 l -0.23176,-0.470765 c -0.2849,-0.578716 -0.76747,-1.073185 -1.30313,-1.33526 -0.33376,-0.163292 -0.52153,-0.203272 -1.06668,-0.227115 -0.41509,-0.01815 -0.68978,-7.75e-4 -0.7372,0.04664 -0.0437,0.04375 -0.0694,0.309892 -0.0609,0.631856 0.0441,1.66848 -1.05935,3.651975 -2.47664,4.45184596 -0.55311,0.312153 -0.58933,0.367015 -0.48204,0.730177 0.16119,0.545573 0.59708,1.27826304 1.00077,1.68216504 0.46436,0.46461 1.22711,0.86922 1.85849,0.985863 0.80337,0.148415 2.02383,-0.02392 2.85373,-0.402947 0.64971,-0.296738 0.6365,-0.268401 0.6365,-1.36514704 0,-0.654291 -0.0271,-0.989176 -0.0846,-1.046716 -0.06,-0.05996 -0.48103,-0.08461 -1.44545,-0.08461 h -1.36083 v -0.74039696 -0.740351 h 2.32681 2.32682 V 0.08585046 2.1520805 l -0.20051,0.316171 c -0.40426,0.637451 -1.152,1.112961 -2.19776,1.397613 -1.03373,0.28138 -2.47688,0.358831 -3.41877,0.183478 z m -6.3461,-7.095875 c 0.31022,-0.08612 0.8816,-0.602456 0.8816,-0.796671 0,-0.133704 -0.45355,-0.353415 -0.60756,-0.294316 -0.0536,0.02059 -0.0975,0.119261 -0.0975,0.21928 0,0.258843 -0.31334,0.527669 -0.61505,0.527669 -0.17336,0 -0.30031,-0.0584 -0.44802,-0.206105 -0.23288,-0.232882 -0.2484,-0.331773 -0.10569,-0.673337 0.11848,-0.283558 0.0802,-0.332013 -0.36709,-0.464798 -0.39086,-0.11603 -0.47078,-0.03877 -0.46374,0.44831 0.006,0.442543 0.15444,0.756791 0.46593,0.989052 0.42539,0.31718 0.84141,0.394095 1.35716,0.250916 z m 4.97883,-1.768565 c 0.0409,-0.07632 0.056,-0.157003 0.0337,-0.179297 -0.0572,-0.05723 -0.32344,0.19636 -0.32344,0.308111 0,0.129438 0.19881,0.04104 0.28971,-0.128814 z m 37.45738,8.896712 c -1.26003,-0.227322 -2.29953,-0.9943 -2.81999,-2.08068 -0.35588,-0.742862 -0.46943,-1.38313204 -0.42471,-2.39484604 0.0581,-1.31543996 0.373,-2.11522896 1.14022,-2.89636496 1.41025,-1.435817 4.19217,-1.453043 5.61047,-0.03474 0.64681,0.646805 1.04976,1.671494 1.16163,2.95395996 l 0.0502,0.574949 -3.02332,0.01839 -3.02332,0.01839 0.0111,0.23554 c 0.006,0.129548 0.11188,0.440273 0.23507,0.69050204 0.40111,0.814776 1.12098,1.224501 2.1514,1.224501 0.73707,0 1.11907,-0.154464 1.60429,-0.648709 l 0.40586,-0.413407 0.66941,0.360869 c 0.36818,0.198478 0.66941,0.392076 0.66941,0.430217 0,0.135447 -0.41286,0.664574 -0.82352,1.055442 -0.45663,0.434623 -0.77252,0.619665 -1.36228,0.797999 -0.46084,0.139352 -1.72025,0.200287 -2.23186,0.107986 z m 2.64418,-5.238188 c 0.15197,-0.183113 -0.16866,-0.989349 -0.52925,-1.330843 -0.48116,-0.455668 -1.36966,-0.61368 -2.08334,-0.370505 -0.57431,0.195687 -1.07818,0.754672 -1.28665,1.427377 -0.10903,0.351857 -0.0288,0.366791 1.97097,0.366791 1.44478,0 1.86815,-0.02038 1.92827,-0.09282 z m -15.56451,5.132222 c -1.19401,-0.33296 -2.04563,-1.228429 -2.41305,-2.537286 -0.21354,-0.76069304 -0.21545,-2.07223604 -0.004,-2.864228 0.32808,-1.229766 1.03799,-2.192615 1.94132,-2.632989 1.13233,-0.552015 2.42403,-0.466352 3.32344,0.220403 0.19461,0.148597 0.35628,0.226275 0.3935,0.189062 0.0347,-0.03474 0.0716,-0.918801 0.082,-1.964579 l 0.0188,-1.901414 0.89941,-0.01974 0.89942,-0.01974 -0.0181,5.69576 -0.018,5.695761 h -0.88137 -0.88137 l -0.0217,-0.299666 c -0.0267,-0.369519 -0.14164,-0.387556 -0.49462,-0.07764 -0.47368,0.415895 -0.95102,0.581318 -1.74001,0.602998 -0.4673,0.01284 -0.83339,-0.0164 -1.08552,-0.08671 z m 1.87329,-1.548849 c 0.49539,-0.147117 0.94012,-0.559809 1.19266,-1.106748 0.19632,-0.42518504 0.20528,-0.48830304 0.20327,-1.43192504 -0.002,-0.849405 -0.0237,-1.04124196 -0.15721,-1.37493696 -0.33613,-0.840335 -0.93619,-1.267796 -1.7797,-1.267796 -1.31133,0 -2.13109,1.138021 -2.0246,2.81063296 0.11371,1.78588804 1.18903,2.77956404 2.56558,2.37077304 z m -10.87064,1.48679 c -0.75626,-0.187391 -1.35262,-0.629132 -1.69318,-1.254185 -0.16838,-0.309023 -0.20858,-0.478011 -0.23156,-0.973283 -0.0371,-0.79901304 0.1408,-1.29253904 0.64878,-1.80014104 0.51881,-0.518426 1.00436,-0.71953 2.40411,-0.99575096 1.94262,-0.383346 2.31977,-0.554044 2.31977,-1.04994 0,-0.523194 -0.48587,-0.883612 -1.25798,-0.933163 -0.93893,-0.06026 -1.70337,0.308179 -1.88294,0.907505 l -0.0825,0.2755 h -0.85845 c -0.47216,0 -0.87514,-0.01667 -0.89552,-0.03705 -0.0204,-0.02038 -0.007,-0.200958 0.0292,-0.401285 0.26207,-1.441888 1.54654,-2.165186 3.68616,-2.075717 1.66981,0.06982 2.54343,0.466467 2.93487,1.332507 l 0.16755,0.370688 0.005,3.03191396 c 0.004,2.63860404 0.0199,3.06621304 0.1198,3.29632404 l 0.11481,0.264411 h -1.01881 -1.01879 v -0.170511 c -1e-5,-0.241817 -0.0699,-0.39357 -0.1814,-0.39357 -0.0527,0 -0.29519,0.109586 -0.5389,0.243524 -0.77964,0.42847 -1.9074,0.575947 -2.76993,0.362223 z m 2.40524,-1.589119 c 0.85789,-0.379486 1.08109,-0.745821 1.08344,-1.77825504 0.001,-0.483255 -0.0241,-0.690416 -0.0866,-0.711913 -0.0485,-0.01668 -0.26265,0.02936 -0.47594,0.10231 -0.21329,0.07295 -0.75269,0.196853 -1.19867,0.275347 -1.31508,0.231463 -1.76274,0.553388 -1.76274,1.26765104 0,0.485487 0.31855,0.843878 0.88137,0.991622 0.35718,0.09376 1.19332,0.01506 1.55913,-0.146762 z m -9.33339,-2.48705204 0.0182,-4.03884996 h 0.84612 0.84611 l 0.0208,0.47594 c 0.0252,0.57618 0.10428,0.603678 0.46607,0.162158 0.35599,-0.434438 0.98601,-0.736637 1.65216,-0.792484 l 0.5094,-0.04271 -0.0198,0.909408 -0.0198,0.909407 -0.3605,0.044 c -0.93127,0.11367 -1.67892,0.614783 -2.0099,1.347144 -0.16327,0.36125596 -0.16892,0.43632196 -0.2032,2.698411 l -0.0352,2.326817 -0.86432,0.0198 -0.86432,0.0198 z m 22.68705,-1.67677796 v -5.711278 h 0.91662 0.91663 l -7e-5,1.956642 c -4e-5,1.076153 -0.0211,3.646228 -0.0468,5.71127796 l -0.0467,3.75463704 h -0.86984 -0.86983 z"
         id="path9550"
         inkscape:connector-curvature="0" />
      <path
         style="fill:#002e38;stroke-width:0.07050961"
         d="m 131.44204,3.9422295 c -0.12849,-0.207892 -0.19743,-2.046906 -0.1163,-3.10222304 0.12762,-1.660136 0.44628,-2.86442596 1.04169,-3.93679496 0.37379,-0.673204 1.26515,-1.546298 1.90915,-1.870027 l 0.50761,-0.255163 0.47826,0.933332 c 0.59352,1.15824 0.99559,1.604171 1.6065,1.781769 0.25827,0.07508 0.50964,0.101551 0.69722,0.07342 0.66452,-0.09965 1.49587,-0.651547 2.05573,-1.364717 0.54442,-0.69348 0.37815,-0.782149 -0.36141,-0.192745 -1.16696,0.930016 -2.05463,1.103469 -2.61451,0.510883 -0.49568,-0.524634 -1.64308,-2.732085 -1.64308,-3.161077 0,-0.54795 0.63156,-0.963591 2.11528,-1.392101 1.27447,-0.368077 1.90174,-0.459974 3.17294,-0.464846 2.26956,-0.0087 3.57265,0.493611 5.32628,2.053156 1.18821,1.056703 1.42921,1.245484 2.07722,1.627139 0.74257,0.437341 1.21244,0.603059 1.54879,0.546234 0.38295,-0.0647 0.79982,-0.328245 0.93016,-0.588046 0.17175,-0.342361 0.30464,-0.466362 0.75081,-0.700573 0.59599,-0.312864 0.93193,-0.409123 1.00812,-0.288863 0.16962,0.267748 0.0212,1.357061 -0.29799,2.186588 -0.73946,1.9219 -2.38929,3.17774096 -4.51179,3.43432496 -0.29515,0.03568 -0.61982,0.119373 -0.72148,0.185983 -0.48136,0.315397 -0.62805,0.960321 -0.60924,2.67847904 0.007,0.660166 0.01,1.239964 0.006,1.288439 -0.005,0.0656 -0.24048,0.08814 -0.91981,0.08814 h -0.91267 l -0.38999,-0.518187 c -0.50351,-0.669006 -1.31728,-1.436766 -1.79551,-1.694003 -0.52826,-0.284142 -1.14782,-0.330947 -1.58423,-0.119684 -0.55108,0.266775 -1.05445,0.973611 -1.38447,1.944069 l -0.11988,0.352549 -0.81857,0.01984 -0.81857,0.01984 -0.0763,-0.301874 c -0.33995,-1.344933 -1.06303,-2.007792 -1.91257,-1.753265 -0.5352,0.160349 -0.97265,0.696959 -1.28902,1.581195 l -0.15538,0.434272 -1.06653,0.01943 c -0.69198,0.01261 -1.08266,-0.0067 -1.11246,-0.05489 z m 14.02128,-7.09882 c 0.26895,-0.189027 0.60958,-0.600495 0.60958,-0.736349 0,-0.115655 -0.36296,-0.293027 -0.61529,-0.30068 -0.23927,-0.0073 -0.26119,0.0096 -0.30904,0.237276 -0.0974,0.463312 -0.51111,0.626829 -0.87059,0.344065 -0.19874,-0.156331 -0.21145,-0.303875 -0.0727,-0.844711 0.0439,-0.171093 0.0221,-0.193694 -0.28892,-0.299666 -0.48386,-0.164868 -0.65401,-0.149553 -0.73606,0.06625 -0.1636,0.430299 -0.0204,0.995619 0.34457,1.360624 0.33275,0.332754 0.63285,0.433362 1.19917,0.402017 0.35661,-0.01974 0.50887,-0.06686 0.73931,-0.228823 z m 3.62593,-4.510419 c -0.24351,-0.171277 -0.45433,-0.345092 -0.46848,-0.386256 -0.0142,-0.04116 0.11143,-0.214611 0.27909,-0.385439 0.3641,-0.37099 0.57231,-0.396472 1.09011,-0.133415 0.54607,0.277418 0.993,0.737627 0.71894,0.740304 -0.0485,4.94e-4 -0.33311,0.107817 -0.63253,0.238539 l -0.54438,0.237679 z"
         id="path9546"
         inkscape:connector-curvature="0" />
    </g>
    <g
       id="g9582"
       transform="translate(-48.753322,16.059356)">
      <g
         id="g9606"
         transform="translate(42.029607,-42.508283)">
        <path
           inkscape:connector-curvature="0"
           id="path9590"
           d="m 103.4078,90.444747 c -1.12553,-0.180678 -2.06382,-0.623607 -2.7356,-1.291364 -0.887342,-0.882036 -1.200922,-1.819513 -1.131362,-3.382296 0.0493,-1.108184 0.18357,-1.656685 0.648092,-2.647869 0.40315,-0.860217 1.07781,-1.749969 1.76603,-2.32903 0.70231,-0.590922 1.94395,-1.189908 2.86797,-1.383549 0.95004,-0.199095 2.34134,-0.211092 3.14312,-0.0271 2.0032,0.459682 3.25811,2.040218 3.26446,4.111533 0.002,0.507831 -0.21666,1.913243 -0.33125,2.133391 -0.0691,0.132828 -0.34075,0.142626 -3.95358,0.142626 -4.38308,0 -4.11898,-0.04143 -4.02195,0.630894 0.12977,0.899239 0.59088,1.466306 1.38232,1.699978 0.35986,0.106251 0.66896,0.125701 1.46415,0.09213 1.15086,-0.04859 2.14365,-0.277136 3.27333,-0.753553 0.94036,-0.39658 1.0659,-0.424063 1.06112,-0.232304 -0.002,0.08367 -0.1029,0.647247 -0.22403,1.252393 -0.25266,1.262178 -0.16191,1.15992 -1.33592,1.505275 -1.21227,0.356611 -1.99963,0.467874 -3.49183,0.493437 -0.77238,0.01323 -1.51266,0.0067 -1.64507,-0.01459 z m 4.4136,-7.369248 c 0,-0.444913 -0.0365,-0.591869 -0.21539,-0.866263 -0.5872,-0.900913 -2.27906,-0.924517 -3.25418,-0.0454 -0.33501,0.30203 -0.9039,1.172367 -0.9039,1.382862 0,0.08753 0.41416,0.103874 2.18673,0.0863 l 2.18674,-0.02169 z m -57.36954,7.271544 c -0.03384,-0.05562 2.084438,-12.760952 2.240635,-13.439201 l 0.04223,-0.183377 h 1.884281 1.884281 v 0.188784 c 0,0.175237 -0.112827,0.914985 -0.204281,1.339361 -0.06441,0.298909 0.107849,0.214604 0.625212,-0.305975 1.016563,-1.022884 1.928232,-1.470675 3.115153,-1.530091 1.500882,-0.07513 2.566771,0.495326 3.16471,1.693739 0.110258,0.220983 0.200469,0.455855 0.200469,0.521938 0,0.277544 0.178954,0.164669 0.9313,-0.587417 1.185567,-1.185157 2.179328,-1.643423 3.568042,-1.645376 2.299194,-0.0032 3.587492,1.590149 3.41724,4.226484 -0.04773,0.739055 -1.450793,9.236743 -1.586285,9.607361 -0.06685,0.18287 -0.07214,0.183377 -1.909977,0.183377 -1.013615,0 -1.862658,-0.03241 -1.886762,-0.07202 -0.0241,-0.03961 0.284734,-1.992581 0.686308,-4.339933 0.403847,-2.360637 0.73424,-4.526853 0.73932,-4.847341 0.008,-0.506488 -0.01902,-0.622716 -0.21488,-0.923304 -0.414997,-0.6369 -1.22119,-0.745608 -2.066055,-0.278591 -0.533075,0.294669 -0.894576,0.729059 -1.278946,1.536818 -0.422935,0.888803 -0.54821,1.44053 -1.202862,5.297572 -0.311937,1.83785 -0.586182,3.405728 -0.609433,3.484173 -0.0387,0.130555 -0.201422,0.142626 -1.922678,0.142626 h -1.880403 v -0.212446 c 0,-0.116845 0.285803,-1.8681 0.635116,-3.891678 0.349314,-2.023577 0.679329,-3.963841 0.733368,-4.311698 0.238801,-1.537217 -0.174545,-2.306564 -1.23421,-2.297192 -0.927453,0.0082 -1.732572,0.661038 -2.298525,1.86377 -0.406003,0.862818 -0.529577,1.413316 -1.208091,5.381834 -0.313885,1.835862 -0.588428,3.367064 -0.610096,3.402671 -0.05337,0.0877 -3.700729,0.08297 -3.754182,-0.0049 z m 25.171914,-0.0163 c -0.837985,-0.167975 -1.559563,-0.696613 -1.933748,-1.416691 -0.199322,-0.383573 -0.214447,-0.484527 -0.214447,-1.431441 0,-0.978895 0.01014,-1.040501 0.259031,-1.574198 0.808119,-1.732837 2.714893,-2.495173 6.251232,-2.499267 1.476545,-0.0017 1.497883,-0.0077 1.574718,-0.439599 0.09582,-0.538692 -0.232671,-1.075698 -0.807151,-1.319481 -0.971943,-0.412449 -3.046267,-0.282035 -4.815353,0.302744 -0.278669,0.09211 -0.524287,0.149591 -0.545819,0.127723 -0.06321,-0.0642 0.341208,-2.098988 0.436395,-2.195662 0.124455,-0.126399 1.414028,-0.366349 2.572701,-0.478701 1.232402,-0.119501 3.238042,-0.05408 3.89642,0.127103 1.156045,0.318132 1.750765,0.753526 2.147645,1.572294 0.25399,0.523988 0.26467,0.584615 0.26164,1.485263 -0.003,0.836135 -0.0713,1.287109 -0.62529,4.11752 -0.34216,1.748199 -0.64109,3.242725 -0.66429,3.32117 -0.0383,0.129518 -0.1865,0.142627 -1.612481,0.142627 h -1.570321 l 0.05103,-0.366755 c 0.02807,-0.201715 0.07399,-0.531795 0.102061,-0.73351 0.06775,-0.48689 -0.02787,-0.475471 -0.626619,0.07483 -1.126517,1.035368 -2.672223,1.477719 -4.137356,1.18403 z m 3.875441,-2.297605 c 0.699112,-0.364518 1.248783,-1.132046 1.481175,-2.068224 0.170646,-0.687436 0.17864,-0.682833 -1.186024,-0.682833 -1.344989,0 -1.958339,0.117535 -2.466919,0.472732 -0.404587,0.282568 -0.601569,0.675177 -0.60173,1.199312 -1.6e-4,0.548138 0.210241,0.925041 0.650307,1.164887 0.310325,0.169135 0.43454,0.188233 1.034761,0.159097 0.533462,-0.0259 0.770646,-0.07928 1.08843,-0.244971 z m 9.986683,2.037133 c -0.11983,-0.289856 -2.08906,-10.424645 -2.04092,-10.503749 0.0725,-0.11909 3.00099,-0.08943 3.04635,0.03086 0.0211,0.05603 0.3256,1.675731 0.67661,3.599331 0.35101,1.9236 0.67232,3.532114 0.71403,3.574474 0.0911,0.09249 -0.0353,0.315605 2.20446,-3.893386 l 1.77813,-3.341545 1.67492,-0.02206 c 1.59302,-0.02098 1.67304,-0.01472 1.63629,0.128017 -0.0531,0.20634 -6.00245,10.474512 -6.11207,10.549064 -0.0484,0.03293 -0.85618,0.06044 -1.79501,0.06113 -1.69478,0.0012 -1.70752,-6.2e-5 -1.78279,-0.182129 z m 23.152682,0.105735 c -0.0466,-0.07659 1.919,-10.459596 2.0077,-10.605355 0.0255,-0.0419 0.77151,-0.07515 1.68606,-0.07515 1.86241,0 1.70333,-0.08074 1.54629,0.784814 -0.0517,0.285094 -0.0732,0.539527 -0.0477,0.565407 0.0255,0.02588 0.27121,-0.136984 0.54606,-0.36192 1.12082,-0.91728 2.14664,-1.27387 3.48769,-1.212365 1.46545,0.06721 2.29884,0.662379 2.65119,1.893369 0.2387,0.833931 0.13672,1.778228 -0.60292,5.582623 -0.36148,1.859344 -0.67444,3.408884 -0.69545,3.443422 -0.021,0.03454 -0.77637,0.0628 -1.67855,0.0628 -1.52005,0 -1.64033,-0.01065 -1.64033,-0.145259 0,-0.07989 0.26713,-1.556081 0.59362,-3.28042 0.71683,-3.785852 0.69596,-3.643594 0.59892,-4.083652 -0.10435,-0.473187 -0.39818,-0.769947 -0.87811,-0.88688 -1.04251,-0.254002 -2.2014,0.470135 -2.79783,1.748229 -0.29782,0.638199 -0.30534,0.669481 -0.91565,3.810897 -0.28468,1.465332 -0.54127,2.70313 -0.57019,2.750662 -0.0676,0.111142 -3.22337,0.119562 -3.29079,0.0088 z"
           style="fill:#fd6601;stroke-width:0.08087174" />
        <path
           inkscape:connector-curvature="0"
           id="path9584"
           d="m 103.5683,90.330486 c -1.52869,-0.209804 -2.70011,-0.867873 -3.32851,-1.869862 -0.438482,-0.699161 -0.589132,-1.317349 -0.585912,-2.404283 0.006,-1.988395 0.677412,-3.512428 2.180382,-4.948403 0.77157,-0.737185 1.75665,-1.269567 2.8575,-1.54432 0.94555,-0.235995 2.62302,-0.25387 3.40569,-0.03629 1.44557,0.401862 2.42134,1.328116 2.82659,2.683174 0.14627,0.489086 0.16225,0.695691 0.12318,1.592657 -0.0247,0.566867 -0.0949,1.214044 -0.15601,1.438172 l -0.11111,0.407506 -3.96701,0.04075 -3.96702,0.04075 v 0.572979 c 0,1.105334 0.59122,1.769285 1.778,1.996712 1.08016,0.206996 3.00214,-0.118095 4.5512,-0.76981 0.39155,-0.164728 0.7307,-0.280416 0.75367,-0.257085 0.0371,0.03773 -0.0766,0.708665 -0.31508,1.859058 l -0.0801,0.386314 -0.77593,0.248322 c -1.53678,0.491816 -3.86805,0.745026 -5.18953,0.563659 z m 4.29322,-6.595215 c 0.18593,-0.11939 0.14916,-1.018602 -0.0584,-1.427981 -0.20963,-0.413477 -0.37333,-0.562012 -0.86075,-0.78099 -0.84578,-0.379975 -2.23603,-0.01324 -2.89637,0.764038 -0.48615,0.572236 -0.79457,1.29801 -0.62484,1.470389 0.0843,0.08564 4.30501,0.06145 4.44034,-0.02546 z m -57.296527,6.481958 c 0,-0.06657 0.145853,-0.974992 0.324117,-2.018712 0.178265,-1.043719 0.504858,-2.961262 0.725763,-4.261204 0.828513,-4.875486 1.200919,-6.990281 1.243191,-7.059747 0.05286,-0.08686 3.460004,-0.09702 3.511936,-0.01047 0.02017,0.03362 -0.01191,0.336192 -0.07129,0.672384 -0.135287,0.765922 -0.143274,1.141015 -0.0243,1.141015 0.05066,0 0.404332,-0.305681 0.78593,-0.67929 1.403868,-1.374478 2.988901,-1.828136 4.448918,-1.273338 0.844762,0.321004 1.54813,1.065039 1.759125,1.860831 0.05198,0.196052 0.141461,0.374756 0.198843,0.39712 0.05912,0.02304 0.365139,-0.244458 0.706138,-0.617246 0.708685,-0.774751 1.507204,-1.338867 2.306565,-1.629481 0.782155,-0.28436 2.030685,-0.297852 2.706258,-0.02925 0.635541,0.252689 1.098338,0.627689 1.442959,1.169217 0.7115,1.118028 0.736678,2.360324 0.119482,5.895253 -0.211316,1.210292 -0.551112,3.172431 -0.755103,4.36031 l -0.370893,2.159779 -1.784964,0.02193 c -1.662203,0.02043 -1.78491,0.01202 -1.784192,-0.122251 4.01e-4,-0.0793 0.08814,-0.657643 0.194915,-1.285202 1.010492,-5.938866 1.248764,-7.427731 1.248764,-7.803026 0,-0.920811 -0.543265,-1.528851 -1.365981,-1.528851 -1.175105,0 -2.031022,0.7495 -2.643152,2.314529 -0.276002,0.70565 -0.433636,1.478149 -1.119904,5.48817 -0.262648,1.534709 -0.500142,2.82752 -0.527765,2.872914 -0.05904,0.09703 -3.461144,0.11666 -3.519775,0.02031 -0.02083,-0.03422 0.138815,-1.088643 0.354755,-2.343157 0.945482,-5.492797 1.03784,-6.092444 1.03784,-6.738282 0,-0.557601 -0.03143,-0.717375 -0.197882,-1.005836 -0.249116,-0.431727 -0.604581,-0.608649 -1.222878,-0.608649 -0.965696,0 -1.765931,0.667407 -2.387497,1.991205 -0.469339,0.999588 -0.486082,1.079249 -1.55148,7.381423 l -0.227336,1.344768 -1.780556,0.02193 c -1.530983,0.01886 -1.780556,0.005 -1.780556,-0.0991 z m 39.049295,-0.11177 c -0.0452,-0.07431 -2.05532,-10.275121 -2.05532,-10.430292 0,-0.0728 0.3615,-0.09816 1.39892,-0.09816 1.26267,0 1.40304,0.01389 1.44127,0.142627 0.0233,0.07845 0.19001,0.967826 0.37049,1.976402 0.18048,1.008576 0.4708,2.596488 0.64516,3.528694 0.17436,0.932205 0.31702,1.71411 0.31702,1.737567 0,0.02346 0.0728,0.03093 0.16185,0.0166 0.12267,-0.01974 0.63402,-0.913998 2.11208,-3.693593 l 1.95022,-3.66755 1.53917,-0.02213 c 0.99375,-0.01429 1.53918,0.0069 1.53918,0.0599 0,0.04512 -0.10356,0.256797 -0.23012,0.470392 -0.12657,0.213595 -0.53747,0.920149 -0.91312,1.57012 -3.71017,6.419562 -4.75489,8.211332 -4.85894,8.333488 -0.10826,0.127093 -0.29879,0.142627 -1.74938,0.142627 -0.89535,0 -1.64616,-0.03001 -1.66848,-0.06669 z m 23.180422,-0.01814 c -0.0511,-0.08399 0.17542,-1.326367 1.40372,-7.69853 l 0.53414,-2.771038 1.47704,-0.02228 c 0.81237,-0.01226 1.51941,-0.0058 1.5712,0.01442 0.0712,0.02774 0.0676,0.16251 -0.0147,0.55204 -0.15164,0.718092 -0.1454,0.882094 0.0336,0.882094 0.0814,0 0.21672,-0.07705 0.30064,-0.171228 0.32296,-0.36245 1.53389,-1.104727 2.12044,-1.299793 0.81313,-0.270421 2.05654,-0.272337 2.74117,-0.0042 0.82319,0.322375 1.33631,0.990422 1.51212,1.968684 0.13427,0.74711 0.0698,1.240383 -0.6488,4.967136 -0.35008,1.815437 -0.63652,3.361054 -0.63654,3.434702 -10e-6,0.07365 -0.0571,0.156169 -0.12696,0.183377 -0.18398,0.0717 -2.98697,0.06091 -3.02671,-0.01166 -0.0184,-0.03362 0.23617,-1.436457 0.56573,-3.117417 0.80755,-4.119037 0.81307,-4.525344 0.0691,-5.088783 -0.18253,-0.138233 -0.33822,-0.167617 -0.87776,-0.165663 -0.8034,0.0029 -1.26316,0.214235 -1.84828,0.849555 -0.69898,0.758942 -0.87026,1.276006 -1.52081,4.591132 l -0.5792,2.951551 -1.49768,0.02215 c -1.01186,0.01497 -1.51512,-0.0065 -1.55145,-0.06623 z"
           style="fill:#000000;stroke-width:0.08087174" />
      </g>
    </g>
    <path
       style="fill:#000000;stroke-width:0.26458335"
       d="m 85.49278,37.117662 v -5.55625 h 13.22917 13.22916 v 5.55625 5.55625 H 98.72195 85.49278 Z m 5.62772,0.393959 c 0.83382,-1.675093 1.51603,-3.103843 1.51603,-3.175 0,-0.07116 -0.38935,-0.129376 -0.86522,-0.129376 -0.83933,0 -0.91059,0.09115 -2.38125,3.045625 -0.83382,1.675093 -1.51603,3.103843 -1.51603,3.175 0,0.07116 0.38935,0.129375 0.86522,0.129375 0.83933,0 0.91059,-0.09115 2.38125,-3.045624 z m 2.00273,2.371717 c 0.16888,-0.37065 0.30107,-1.471978 0.29376,-2.447396 l -0.0133,-1.773488 -1.16404,2.248958 c -0.64023,1.236927 -1.17003,2.338255 -1.17734,2.447396 -0.007,0.10914 0.38432,0.198437 0.87028,0.198437 0.69007,0 0.95082,-0.147583 1.19063,-0.673907 z m 4.57133,-1.508905 0.0309,-2.182813 0.52794,2.182813 c 0.46916,1.939797 0.59496,2.182812 1.12997,2.182812 0.535,0 0.6608,-0.243015 1.12996,-2.182812 l 0.52794,-2.182813 0.0309,2.182813 c 0.0304,2.143693 0.0428,2.182812 0.69241,2.182812 h 0.66145 v -3.05868 -3.05868 l -0.97277,0.08212 c -0.95842,0.08091 -0.97791,0.105539 -1.32138,1.669617 -0.58654,2.671049 -0.63725,2.845331 -0.78493,2.697656 -0.0786,-0.0786 -0.25677,-0.658197 -0.39594,-1.287992 -0.68366,-3.093811 -0.70296,-3.129455 -1.69455,-3.129455 h -0.91584 v 3.042708 3.042708 h 0.66146 c 0.6496,0 0.66201,-0.03912 0.6924,-2.182812 z m 6.84822,-0.06615 c 0,-2.072569 -0.0415,-2.248958 -0.52917,-2.248958 -0.48766,0 -0.52916,0.176389 -0.52916,2.248958 0,2.072569 0.0415,2.248958 0.52916,2.248958 0.48767,0 0.52917,-0.176389 0.52917,-2.248958 z m 2.38125,-0.79375 c 0,-2.866319 -0.0307,-3.042708 -0.52917,-3.042708 -0.49849,0 -0.52916,0.176389 -0.52916,3.042708 0,2.866319 0.0307,3.042708 0.52916,3.042708 0.49849,0 0.52917,-0.176389 0.52917,-3.042708 z m 2.38125,0 c 0,-2.866319 -0.0307,-3.042708 -0.52917,-3.042708 -0.49849,0 -0.52916,0.176389 -0.52916,3.042708 0,2.866319 0.0307,3.042708 0.52916,3.042708 0.49849,0 0.52917,-0.176389 0.52917,-3.042708 z M 89.44824,34.405679 c 0.007,-0.109141 -0.38432,-0.198438 -0.87028,-0.198438 -1.14744,0 -1.50219,0.745944 -1.48439,3.121304 l 0.0133,1.773488 1.16405,-2.248958 c 0.64022,-1.236927 1.17002,-2.338256 1.17733,-2.447396 z m 15.35912,0.595312 c 0,-0.388055 -0.17639,-0.529166 -0.66145,-0.529166 -0.48507,0 -0.66146,0.141111 -0.66146,0.529166 0,0.388056 0.17639,0.529167 0.66146,0.529167 0.48506,0 0.66145,-0.141111 0.66145,-0.529167 z"
       id="path9562"
       inkscape:connector-curvature="0" />
  </g>
  <style
     id="style89">
    .regular{fill:#43A047;} .dark-left{fill:#00701A;} .dark-right{fill:#004300;} .light{fill:#76D275;}
  </style>
</svg>
