<svg height="511pt" viewBox="0 -1 511.99982 511" width="511pt" xmlns="http://www.w3.org/2000/svg"><path d="m511.511719 200.828125-12.6875 34.859375c-1.519531 4.164062-6.125 6.3125-10.289063 4.804688l-42.90625-15.621094c-4.453125 6.632812-9.601562 12.75-15.34375 18.265625l22.84375 39.550781c.144532.257812.277344.515625.390625.785156 1.632813 3.699219.25 8.109375-3.335937 10.1875l-32.132813 18.542969c-3.84375 2.222656-8.75.910156-10.972656-2.933594l-22.820313-39.527343c-7.53125 2.179687-15.394531 3.574218-23.496093 4.109374l-7.933594 44.984376c-.765625 4.359374-4.929687 7.285156-9.300781 6.511718l-36.53125-6.4375c-4.371094-.777344-7.285156-4.941406-6.519532-9.308594l7.925782-44.953124c-7.335938-3.246094-14.25-7.265626-20.644532-11.945313l-34.992187 29.351563c-3.390625 2.851562-8.460937 2.410156-11.3125-.992188l-23.847656-28.410156c-2.851563-3.398438-2.40625-8.472656.992187-11.324219l34.972656-29.34375c-3.492187-7.074219-6.238281-14.585937-8.160156-22.417969h-45.65625c-4.433594 0-8.027344-3.59375-8.027344-8.027344v-37.101562c0-4.441406 3.59375-8.039062 8.027344-8.039062h45.65625c1.921875-7.832032 4.667969-15.332032 8.160156-22.417969l-34.972656-29.34375c-3.398437-2.851563-3.84375-7.914063-.992187-11.3125l23.847656-28.421875c2.851563-3.398438 7.921875-3.84375 11.3125-.992188l34.992187 29.363282c6.394532-4.691407 13.308594-8.699219 20.644532-11.953126l-7.925782-44.953124c-.765624-4.363282 2.148438-8.535157 6.519532-9.300782l36.53125-6.445312c3.515625-.6093752 6.894531 1.144531 8.472656 4.132812.394531.722656.671875 1.527344.828125 2.386719l7.933594 44.972656c8.101562.539063 15.964843 1.941407 23.496093 4.121094l22.820313-39.527344c2.222656-3.84375 7.128906-5.15625 10.972656-2.945312l32.132813 18.554687c3.84375 2.210938 5.15625 7.128906 2.945312 10.964844l-22.84375 39.558594c5.742188 5.507812 10.890625 11.632812 15.34375 18.265625l42.90625-15.621094c4.164063-1.519531 8.769532.628906 10.289063 4.804687l12.6875 34.859376c1.519531 4.164062-.628907 8.769531-4.792969 10.289062l-42.90625 15.621094c.410156 3.917968.628906 7.894531.628906 11.925781 0 4.027344-.21875 8.003906-.628906 11.933594l42.90625 15.609375c4.164062 1.519531 6.3125 6.125 4.792969 10.300781zm0 0" fill="#63a6fd"/><path d="m450.183594 293.660156-32.128906 18.542969c-3.84375 2.222656-8.753907.910156-10.972657-2.933594l-22.824219-39.527343c-7.53125 2.179687-15.394531 3.574218-23.496093 4.109374l-7.933594 44.984376c-.765625 4.359374-4.925781 7.285156-9.296875 6.511718l-36.535156-6.4375c-4.367188-.777344-7.28125-4.941406-6.519532-9.308594l7.925782-44.953124c-7.335938-3.246094-14.246094-7.265626-20.644532-11.945313l-34.992187 29.351563c-3.386719 2.851562-8.460937 2.410156-11.3125-.992188l-23.847656-28.410156c-2.851563-3.398438-2.40625-8.472656.992187-11.324219l34.972656-29.34375c-3.492187-7.074219-6.238281-14.585937-8.160156-22.417969h-45.65625c-4.433594 0-8.027344-3.59375-8.027344-8.027344v-37.101562c0-4.441406 3.59375-8.039062 8.027344-8.039062h45.65625c1.921875-7.832032 4.667969-15.332032 8.160156-22.417969l-34.972656-29.34375c-3.398437-2.851563-3.84375-7.914063-.992187-11.3125l23.847656-28.421875c2.851563-3.398438 7.925781-3.84375 11.3125-.992188l34.992187 29.363282c6.398438-4.691407 13.308594-8.699219 20.644532-11.953126l-7.925782-44.953124c-.761718-4.363282 2.152344-8.535157 6.519532-9.300782l36.535156-6.445312c3.511719-.6093752 6.890625 1.144531 8.472656 4.132812-24.601562 29.753906-39.375 67.917969-39.375 109.535156 0 84.371094 60.738282 154.550782 140.894532 169.183594 1.628906 3.699219.246093 8.109375-3.339844 10.1875zm0 0" fill="#1980f9"/><path d="m500.898438 408.058594-177.519532 90.011718c-23.851562 15.175782-54.195312 14.914063-77.664062-.203124-11.019532-7.105469-14.480469-7.792969-72.417969-36.4375-25.746094-12.597657-49.199219-16.605469-87.429687-21.320313v-111.195313h126.78125c7.875 0 15.414062 3.128907 20.984374 8.699219 1.742188 1.746094-11.566406-11.5625 57.027344 57.015625 5.210938 5.210938 7.789063 12.164063 7.601563 19.046875l1.21875-.835937 186.074219-46.84375c24.65625-3.117188 35.699218 29.144531 15.34375 42.0625zm0 0" fill="#f2bb88"/><path d="m291.371094 430.269531c-9.789063 10.121094-25.886719 10.277344-35.867188.316407l-47.414062-47.425782c-2.53125-2.53125-5.964844-3.953125-9.542969-3.953125h-112.679687v-50.289062h126.78125c7.878906 0 15.417968 3.125 20.984374 8.691406 1.742188 1.742187-11.5625-11.5625 57.027344 57.015625 9.675782 9.675781 10.367188 25.652344.710938 35.644531zm0 0" fill="#f2d1a5"/><path d="m92.210938 325.828125v137.476563c0 1.949218-.1875 3.871093-.527344 5.730468 0 0 0 0-.011719 0-2.707031 14.550782-15.539063 25.65625-30.847656 25.65625h-29.4375c-17.261719 0-31.386719-14.125-31.386719-31.386718v-137.476563c0-15.382813 11.210938-28.265625 25.871094-30.890625 1.796875-.332031 3.636718-.496094 5.515625-.496094h29.4375c17.261719 0 31.386719 14.125 31.386719 31.386719zm0 0" fill="#63a6fd"/><path d="m424.738281 123.515625-84.410156 84.410156-3.578125 3.574219c-2.683594 2.695312-6.269531 4.183594-10.09375 4.183594-3.8125 0-7.394531-1.488282-10.082031-4.183594l-37.585938-37.574219c-3.027343-3.027343-3.027343-7.9375 0-10.964843 3.027344-3.027344 7.933594-3.027344 10.960938 0l36.707031 36.71875 5.582031-5.578126 81.546875-81.546874c3.015625-3.019532 7.925782-3.019532 10.953125 0 3.023438 3.027343 3.023438 7.933593 0 10.960937zm0 0" fill="#fff5f4"/><path d="m91.675781 469.039062c-2.707031 14.546876-15.539062 25.652344-30.851562 25.652344h-29.433594c-17.265625 0-31.390625-14.121094-31.390625-31.386718v-137.472657c0-15.382812 11.210938-28.269531 25.871094-30.890625-.351563 1.859375-.535156 3.78125-.535156 5.730469v137.476563c0 17.261718 14.121093 31.386718 31.386718 31.386718h29.425782c1.890624 0 3.726562-.164062 5.527343-.496094zm0 0" fill="#4395fb"/><path d="m64.667969 445.246094c0 10.253906-8.308594 18.5625-18.5625 18.5625-10.253907 0-18.5625-8.308594-18.5625-18.5625s8.308593-18.5625 18.5625-18.5625c10.253906 0 18.5625 8.308594 18.5625 18.5625zm0 0" fill="#285fb3"/></svg>