<?xml version="1.0" encoding="iso-8859-1"?>
<!-- Generator: Adobe Illustrator 19.0.0, SVG Export Plug-In . SVG Version: 6.00 Build 0)  -->
<svg xmlns="http://www.w3.org/2000/svg" xmlns:xlink="http://www.w3.org/1999/xlink" version="1.1" id="Layer_1" x="0px" y="0px" viewBox="0 0 512 512" style="enable-background:new 0 0 512 512;" xml:space="preserve" width="512" height="512">
<g>
	<path style="fill:#FF2B59;" d="M256,0L128,256l128,256c141.385,0,256-114.615,256-256S397.385,0,256,0z"/>
	<path style="fill:#FF4E51;" d="M0,256c0,141.385,114.615,256,256,256V0C114.615,0,0,114.615,0,256z"/>
	<path style="fill:#DAE0E7;" d="M256,60l-98,196l98,196c108.248,0,196-87.752,196-196S364.248,60,256,60z"/>
	<path style="fill:#FFFFFF;" d="M60,256c0,108.248,87.752,196,196,196V60C147.752,60,60,147.752,60,256z"/>
	<polygon style="fill:#233952;" points="271,392 256,392 246,407 256,422 271,422  "/>
	<rect x="241" y="392" style="fill:#3D5168;" width="15" height="30"/>
	
		<rect x="316.5" y="371.77" transform="matrix(0.866 -0.5 0.5 0.866 -148.9723 217.5673)" style="fill:#233952;" width="30" height="30"/>
	
		<rect x="371.77" y="316.5" transform="matrix(0.5 -0.866 0.866 0.5 -93.7025 500.7025)" style="fill:#233952;" width="30" height="30"/>
	<rect x="241" y="90" style="fill:#233952;" width="15" height="181"/>
	<polygon style="fill:#09213D;" points="271,241 271,90 256,90 256,271 422,271 422,241  "/>
	
		<rect x="165.5" y="110.23" transform="matrix(-0.866 0.5 -0.5 -0.866 399.4327 143.4327)" style="fill:#3D5168;" width="30" height="30"/>
	
		<rect x="110.23" y="165.5" transform="matrix(-0.5 0.866 -0.866 -0.5 344.1628 162.2975)" style="fill:#3D5168;" width="30" height="30"/>
	<rect x="90" y="241" style="fill:#3D5168;" width="30" height="30"/>
	
		<rect x="110.23" y="316.5" transform="matrix(0.5 0.866 -0.866 0.5 349.7025 57.2975)" style="fill:#3D5168;" width="30" height="30"/>
	
		<rect x="165.5" y="371.77" transform="matrix(0.866 0.5 -0.5 0.866 217.5673 -38.4327)" style="fill:#3D5168;" width="30" height="30"/>
</g>















</svg>
