<?xml version="1.0" encoding="utf-8" standalone="no"?>
<svg xmlns:dc="http://purl.org/dc/elements/1.1/" xmlns:cc="http://creativecommons.org/ns#" xmlns:rdf="http://www.w3.org/1999/02/22-rdf-syntax-ns#" xmlns:svg="http://www.w3.org/2000/svg" xmlns="http://www.w3.org/2000/svg" xmlns:xlink="http://www.w3.org/1999/xlink" xmlns:sodipodi="http://sodipodi.sourceforge.net/DTD/sodipodi-0.dtd" xmlns:inkscape="http://www.inkscape.org/namespaces/inkscape" id="Layer_1" x="0px" y="0px" viewBox="0 0 442.474 487.521" inkscape:version="0.92.2 5c3e80d, 2017-08-06">
  <metadata id="metadata204"/>
  <defs id="defs202"/>
  <switch id="switch197">
    <g id="g195">
      <g id="orca">
        <linearGradient id="XMLID_62_" gradientUnits="userSpaceOnUse" x1="228.7366" y1="263.7905" x2="223.5222" y2="323.9308">
          <stop offset="0" style="stop-color:#455663" id="stop127"/>
          <stop offset="1" style="stop-color:#111822" id="stop129"/>
        </linearGradient>
        <path id="XMLID_19_" fill="url(#XMLID_62_)" d="M222.495,256.867c-3.807-0.275-7.603-0.511-11.449-0.536     c-0.2,0-0.393,0.037-0.587,0.037c-7.029,0.099-13.87,0.899-20.469,2.373c0,1.323,0.1,2.609,0.1,3.97     c0,22.886-2.154,45.272-6.024,67.021c5.043-1.884,9.975-3.92,14.781-6.243c25.639-12.335,47.738-30.526,64.731-52.912     c1.418-1.923,2.904-3.772,4.251-5.719C253.333,260.787,238.096,257.866,222.495,256.867z"/>
        <path id="XMLID_18_" fill="#0B0E15" d="M221.234,486.447c-28.216,0-55.841-5.356-82.092-15.893     c-11.324-4.582-22.124-9.976-32.112-16.043C43.392,415.831,3.87,348.372,1.323,274.072l-0.037-0.924     c-0.1-2.284-0.2-4.544-0.2-6.841c0-90.344,54.198-170.519,138.056-204.242c0.325-0.125,0.55-0.374,0.643-0.693     c0.099-0.319,0.05-0.656-0.131-0.943c-13.041-19.271-28.067-37.438-44.685-54.062c13.928-3.502,27.811-5.269,41.296-5.269     c43.836,0,85.519,16.774,117.363,47.264c0.162,0.162,0.368,0.275,0.593,0.292c51.578,7.748,98.908,33.818,133.301,73.414     c34.728,39.985,53.861,91.212,53.861,144.238c0,7.129-0.375,14.407-1.135,22.261c-0.175,0.912-7.854,40.964-27.818,45.859     c-1.33,0.324-2.703,0.499-4.095,0.499c-6.312,0-13.259-3.371-20.657-10.063c-0.525-0.45-49.018-40.128-110.814-57.508     c-12.848-6.38-27.798-9.639-44.26-9.639c-23.866,0-42.781,7.016-42.982,7.104c-33.71,11.911-58.431,41.164-64.486,76.347     c-1.042,6.169-1.548,11.712-1.548,16.881c0,29.865,13.353,57.882,36.638,76.834c8.222,6.643,17.492,11.949,27.568,15.732     c0.124,0.099,0.262,0.199,0.424,0.249c0.018,0,0.474,0.113,1.28,0.374c5.905,2.098,12.098,3.621,18.396,4.595     c4.87,1.024,10.032,2.01,15.301,2.921c0.063,0,0.132,0.026,0.189,0.026c0.437,0,0.842-0.262,1.018-0.687     c0.193-0.475,0.024-1.036-0.407-1.324l-0.949-0.637c-0.6-0.399-1.21-0.799-1.779-1.198     c-10.469-7.379-20.077-15.858-28.585-25.334c-6.555-7.242-10.457-12.747-11.499-14.245c-2.278-3.521-4.307-7.029-6.024-10.388     c-14.128-27.144-12.492-50.616-8.633-65.536c2.179-8.39,5.225-14.77,7.235-18.466c0.019,5.505,0.899,10.774,2.652,16.006     c2.548,7.666,6.918,14.757,12.967,21.087c4.794,4.945,9.552,8.465,12.704,10.55c3.894,2.572,6.654,3.846,6.767,3.896     c25.843,10.163,40.489,52.864,40.633,53.325c0.131,0.374,0.468,0.637,0.867,0.725c0.056,0,0.125,0,0.175,0     c0.344,0,0.662-0.162,0.868-0.437c9.158-12.136,29.553-20.327,59.012-23.686c7.148-0.811,14.645-1.298,22.293-1.486     c0.106-0.024,0.212-0.05,0.33-0.087h0.438c1.698-0.05,3.308-0.063,4.876-0.063c10.238-0.374,29.583-1.785,44.754-7.242     c3.671-1.624,7.303-3.383,11.161-5.344c2.335-1.486,3.302-1.923,3.708-2.01c5.6-3.009,9.883-5.581,12.317-7.092     c-0.018,0-0.024,0.013-0.031,0.037c-13.397,22.349-30.433,41.976-50.672,58.307c-24.646,19.976-52.619,34.135-83.146,42.026     C258.452,484.076,239.881,486.447,221.234,486.447z"/>
        <linearGradient id="XMLID_63_" gradientUnits="userSpaceOnUse" x1="104.7" y1="305.674" x2="221.8438" y2="189.4236">
          <stop offset="0" style="stop-color:#C9C9C9" id="stop134"/>
          <stop offset="1" style="stop-color:#9FA19E" id="stop136"/>
        </linearGradient>
        <path id="XMLID_17_" fill="url(#XMLID_63_)" d="M73.382,329.732c16.5,6.542,34.273,10.513,52.826,11.612     c6.755-39.179,36.725-70.367,75.288-78.858c-0.251-25.245-3.073-49.891-8.192-73.663     C129.972,207.875,82.279,262.71,73.382,329.732z"/>
        <path id="XMLID_16_" fill="#0B0E15" d="M138.744,61.054c25.794,38.087,44.553,81.286,54.56,127.768     c15.626-4.718,32.144-7.291,49.306-7.291c22.235,0,43.411,4.346,62.888,12.085c0.993-7.44,1.686-14.981,1.686-22.698     c0-48.524-20.333-92.235-52.807-123.348c-10.806-1.617-21.862-2.484-33.143-2.484C192.063,45.085,164.232,50.815,138.744,61.054z     "/>
        <linearGradient id="XMLID_64_" gradientUnits="userSpaceOnUse" x1="298.8157" y1="24.8225" x2="407.0212" y2="288.6311">
          <stop offset="0" style="stop-color:#455663" id="stop141"/>
          <stop offset="0.4731" style="stop-color:#111822" id="stop143"/>
          <stop offset="0.9946" style="stop-color:#0B0E15" id="stop145"/>
        </linearGradient>
        <path id="XMLID_58_" fill="url(#XMLID_64_)" d="M307.184,170.918c0,7.717-0.693,15.258-1.686,22.698     c58.245,23.073,100.826,77.072,107.2,141.859c21.019-5.169,28.628-46.721,28.628-46.721l0,0     c0.725-7.365,1.149-14.844,1.149-22.447c0-110.907-81.648-202.743-188.098-218.737     C286.85,78.683,307.184,122.394,307.184,170.918z M316.978,151.991c3.29-4.67,8.177-6.618,12.441-7.466     c33.285-3.445,48.892,23.846,55.947,45.347c1.005,3.221,7.484,26.443-21.293,12.285c-0.019,0-0.038,0-0.038,0l-14.065-6.392     c-11.148-4.732-18.853-9.801-24.04-13.946c-10.357-9.427-11.661-19.989-11.755-21.338     C314.343,156.985,315.467,154.213,316.978,151.991z"/>
        <linearGradient id="XMLID_65_" gradientUnits="userSpaceOnUse" x1="276.5626" y1="264.8095" x2="412.6971" y2="264.8095">
          <stop offset="0" style="stop-color:#C9C9C9" id="stop149"/>
          <stop offset="1" style="stop-color:#9FA19E" id="stop151"/>
        </linearGradient>
        <path id="XMLID_13_" fill="url(#XMLID_65_)" d="M386.945,325.662c10.208,9.238,18.722,11.536,25.752,9.813     c-6.373-64.787-48.955-118.785-107.2-141.859c-3.665,27.53-13.784,53.026-28.935,74.763     C338.845,285.933,386.945,325.662,386.945,325.662z"/>
        <path id="XMLID_12_" fill="#455663" d="M138.744,61.054c25.488-10.238,53.319-15.968,82.49-15.968     c11.28,0,22.337,0.867,33.143,2.484C223.657,18.16,182.13,0,136.265,0c-15.039,0-29.559,2.148-43.437,5.799     C109.84,22.617,125.26,41.121,138.744,61.054z"/>
        <path id="XMLID_11_" fill="#273747" d="M221.221,260.213l0.013-0.049c0.2,0,0.368,0.025,0.561,0.025     c0.244,0,0.519-0.025,0.774-0.025c3.478,0,6.893,0.199,10.263,0.524c15.039,0.975,29.722,3.759,43.73,7.692     c15.151-21.737,25.27-47.233,28.935-74.763c-19.477-7.74-40.653-12.085-62.888-12.085c-17.161,0-33.68,2.572-49.306,7.291     c5.119,23.773,7.941,48.418,8.192,73.663C207.875,261.088,214.467,260.313,221.221,260.213z"/>
        <path id="XMLID_10_" fill="#0B0E15" d="M73.382,329.732c-29.24-11.586-54.423-30.976-73.157-55.635     c2.641,76.848,44.498,143.807,106.238,181.337c-21.713-28.654-34.76-64.224-34.76-102.991     C71.703,344.764,72.396,337.186,73.382,329.732z"/>
        <linearGradient id="XMLID_66_" gradientUnits="userSpaceOnUse" x1="174.4036" y1="429.5924" x2="122.0771" y2="254.4997">
          <stop offset="0" style="stop-color:#8D8E8D" id="stop158"/>
          <stop offset="1" style="stop-color:#5A5B5A" id="stop160"/>
        </linearGradient>
        <path id="XMLID_9_" fill="url(#XMLID_66_)" d="M223.382,457.682c-5.669-0.999-10.782-1.973-15.321-2.922     c-6.293-0.974-12.372-2.497-18.216-4.545c-0.862-0.299-1.324-0.424-1.324-0.424l0.007-0.099     c-10.076-3.733-19.416-9.015-27.619-15.669c-22.079-17.966-36.219-45.346-36.219-75.973c0-5.719,0.612-11.287,1.517-16.706     c-18.553-1.098-36.326-5.07-52.826-11.612c-0.986,7.454-1.679,15.033-1.679,22.711c0,38.767,13.047,74.337,34.76,102.991     c10.237,6.243,21.055,11.586,32.281,16.132c25.488,10.237,53.319,15.956,82.49,15.956c19.147,0,37.749-2.434,55.473-7.004     C255.531,476.047,237.702,467.359,223.382,457.682z"/>
        <linearGradient id="XMLID_67_" gradientUnits="userSpaceOnUse" x1="-70.5091" y1="419.6968" x2="109.2403" y2="174.2182">
          <stop offset="0" style="stop-color:#455663" id="stop164"/>
          <stop offset="1" style="stop-color:#111822" id="stop166"/>
        </linearGradient>
        <path id="XMLID_8_" fill="url(#XMLID_67_)" d="M73.382,329.732c8.897-67.021,56.59-121.857,119.922-140.91     c-10.007-46.482-28.766-89.682-54.56-127.768C57.433,93.74,0,173.29,0,266.307c0,2.646,0.119,5.193,0.225,7.79     C18.959,298.756,44.141,318.146,73.382,329.732z"/>
        <path id="XMLID_7_" opacity="0.9" fill="#455663" d="M232.832,260.688c-3.651-0.275-7.315-0.474-11.037-0.499     c-0.193,0-0.362,0.024-0.575,0.024c-6.754,0.1-13.346,0.874-19.725,2.272c0,1.299,0.099,2.498,0.099,3.822     c0,22.073-2.072,43.647-5.812,64.674c4.875-1.848,9.625-3.821,14.29-6.056c24.659-11.873,46.001-29.39,62.364-51.014     c1.373-1.861,2.802-3.658,4.126-5.531C262.554,264.447,247.871,261.662,232.832,260.688z"/>
        <path id="XMLID_6_" fill="#455663" d="M250.524,425.444c0,0-14.658-43.499-41.213-53.936c0,0-2.753-1.249-6.624-3.82     c-3.571-2.347-8.097-5.794-12.51-10.388c-5.063-5.294-9.901-12.187-12.729-20.676c-1.967-5.844-2.997-12.386-2.441-19.84     c0,0-5.905,8.366-9.545,22.374c-4.138,15.994-5.256,39.454,8.714,66.285c1.767,3.508,3.802,6.979,6.113,10.525     c1.055,1.561,5.007,7.117,11.586,14.383c6.736,7.479,16.325,16.717,28.753,25.457c0.649,0,1.299,0.125,1.942,0.125     c38.48,0,71.704-22.261,87.709-54.572C287.157,403.995,261.867,410.413,250.524,425.444z"/>
        <linearGradient id="XMLID_68_" gradientUnits="userSpaceOnUse" x1="332.9087" y1="156.9836" x2="386.9114" y2="207.632">
          <stop offset="0" style="stop-color:#C9C9C9" id="stop172"/>
          <stop offset="1" style="stop-color:#9FA19E" id="stop174"/>
        </linearGradient>
        <path id="XMLID_5_" fill="url(#XMLID_68_)" d="M349.97,195.764l14.065,6.392c0,0,0.019,0,0.038,0     c28.778,14.158,22.299-9.064,21.293-12.285c-7.055-21.501-22.662-48.792-55.947-45.347c-4.264,0.849-9.152,2.796-12.441,7.466     c-1.511,2.222-2.635,4.994-2.803,8.489c0.095,1.349,1.398,11.911,11.755,21.338C331.117,185.963,338.822,191.032,349.97,195.764z     "/>
        <linearGradient id="XMLID_69_" gradientUnits="userSpaceOnUse" x1="228.4898" y1="482.7754" x2="368.6608" y2="402.2946">
          <stop offset="0" style="stop-color:#455663" id="stop178"/>
          <stop offset="0.4731" style="stop-color:#111822" id="stop180"/>
          <stop offset="0.9946" style="stop-color:#0B0E15" id="stop182"/>
        </linearGradient>
        <path id="XMLID_4_" fill="url(#XMLID_69_)" d="M411.579,376.963c-2.579,1.661-7.622,4.783-13.872,8.179     c-0.705,0.175-1.997,0.836-3.952,2.086c-3.464,1.784-7.147,3.571-11.036,5.306c-15.277,5.493-34.841,6.83-44.379,7.167     c-1.574,0-3.203,0.05-4.876,0.074c-0.518,0-0.83,0-0.83,0l0.031,0.075c-6.785,0.15-14.401,0.6-22.386,1.512     c-16.006,32.311-49.229,54.572-87.709,54.572c-0.643,0-1.292-0.125-1.942-0.125c0.893,0.65,1.848,1.249,2.754,1.873     c14.32,9.677,32.149,18.365,53.324,22.836c31.019-8.016,59.393-22.624,83.558-42.239c20.221-16.317,37.487-36.158,50.915-58.544     c0.775-1.311,1.518-2.634,2.217-3.982C413.265,375.902,412.634,376.302,411.579,376.963z"/>
        <path id="XMLID_3_" fill="#FFFFFF" d="M429.321,304.237c0,4.394-3.558,7.965-7.928,7.965c-4.414,0-7.997-3.571-7.997-7.965     c0-4.395,3.583-7.941,7.997-7.941C425.763,296.296,429.321,299.842,429.321,304.237z"/>
        <path id="XMLID_2_" fill="#FFFFFF" d="M412.697,226.553c0,10.188-8.285,18.504-18.541,18.504     c-10.219,0-18.515-8.316-18.515-18.504c0-10.238,8.296-18.528,18.515-18.528C404.412,208.025,412.697,216.315,412.697,226.553z"/>
        <linearGradient id="XMLID_70_" gradientUnits="userSpaceOnUse" x1="-10.332" y1="123.9126" x2="81.3211" y2="182.0319">
          <stop offset="0" style="stop-color:#FFFFFF;stop-opacity:0.4" id="stop188"/>
          <stop offset="1" style="stop-color:#FFFFFF;stop-opacity:0" id="stop190"/>
        </linearGradient>
        <path id="XMLID_1_" fill="url(#XMLID_70_)" d="M137.445,77.672c0,0-122.237,56.54-123.125,196.425l39.017,30.14     c0,0,26.762-98.959,120.838-128.774C174.176,175.463,155.929,110.789,137.445,77.672z"/>
      </g>
    </g>
  </switch>
</svg>
