<svg id="Capa_1" enable-background="new 0 0 501 501" height="512" viewBox="0 0 501 501" width="512" xmlns="http://www.w3.org/2000/svg"><g><path d="m0 250.5c0-135.31 109.69-245 245-245s245 109.69 245 245c0 112.443-75.748 207.193-179 236.007-2.603.726-129.398.726-132.001 0-103.251-28.814-178.999-123.564-178.999-236.007z" fill="#453d83"/><path d="m311 214.5v272.007c-20.998 5.86-43.133 8.993-66 8.993s-45.002-3.133-66-8.993v-272.007c0-11.046 8.954-20 20-20h92c11.046 0 20 8.954 20 20z" fill="#86befb"/><path d="m331 430.5h-172c-11.046 0-20-8.954-20-20v-290c0-11.046 8.954-20 20-20h172c11.046 0 20 8.954 20 20v290c0 11.046-8.954 20-20 20z" fill="#55a4f9"/><path d="m441 404.5h-392c-16.569 0-30-13.431-30-30v-310c0-16.569 13.431-30 30-30h392c16.569 0 30 13.431 30 30v310c0 16.569-13.431 30-30 30z" fill="#76b6fa"/><path d="m441 404.5h-347c-16.569 0-30-13.431-30-30v-310c0-16.569 13.431-30 30-30h347c16.569 0 30 13.431 30 30v310c0 16.569-13.431 30-30 30z" fill="#86befb"/><path d="m426 334.5h-362c-8.284 0-15-6.716-15-15v-240c0-8.284 6.716-15 15-15h362c8.284 0 15 6.716 15 15v240c0 8.284-6.716 15-15 15z" fill="#51489a"/><path d="m72.397 97.806c0-5.523 4.477-10 10-10h90c5.523 0 10 4.477 10 10s-4.477 10-10 10h-90c-5.523 0-10-4.477-10-10zm10 190c-5.523 0-10 4.477-10 10s4.477 10 10 10 10-4.477 10-10-4.477-10-10-10zm35 0c-5.523 0-10 4.477-10 10s4.477 10 10 10 10-4.477 10-10-4.477-10-10-10zm35 0c-5.523 0-10 4.477-10 10s4.477 10 10 10 10-4.477 10-10-4.477-10-10-10zm-20-110c0 5.523 4.477 10 10 10h90c5.523 0 10-4.477 10-10s-4.477-10-10-10h-90c-5.523 0-10 4.477-10 10zm10 30c-5.523 0-10 4.477-10 10s4.477 10 10 10h40c5.523 0 10-4.477 10-10s-4.477-10-10-10zm90 40h-90c-5.523 0-10 4.477-10 10s4.477 10 10 10h90c5.523 0 10-4.477 10-10s-4.477-10-10-10z" fill="#8078bf"/><path d="m132.397 137.806c0 5.523-4.477 10-10 10h-40c-5.523 0-10-4.477-10-10s4.477-10 10-10h40c5.523 0 10 4.477 10 10z" fill="#c1bde0"/><path d="m72.397 177.806c0-5.523 4.477-10 10-10h20c5.523 0 10 4.477 10 10s-4.477 10-10 10h-20c-5.523 0-10-4.477-10-10zm30 30h-20c-5.523 0-10 4.477-10 10s4.477 10 10 10h20c5.523 0 10-4.477 10-10s-4.477-10-10-10zm0 40h-20c-5.523 0-10 4.477-10 10s4.477 10 10 10h20c5.523 0 10-4.477 10-10s-4.477-10-10-10z" fill="#aba6d5"/><path d="m481 374.5h-312c-11.046 0-20-8.954-20-20v-180c0-11.046 8.954-20 20-20h312c11.046 0 20 8.954 20 20v180c0 11.046-8.954 20-20 20z" fill="#f5e8b4"/><path d="m481 374.5h-283c-11.046 0-20-8.954-20-20v-180c0-11.046 8.954-20 20-20h283c11.046 0 20 8.954 20 20v180c0 11.046-8.954 20-20 20z" fill="#f9f1d2"/><path d="m501 174.5h-352v-20c0-11.046 8.954-20 20-20h312c11.046 0 20 8.954 20 20z" fill="#ffad8c"/><path d="m501 174.5h-323v-20c0-11.046 8.954-20 20-20h283c11.046 0 20 8.954 20 20z" fill="#ffc5ae"/><path d="m182.044 154.5h-33.044v-40c0-11.046 8.954-20 20-20h33.044c11.046 0 20 8.954 20 20 0 22.091-17.909 40-40 40z" fill="#ea552d"/><path d="m500 154.5h-322v-40c0-11.046 8.954-20 20-20h282c11.046 0 20 8.954 20 20z" fill="#ff7c48"/><path d="m268 124.5c0 5.523-4.477 10-10 10s-10-4.477-10-10 4.477-10 10-10 10 4.477 10 10zm-90-10c-5.523 0-10 4.477-10 10s4.477 10 10 10 10-4.477 10-10-4.477-10-10-10zm40 0c-5.523 0-10 4.477-10 10s4.477 10 10 10 10-4.477 10-10-4.477-10-10-10z" fill="#d1462a"/><path d="m396.857 214.5v18.571c0 5.523-4.477 10-10 10h-5.714c-5.523 0-10-4.477-10-10v-18.571c0-5.523 4.477-10 10-10h5.714c5.523 0 10 4.477 10 10zm-10 101.428h-5.714c-5.523 0-10 4.477-10 10v18.572c0 5.523 4.477 10 10 10h5.714c5.523 0 10-4.477 10-10v-18.572c0-5.522-4.477-10-10-10zm-39.286-33.571v-5.714c0-5.523-4.477-10-10-10h-18.571c-5.523 0-10 4.477-10 10v5.714c0 5.523 4.477 10 10 10h18.571c5.523 0 10-4.477 10-10zm101.429-15.714h-18.571c-5.523 0-10 4.477-10 10v5.714c0 5.523 4.477 10 10 10h18.571c5.523 0 10-4.477 10-10v-5.714c0-5.523-4.477-10-10-10zm-101.871-42.196c-3.905-3.905-10.237-3.905-14.142 0l-4.041 4.041c-3.905 3.905-3.905 10.237 0 14.142l13.132 13.132c3.905 3.905 10.237 3.905 14.142 0l4.041-4.041c3.905-3.905 3.905-10.237 0-14.142zm78.792 78.792c-3.905-3.905-10.237-3.905-14.142 0l-4.041 4.041c-3.905 3.905-3.905 10.237 0 14.142l13.132 13.132c3.905 3.905 10.237 3.905 14.142 0l4.041-4.041c3.905-3.905 3.905-10.237 0-14.142zm-69.7 0c-3.905-3.905-10.237-3.905-14.142 0l-13.132 13.132c-3.905 3.905-3.905 10.237 0 14.142l4.041 4.041c3.905 3.905 10.237 3.905 14.142 0l13.132-13.132c3.905-3.905 3.905-10.237 0-14.142zm55.558-47.478c3.905 3.905 10.237 3.905 14.142 0l13.132-13.132c3.905-3.905 3.905-10.237 0-14.142l-4.041-4.041c-3.905-3.905-10.237-3.905-14.142 0l-13.132 13.132c-3.905 3.905-3.905 10.237 0 14.142z" fill="#ff7c48"/><path d="m384 216.597c-34.74 0-62.903 28.163-62.903 62.903s28.163 62.903 62.903 62.903 62.903-28.163 62.903-62.903-28.163-62.903-62.903-62.903zm0 101.153c-21.125 0-38.25-17.125-38.25-38.25s17.125-38.25 38.25-38.25 38.25 17.125 38.25 38.25-17.125 38.25-38.25 38.25z" fill="#d1462a"/><path d="m384 231.113c-26.723 0-48.387 21.664-48.387 48.387s21.664 48.387 48.387 48.387 48.387-21.664 48.387-48.387-21.664-48.387-48.387-48.387zm0 76.021c-15.262 0-27.634-12.372-27.634-27.634s12.372-27.634 27.634-27.634 27.634 12.372 27.634 27.634-12.372 27.634-27.634 27.634z" fill="#f76937"/><path d="m345.643 265.522h-.22c-3.935 0-6.474-4.146-4.711-7.664 7.996-15.963 24.562-26.889 43.665-26.743 25.688.195 46.959 20.757 47.972 46.426.228 5.767-.555 11.322-2.184 16.5-.697 2.215-2.728 3.739-5.05 3.739h-.21c-3.596 0-6.094-3.503-5.01-6.931 1.221-3.867 1.835-8.004 1.729-12.299-.501-20.338-17.404-36.75-37.749-36.684-14.636.048-27.305 8.451-33.487 20.689-.911 1.802-2.727 2.967-4.745 2.967z" fill="#ff956a"/><path d="m271.719 201.702v11.078c0 3.278-2.657 5.935-5.935 5.935h-3.429c-3.278 0-5.935-2.657-5.935-5.935v-11.078c0-3.278 2.657-5.935 5.935-5.935h3.429c3.278 0 5.935 2.658 5.935 5.935zm-5.935 60.358h-3.429c-3.278 0-5.935 2.657-5.935 5.935v11.078c0 3.278 2.657 5.935 5.935 5.935h3.429c3.278 0 5.935-2.657 5.935-5.935v-11.078c0-3.278-2.657-5.935-5.935-5.935zm-23.387-19.958v-3.428c0-3.278-2.657-5.935-5.935-5.935h-11.078c-3.278 0-5.935 2.657-5.935 5.935v3.428c0 3.278 2.657 5.935 5.935 5.935h11.078c3.278 0 5.935-2.658 5.935-5.935zm60.358-9.364h-11.078c-3.278 0-5.935 2.657-5.935 5.935v3.428c0 3.278 2.657 5.935 5.935 5.935h11.078c3.278 0 5.935-2.657 5.935-5.935v-3.428c0-3.278-2.657-5.935-5.935-5.935zm-63.615-6.463c2.318 2.318 6.075 2.318 8.393 0l2.424-2.424c2.318-2.318 2.318-6.075 0-8.393l-7.833-7.833c-2.318-2.318-6.075-2.318-8.393 0l-2.424 2.424c-2.318 2.318-2.318 6.076 0 8.393zm49.86 28.225c-2.318-2.318-6.075-2.318-8.393 0l-2.424 2.424c-2.318 2.318-2.318 6.075 0 8.393l7.833 7.833c2.318 2.318 6.075 2.318 8.393 0l2.424-2.424c2.318-2.318 2.318-6.075 0-8.393zm-41.467 0c-2.318-2.318-6.075-2.318-8.393 0l-7.833 7.833c-2.318 2.318-2.318 6.076 0 8.393l2.424 2.424c2.318 2.318 6.075 2.318 8.393 0l7.833-7.833c2.318-2.318 2.318-6.075 0-8.393zm33.074-28.225c2.318 2.318 6.075 2.318 8.393 0l7.833-7.833c2.318-2.318 2.318-6.075 0-8.393l-2.424-2.424c-2.318-2.318-6.075-2.318-8.393 0l-7.833 7.833c-2.318 2.318-2.318 6.075 0 8.393z" fill="#e9cc5a"/><path d="m264.07 206.596c-18.663 0-33.792 15.129-33.792 33.792s15.129 33.792 33.792 33.792 33.791-15.129 33.791-33.792-15.129-33.792-33.791-33.792zm0 50.232c-9.08 0-16.441-7.361-16.441-16.441s7.361-16.44 16.441-16.44 16.441 7.361 16.441 16.44-7.361 16.441-16.441 16.441z" fill="#e1b91e"/></g></svg>