<?xml version="1.0" encoding="UTF-8" standalone="no"?>
<svg
   xmlns:dc="http://purl.org/dc/elements/1.1/"
   xmlns:cc="http://creativecommons.org/ns#"
   xmlns:rdf="http://www.w3.org/1999/02/22-rdf-syntax-ns#"
   xmlns:svg="http://www.w3.org/2000/svg"
   xmlns="http://www.w3.org/2000/svg"
   xmlns:sodipodi="http://sodipodi.sourceforge.net/DTD/sodipodi-0.dtd"
   xmlns:inkscape="http://www.inkscape.org/namespaces/inkscape"
   version="1.0"
   width="1946.1556pt"
   height="1140.6pt"
   viewBox="0 0 1946.1556 1140.6"
   preserveAspectRatio="xMidYMid meet"
   id="svg8"
   sodipodi:docname="orca-whale-blue.svg"
   inkscape:version="0.92.3 (2405546, 2018-03-11)">
  <defs
     id="defs12" />
  <sodipodi:namedview
     pagecolor="#ffffff"
     bordercolor="#666666"
     borderopacity="1"
     objecttolerance="10"
     gridtolerance="10"
     guidetolerance="10"
     inkscape:pageopacity="0"
     inkscape:pageshadow="2"
     inkscape:window-width="1920"
     inkscape:window-height="1172"
     id="namedview10"
     showgrid="false"
     inkscape:zoom="0.2503158"
     inkscape:cx="542.60473"
     inkscape:cy="749.40006"
     inkscape:window-x="1918"
     inkscape:window-y="26"
     inkscape:window-maximized="0"
     inkscape:current-layer="g6" />
  <metadata
     id="metadata2">
Created by potrace 1.10, written by Peter Selinger 2001-2011
<rdf:RDF>
  <cc:Work
     rdf:about="">
    <dc:format>image/svg+xml</dc:format>
    <dc:type
       rdf:resource="http://purl.org/dc/dcmitype/StillImage" />
    <dc:title></dc:title>
  </cc:Work>
</rdf:RDF>
</metadata>
  <g
     transform="matrix(0.1,0,0,-0.1,0.05682419,1578.55)"
     id="g6"
     style="fill:#ffffff;fill-opacity:1;stroke:#000000;stroke-opacity:1">
    <path
       d="m 11021,15715 c -51,-52 -70,-80 -75,-108 -4,-21 -11,-35 -15,-33 -11,7 -68,-164 -86,-257 -8,-43 -15,-132 -15,-198 v -119 l -75,-195 c -41,-107 -77,-207 -79,-222 -7,-38 -138,-417 -147,-423 -9,-7 -56,-170 -57,-195 0,-11 -11,-69 -25,-130 -14,-60 -28,-127 -32,-148 -6,-36 -14,-44 -109,-105 -165,-108 -231,-136 -428,-183 -97,-23 -175,-45 -173,-49 5,-8 -155,-53 -196,-56 -31,-2 -132,-34 -139,-44 -7,-9 -197,-72 -230,-76 -34,-4 -242,-78 -305,-109 -73,-36 -492,-205 -545,-220 -121,-34 -869,-410 -1256,-630 -90,-51 -164,-92 -164,-89 0,5 -133,-76 -140,-85 -3,-4 -72,-49 -155,-101 -198,-124 -377,-244 -559,-374 -81,-58 -151,-106 -154,-106 -7,0 -114,-79 -127,-94 -16,-18 -142,-116 -150,-116 -8,0 -201,-155 -235,-190 -14,-13 -74,-67 -135,-119 -332,-284 -600,-536 -805,-756 -86,-93 -207,-222 -269,-285 -61,-63 -111,-119 -111,-125 0,-5 -35,-46 -77,-90 -42,-44 -83,-91 -92,-105 -9,-14 -59,-79 -112,-145 -172,-215 -287,-370 -383,-516 -52,-79 -101,-151 -108,-160 -33,-36 -206,-339 -238,-416 -13,-29 -26,-53 -29,-53 -4,0 -20,-28 -35,-62 -28,-63 -38,-83 -96,-192 -18,-32 -33,-68 -36,-80 -6,-32 -26,-76 -34,-76 -9,0 -60,-115 -67,-150 -2,-14 -17,-48 -33,-76 -34,-61 -81,-171 -85,-199 -1,-11 -24,-74 -50,-140 -26,-66 -73,-194 -106,-285 -32,-91 -65,-176 -73,-190 -16,-30 -47,-122 -50,-153 -2,-12 -16,-65 -32,-118 l -29,-97 -62,-6 c -92,-10 -460,-71 -604,-101 -220,-47 -550,-133 -749,-196 -74,-24 -253,-98 -260,-108 -3,-4 -41,-27 -85,-51 C 361,5932 258,5855 150,5743 -8,5580 0,5594 0,5495 c 0,-50 4,-85 10,-85 6,0 10,-6 10,-13 0,-8 9,-22 20,-32 11,-10 17,-21 15,-25 -3,-4 13,-24 36,-45 l 40,-36 97,4 c 53,2 143,14 199,26 98,22 106,22 177,8 133,-27 189,-62 323,-198 65,-67 151,-144 191,-171 62,-42 73,-54 69,-71 -3,-12 -13,-47 -21,-77 -22,-76 -22,-277 0,-308 8,-12 19,-20 23,-18 4,3 25,-13 46,-34 l 39,-40 h 103 c 91,0 111,3 180,31 278,109 595,309 802,504 81,77 235,206 404,338 41,32 92,75 113,95 41,38 667,559 905,752 77,63 160,132 182,154 23,21 168,145 322,274 154,130 391,331 526,447 248,213 339,286 484,386 109,76 290,188 328,204 18,7 120,59 227,115 188,99 415,200 449,200 23,0 252,76 246,82 -6,6 153,49 285,77 136,30 717,121 765,121 60,-1 626,73 615,80 -25,16 1119,120 1157,106 22,-9 477,15 481,26 2,4 47,8 100,8 119,0 798,-28 867,-35 140,-15 1128,-73 1175,-69 30,2 201,-3 378,-13 l 324,-18 -63,-70 c -99,-112 -186,-233 -232,-325 -23,-47 -46,-88 -50,-91 -4,-3 -14,-27 -22,-52 -18,-59 -10,-307 11,-385 12,-43 29,-68 92,-134 l 77,-81 250,6 c 266,6 493,28 745,73 80,14 166,27 192,29 54,4 317,72 333,85 7,5 64,28 128,50 212,73 422,168 574,261 38,23 71,43 74,45 3,2 23,-21 43,-50 21,-30 80,-95 132,-146 73,-70 112,-99 172,-128 l 77,-37 h 225 c 256,0 284,5 475,93 109,49 162,83 305,197 52,41 105,82 118,91 21,16 38,15 265,-9 133,-14 265,-30 292,-37 28,-6 120,-13 205,-15 85,-2 243,-11 350,-20 107,-8 314,-18 460,-21 154,-3 281,-10 303,-16 51,-15 292,3 432,32 110,22 255,67 255,79 0,4 17,15 38,24 21,9 64,37 96,62 32,25 63,45 70,45 70,1 309,205 333,285 6,20 7,35 2,35 -5,0 -9,32 -9,70 0,46 4,70 11,70 23,0 1,106 -32,155 -28,41 -60,117 -92,213 -6,17 -14,32 -18,32 -14,0 -39,138 -49,272 -5,73 -19,171 -31,218 -11,47 -22,99 -24,115 -3,34 -101,269 -119,288 -6,7 -34,50 -60,97 -147,256 -315,467 -582,731 -297,291 -559,508 -979,804 -77,55 -147,106 -155,114 -33,33 -553,367 -650,418 -79,42 -489,281 -525,307 -16,11 -93,53 -170,92 -317,160 -601,306 -611,314 -20,15 -136,72 -155,75 -9,2 -107,44 -216,93 -228,104 -443,195 -688,292 -95,37 -183,75 -196,83 -13,8 -60,27 -104,42 -44,15 -89,31 -100,36 -66,29 -221,79 -232,75 -7,-3 -18,1 -25,8 -16,15 -103,46 -148,51 -17,2 -79,20 -138,39 -59,19 -178,55 -264,80 -183,54 -210,65 -301,118 -110,64 -179,128 -251,235 -36,54 -66,104 -66,111 0,7 -11,34 -24,60 -13,26 -31,83 -41,127 -9,44 -21,85 -26,91 -5,6 -27,78 -50,160 -22,82 -68,230 -101,329 -33,99 -62,191 -64,205 -3,27 -51,142 -63,150 -3,3 -24,44 -45,93 -53,119 -146,285 -214,382 -32,44 -116,139 -188,211 -111,112 -142,137 -209,170 l -79,39 h -139 -138 z m 493,-300 c 73,-72 159,-188 225,-304 72,-125 163,-321 157,-337 -3,-7 -19,-20 -37,-29 -52,-27 -229,-145 -314,-209 -99,-75 -268,-238 -345,-331 -87,-106 -210,-306 -210,-341 0,-8 -5,-14 -12,-14 -8,0 -9,44 -4,168 24,601 155,1052 414,1425 39,56 41,55 126,-28 z m 509,-962 c 68,-204 105,-331 153,-528 20,-82 50,-177 66,-209 25,-49 28,-63 19,-83 -6,-13 -11,-34 -11,-46 -1,-42 -23,-57 -81,-57 -197,0 -420,-56 -624,-155 -171,-83 -311,-175 -468,-308 -55,-47 -59,-49 -102,-43 -56,9 -56,9 -9,261 104,547 347,911 812,1217 70,46 138,91 152,100 14,9 28,17 31,17 3,1 31,-74 62,-166 z m -1266,-630 c 11,-8 50,-13 104,-13 61,0 89,4 92,13 2,6 8,8 13,4 5,-4 4,-11 -1,-15 -12,-8 -47,-104 -82,-222 -35,-120 -39,-124 -53,-54 -15,71 -59,197 -105,303 l -34,77 22,69 22,70 3,-110 c 2,-89 6,-112 19,-122 z m -94,-263 c 49,-154 77,-276 92,-410 4,-30 9,-63 11,-72 5,-18 -2,-18 -82,-3 -12,3 -52,31 -90,62 -64,54 -163,123 -242,170 l -32,19 76,48 c 41,27 106,73 144,103 69,55 69,56 76,115 4,32 10,56 15,51 4,-4 19,-42 32,-83 z m 1741,-96 c 4,-10 1,-14 -6,-12 -15,5 -23,28 -10,28 5,0 13,-7 16,-16 z m -219,-116 c -4,-24 -11,-51 -16,-60 -5,-9 -9,-28 -9,-42 0,-14 -4,-27 -9,-30 -5,-3 -11,-20 -14,-38 -3,-18 -10,-51 -17,-73 -7,-22 -14,-55 -17,-73 -3,-18 -9,-35 -14,-38 -5,-3 -9,-18 -9,-34 0,-16 -4,-31 -9,-34 -5,-3 -11,-20 -14,-38 -6,-43 -47,-207 -57,-233 -5,-11 -11,-31 -14,-45 -2,-14 -10,-43 -16,-65 -7,-22 -14,-55 -17,-73 -3,-18 -9,-35 -14,-38 -5,-3 -9,-18 -9,-34 0,-16 -4,-31 -9,-34 -5,-3 -11,-20 -14,-38 -2,-18 -17,-78 -32,-133 -14,-55 -30,-116 -35,-135 -5,-19 -14,-53 -20,-75 -7,-22 -14,-55 -17,-73 -3,-18 -9,-35 -14,-38 -5,-3 -9,-15 -9,-28 0,-12 -6,-34 -12,-48 l -13,-26 -45,23 c -58,30 -116,88 -131,133 -16,48 -6,105 35,194 154,333 39,623 -316,793 -40,19 -78,35 -85,35 -26,0 -10,17 80,83 150,110 285,189 437,255 126,54 268,87 443,101 17,1 18,-4 12,-41 z m 213,-75 c 203,-116 387,-294 504,-488 31,-51 98,-187 129,-260 23,-55 59,-180 75,-259 l 17,-89 -64,-56 c -279,-242 -516,-530 -674,-816 -45,-83 -224,-439 -255,-510 -12,-27 -30,-68 -40,-90 -40,-89 -100,-246 -129,-340 -27,-86 -31,-114 -31,-209 0,-99 2,-112 22,-133 19,-20 31,-23 95,-23 66,0 79,3 116,29 205,143 650,763 886,1231 138,276 200,467 238,740 l 8,55 90,23 c 106,26 259,56 370,71 162,23 454,10 580,-25 154,-42 325,-114 332,-139 2,-6 -744,-757 -1657,-1670 l -1659,-1659 -23,21 c -26,24 -119,75 -168,91 -28,10 -32,15 -27,39 14,69 19,89 27,108 5,11 11,31 14,45 2,14 10,43 16,65 6,22 14,51 16,65 3,14 9,34 14,45 5,11 11,31 14,45 2,14 10,43 16,65 13,47 39,150 46,185 3,14 9,34 14,45 5,11 11,31 14,45 2,14 10,43 16,65 6,22 14,51 16,65 3,14 9,34 14,45 5,11 11,31 14,45 2,14 10,43 16,65 13,47 39,150 46,185 3,14 9,34 14,45 5,11 11,31 14,45 2,14 10,43 16,65 7,22 14,55 17,73 3,18 9,35 14,38 5,3 9,18 9,34 0,16 4,31 9,34 5,3 11,20 14,38 7,51 62,265 78,306 5,13 9,34 9,47 0,13 5,27 10,30 6,3 10,19 10,35 0,16 5,32 10,35 6,3 10,19 10,35 0,16 4,31 9,34 5,3 11,20 14,38 4,30 64,262 89,348 5,19 12,50 15,68 3,18 9,35 14,38 5,3 9,18 9,34 0,16 5,32 10,35 6,3 10,16 10,27 0,20 12,64 31,114 7,20 17,22 126,28 147,9 367,33 453,50 l 65,14 -130,1 c -138,2 -283,13 -403,32 l -74,12 5,31 c 3,17 10,49 17,71 6,22 14,51 16,65 3,14 9,34 14,45 5,11 11,31 14,45 2,14 9,41 15,60 5,19 26,98 46,175 20,77 41,156 47,175 5,19 12,50 15,68 3,18 9,35 14,38 5,3 9,16 9,29 0,13 4,34 9,47 13,36 41,134 72,258 11,47 25,101 31,120 5,19 12,50 15,68 3,18 9,35 14,38 5,3 9,16 9,29 0,13 4,34 9,47 5,13 14,43 21,68 16,58 31,100 37,100 2,0 25,-12 51,-27 z m -2155,-89 c 45,-25 93,-54 107,-64 l 25,-20 h -75 c -108,0 -299,-25 -495,-65 -93,-19 -180,-37 -191,-41 -18,-5 -22,-1 -26,23 -3,15 -8,35 -12,44 -5,12 18,22 126,54 149,43 426,114 446,115 8,0 50,-20 95,-46 z m 2777,-89 c 299,-89 440,-137 440,-149 0,-33 -69,-264 -110,-366 -36,-91 -93,-210 -100,-210 -9,0 -30,47 -30,68 0,29 -68,210 -114,306 -57,117 -147,255 -219,332 -60,65 -68,79 -39,70 9,-3 87,-26 172,-51 z m -3580,-94 c 7,-17 10,-35 8,-42 -2,-6 -55,-27 -118,-46 -63,-19 -195,-64 -295,-100 -99,-35 -188,-67 -198,-70 -17,-5 -16,-1 5,41 21,42 29,48 103,77 80,32 465,168 476,168 4,1 12,-12 19,-28 z m 1074,-117 c 67,-8 130,-19 141,-25 11,-5 67,-18 125,-29 58,-11 129,-27 159,-35 30,-8 58,-12 62,-9 10,6 141,-42 214,-79 124,-62 169,-100 211,-179 51,-98 53,-160 5,-268 -58,-131 -60,-140 -61,-252 0,-73 -4,-108 -11,-108 -20,0 -223,71 -229,79 -6,10 -124,61 -152,66 -26,5 -194,103 -232,134 -41,35 -106,84 -127,96 -10,6 -85,75 -166,155 -113,110 -170,157 -235,196 -110,65 -274,120 -425,142 l -117,18 95,21 c 216,50 465,89 573,92 28,0 104,-6 170,-15 z m 3154,3 32,-12 -55,-55 c -30,-29 -58,-51 -61,-47 -4,4 -2,24 4,46 7,21 12,48 12,60 0,24 17,26 68,8 z m 442,-164 c 300,-116 888,-367 909,-389 3,-2 -46,-55 -107,-117 l -113,-113 -102,51 c -127,63 -178,81 -357,122 -98,23 -580,26 -705,5 -121,-21 -227,-42 -237,-48 -12,-7 -32,7 -21,15 5,3 28,33 50,66 106,157 221,289 367,423 62,56 85,71 100,66 12,-3 109,-40 216,-81 z m -5491,-31 c -20,-48 -22,-50 -128,-95 -58,-26 -109,-47 -113,-47 -11,0 -31,61 -22,70 9,9 263,119 276,120 4,0 -2,-22 -13,-48 z m 928,-114 c 11,-13 20,-48 30,-106 3,-18 9,-35 14,-38 5,-3 9,-18 9,-34 0,-16 5,-32 10,-35 6,-3 10,-19 10,-35 0,-16 4,-31 9,-34 5,-3 11,-20 14,-38 9,-57 61,-264 78,-306 5,-13 9,-34 9,-47 0,-13 5,-27 10,-30 6,-3 10,-19 10,-35 0,-16 4,-31 9,-34 5,-3 11,-20 14,-38 3,-18 10,-49 15,-68 6,-19 20,-73 31,-120 27,-109 41,-159 52,-188 5,-13 9,-34 9,-47 0,-13 5,-27 10,-30 6,-3 10,-19 10,-35 0,-16 5,-32 10,-35 6,-3 10,-17 10,-30 0,-13 4,-34 9,-47 21,-56 90,-318 98,-376 3,-18 9,-35 14,-38 5,-3 9,-18 9,-34 0,-16 5,-32 10,-35 6,-3 10,-19 10,-35 0,-16 4,-31 9,-34 5,-3 11,-20 14,-38 9,-54 18,-92 27,-113 5,-11 11,-31 14,-45 7,-35 33,-138 46,-185 6,-22 14,-51 16,-65 3,-14 9,-34 14,-45 5,-11 11,-31 14,-45 2,-14 10,-43 16,-65 6,-22 14,-51 16,-65 3,-14 9,-34 14,-45 5,-11 11,-31 14,-45 12,-60 34,-147 42,-165 4,-10 -42,26 -102,81 -140,126 -301,256 -381,307 -62,39 -63,40 -63,86 0,144 -126,475 -343,901 -212,417 -357,635 -587,884 -44,48 -200,181 -235,201 -17,10 -16,15 9,100 28,92 73,226 79,231 6,7 235,53 337,69 219,33 489,45 507,23 z m 376,-65 c 165,-55 260,-116 400,-258 66,-66 146,-143 179,-171 l 61,-50 -2,-312 c -1,-172 2,-374 8,-450 31,-390 54,-562 99,-752 15,-60 52,-134 84,-167 29,-30 37,-33 93,-33 56,0 64,3 92,33 62,65 93,159 132,397 30,189 48,393 62,710 6,146 13,266 14,268 1,1 50,-11 108,-27 100,-28 282,-62 410,-76 53,-6 57,-8 52,-28 -11,-40 -27,-102 -37,-142 -5,-22 -14,-50 -19,-63 -5,-13 -9,-34 -9,-47 0,-13 -4,-27 -10,-30 -5,-3 -10,-19 -10,-35 0,-16 -4,-31 -9,-34 -5,-3 -11,-20 -14,-38 -3,-18 -17,-78 -32,-133 -15,-55 -31,-116 -35,-135 -5,-19 -14,-53 -20,-75 -7,-22 -14,-55 -17,-73 -3,-18 -9,-35 -14,-38 -5,-3 -9,-18 -9,-34 0,-16 -4,-32 -10,-35 -5,-3 -10,-19 -10,-35 0,-16 -4,-31 -9,-34 -5,-3 -11,-20 -14,-38 -5,-34 -50,-214 -69,-278 -5,-19 -12,-50 -15,-68 -3,-18 -9,-35 -14,-38 -5,-3 -9,-18 -9,-34 0,-16 -4,-31 -9,-34 -5,-3 -11,-20 -14,-38 -3,-18 -10,-49 -15,-68 -25,-83 -85,-318 -89,-348 -3,-18 -9,-35 -14,-38 -5,-3 -9,-18 -9,-34 0,-16 -4,-31 -9,-34 -5,-3 -11,-20 -14,-38 -3,-18 -10,-49 -15,-68 -25,-86 -85,-318 -89,-348 -3,-18 -9,-35 -14,-38 -5,-3 -9,-18 -9,-34 0,-16 -4,-32 -10,-35 -5,-3 -10,-17 -10,-30 0,-13 -4,-34 -9,-47 -5,-13 -15,-44 -22,-70 l -13,-48 h -73 -73 v 38 c 0,129 -126,411 -250,557 -15,18 -22,39 -50,143 -5,20 -20,73 -31,117 -12,44 -24,95 -26,113 -3,18 -9,35 -14,38 -5,3 -9,18 -9,34 0,16 -4,31 -9,34 -5,3 -11,20 -14,38 -3,18 -10,51 -17,73 -6,22 -14,51 -16,65 -3,14 -9,34 -14,45 -5,11 -11,31 -14,45 -3,14 -12,54 -21,90 -9,36 -19,80 -22,98 -3,18 -9,35 -14,38 -5,3 -9,18 -9,34 0,16 -4,31 -9,34 -5,3 -11,20 -14,38 -3,18 -10,51 -17,73 -6,22 -14,51 -16,65 -3,14 -9,34 -14,45 -5,11 -11,31 -14,45 -3,14 -12,54 -21,90 -9,36 -19,80 -22,98 -3,18 -9,35 -14,38 -5,3 -9,18 -9,34 0,16 -4,31 -9,34 -5,3 -11,20 -14,38 -3,18 -10,51 -17,73 -6,22 -14,51 -16,65 -3,14 -9,34 -14,45 -5,11 -11,31 -14,45 -3,14 -12,54 -21,90 -9,36 -19,80 -22,98 -3,18 -9,35 -14,38 -5,3 -9,18 -9,34 0,16 -4,31 -9,34 -5,3 -11,20 -14,38 -3,18 -10,51 -17,73 -6,22 -14,51 -16,65 -3,14 -9,34 -14,45 -5,11 -11,31 -13,45 -3,14 -17,70 -32,125 -15,55 -29,111 -32,125 -2,14 -8,34 -13,45 -5,11 -11,31 -14,45 -2,14 -10,43 -16,65 -7,22 -14,55 -17,73 -3,18 -9,35 -14,38 -5,3 -9,16 -9,29 0,13 -4,34 -9,47 -8,20 -14,42 -36,124 -5,21 -4,21 47,12 29,-5 102,-25 161,-45 z m -1768,-25 27,-32 -124,-61 -123,-61 -95,6 -94,5 184,87 c 102,48 188,87 192,88 3,0 18,-14 33,-32 z m 350,-95 c -8,-27 -15,-51 -15,-55 0,-20 -18,-5 -33,27 -23,49 -22,52 21,63 20,5 38,10 39,11 1,1 -4,-20 -12,-46 z m -226,-72 c 26,-35 27,-56 4,-47 -9,4 -37,11 -62,17 -88,19 -89,20 -41,40 62,25 76,23 99,-10 z m 7192,-205 c 156,-79 329,-168 384,-199 l 100,-55 -3,-44 c -2,-23 -12,-79 -23,-122 -77,-300 -233,-572 -458,-796 -134,-132 -373,-321 -388,-306 -4,3 -1,23 5,43 12,41 25,103 42,197 15,90 12,446 -5,541 -36,201 -115,410 -205,540 -17,24 -30,48 -30,53 0,9 281,292 291,292 4,0 134,-65 290,-144 z m -7500,69 c 128,-18 276,-55 371,-93 80,-32 74,-22 98,-157 44,-247 130,-498 255,-750 84,-170 332,-559 489,-769 37,-49 60,-86 52,-83 -76,29 -381,67 -540,67 h -101 l -733,733 -734,734 34,19 c 109,64 657,313 689,314 8,0 62,-7 120,-15 z m -386,-34 c -27,-15 -145,-82 -262,-148 l -212,-120 -36,37 -37,38 73,42 c 131,77 222,113 419,168 19,6 51,10 70,11 l 35,1 z m 1107,-268 c 118,-115 230,-255 342,-428 97,-150 99,-153 158,-260 50,-92 235,-460 275,-550 75,-168 173,-445 157,-445 -2,0 -21,7 -43,16 -45,18 -103,81 -257,279 -59,77 -272,392 -355,525 -85,138 -198,357 -238,465 -13,33 -27,69 -32,80 -15,35 -58,177 -83,275 -13,52 -27,103 -31,113 -15,37 21,14 107,-70 z m 4438,61 c 0,-34 -68,-266 -99,-339 -5,-11 -21,-49 -36,-85 -160,-377 -577,-1017 -834,-1282 -97,-101 -108,-93 -65,44 55,173 133,356 277,648 186,377 296,550 500,785 72,83 236,244 250,245 4,0 7,-7 7,-16 z m -2226,-112 98,-47 -6,-205 c -12,-385 -56,-780 -106,-960 -12,-41 -24,-85 -27,-97 -25,-104 -94,175 -132,537 -30,276 -44,586 -35,751 l 7,128 51,-31 c 28,-16 95,-51 150,-76 z m 3938,-103 c 83,-155 138,-338 159,-529 11,-100 10,-132 -4,-245 -10,-71 -28,-174 -42,-227 -23,-89 -70,-223 -84,-240 -3,-4 -74,-21 -158,-38 -149,-30 -186,-39 -328,-86 -190,-62 -404,-157 -564,-252 -126,-74 -443,-285 -568,-378 -159,-118 -264,-207 -349,-295 -89,-92 -104,-121 -104,-198 0,-49 4,-65 24,-88 22,-25 31,-28 107,-32 125,-5 263,30 479,122 19,8 69,29 110,47 136,58 492,236 630,315 333,191 586,392 757,602 65,81 77,91 96,83 12,-4 63,-20 112,-35 432,-130 789,-359 966,-621 27,-40 49,-75 49,-78 0,-10 -69,-35 -117,-42 -26,-3 -52,-10 -58,-14 -5,-4 -23,-10 -40,-13 -16,-3 -48,-11 -70,-17 -22,-7 -55,-14 -73,-17 -18,-3 -35,-9 -38,-14 -3,-5 -18,-9 -34,-9 -16,0 -32,-4 -35,-10 -3,-5 -19,-10 -35,-10 -16,0 -31,-4 -34,-9 -3,-5 -20,-11 -38,-14 -18,-3 -51,-10 -73,-16 -22,-5 -67,-17 -100,-25 -33,-8 -78,-20 -100,-26 -22,-7 -55,-14 -73,-17 -18,-3 -35,-9 -38,-14 -3,-5 -18,-9 -34,-9 -16,0 -32,-4 -35,-10 -3,-5 -19,-10 -35,-10 -16,0 -31,-4 -34,-9 -3,-5 -20,-11 -38,-14 -57,-9 -264,-61 -306,-78 -13,-5 -34,-9 -47,-9 -13,0 -27,-4 -30,-10 -3,-5 -19,-10 -35,-10 -16,0 -31,-4 -34,-9 -3,-5 -20,-11 -38,-14 -54,-9 -92,-18 -113,-27 -11,-5 -31,-11 -45,-14 -38,-7 -140,-33 -185,-46 -22,-7 -55,-14 -73,-17 -18,-3 -35,-9 -38,-14 -3,-5 -18,-9 -34,-9 -16,0 -31,-4 -34,-9 -3,-5 -20,-11 -38,-14 -18,-3 -51,-10 -73,-17 -22,-6 -51,-14 -65,-17 -14,-2 -32,-7 -40,-11 -17,-7 -120,-31 -168,-39 -18,-3 -35,-9 -38,-14 -3,-5 -18,-9 -34,-9 -16,0 -32,-4 -35,-10 -3,-5 -19,-10 -35,-10 -16,0 -31,-4 -34,-9 -6,-8 -18,-11 -109,-27 -20,-3 -40,-10 -43,-15 -3,-5 -18,-9 -34,-9 -16,0 -31,-4 -34,-9 -3,-5 -20,-11 -38,-14 -77,-13 -157,-33 -164,-39 -4,-5 -20,-8 -35,-8 -15,0 -31,-4 -34,-10 -3,-5 -19,-10 -35,-10 -16,0 -31,-4 -34,-9 -3,-5 -23,-12 -43,-15 -91,-16 -103,-19 -109,-27 -3,-5 -18,-9 -34,-9 -16,0 -31,-4 -34,-9 -3,-5 -20,-11 -38,-14 -18,-3 -62,-13 -98,-22 -36,-9 -76,-18 -90,-21 -14,-3 -34,-9 -45,-14 -19,-8 -47,-15 -110,-27 -16,-3 -34,-9 -40,-13 -25,-19 -123,-19 -414,0 -293,18 -341,25 -341,50 0,9 3269,3277 3291,3291 14,8 24,-6 81,-112 z m -7883,89 c 8,-13 10,-23 4,-25 -6,-2 -19,-11 -29,-19 -15,-12 -12,-12 15,2 l 34,16 708,-708 708,-708 -109,-22 c -175,-35 -305,-76 -526,-165 -29,-12 -39,-9 -145,43 -122,59 -283,124 -389,156 -84,26 -262,62 -309,62 -20,0 -41,4 -48,8 -6,4 -25,65 -43,136 -98,400 -100,729 -5,1012 36,107 97,234 114,234 3,0 12,-10 20,-22 z m 9413,-193 139,-82 -113,-94 c -62,-52 -138,-113 -168,-136 -58,-43 -286,-193 -294,-193 -3,0 -28,-14 -55,-32 -28,-17 -53,-29 -55,-27 -3,2 14,33 35,69 106,172 182,368 230,592 l 12,58 65,-36 c 35,-20 127,-73 204,-119 z m -9676,87 c -14,-38 -31,-105 -56,-217 -5,-22 -14,-107 -21,-190 -15,-195 0,-424 42,-645 6,-30 15,-67 19,-82 9,-28 -5,-51 -19,-31 -3,5 -34,28 -68,51 -239,161 -451,376 -595,602 l -36,58 203,143 c 207,145 536,361 542,355 2,-1 -3,-21 -11,-44 z m 10416,-553 c 302,-201 626,-441 856,-633 163,-136 394,-354 387,-366 -10,-17 -137,-35 -240,-34 -110,1 -171,12 -300,55 -62,21 -344,158 -425,205 -25,15 -65,38 -90,52 -412,232 -587,305 -875,363 -94,19 -141,22 -330,22 -212,0 -308,-9 -450,-43 -81,-19 -81,-14 -9,63 38,39 92,101 119,136 l 50,64 6,-55 c 5,-48 48,-137 68,-139 76,-8 98,-3 181,45 185,107 399,204 592,266 160,52 209,66 293,83 30,7 34,4 167,-84 z m -11232,-84 c 0,-14 -5,-13 -37,6 -58,34 -61,38 -34,60 l 24,19 23,-34 c 13,-19 24,-42 24,-51 z m 78,-97 c 6,-13 52,-69 102,-126 50,-57 90,-106 87,-108 -2,-2 -30,2 -61,10 -133,35 -278,48 -494,44 -161,-2 -208,0 -199,9 37,35 160,133 168,133 4,0 25,-10 46,-21 21,-12 58,-33 83,-47 25,-13 49,-28 55,-33 5,-5 30,-9 55,-9 35,0 52,5 67,23 32,34 63,95 63,122 0,31 13,32 28,3 z m 10372,-308 c 239,-49 500,-142 500,-180 0,-23 48,-96 111,-166 226,-255 399,-453 399,-458 0,-3 -13,-6 -29,-6 -17,0 -32,-4 -35,-9 -3,-5 -20,-11 -38,-14 -18,-3 -62,-13 -98,-22 -36,-9 -76,-18 -90,-21 -14,-3 -34,-9 -45,-14 -21,-9 -59,-18 -113,-27 -18,-3 -35,-9 -38,-14 -3,-5 -18,-9 -34,-9 -16,0 -32,-4 -35,-10 -3,-5 -19,-10 -35,-10 -16,0 -31,-4 -34,-9 -3,-5 -20,-11 -38,-14 -48,-8 -151,-32 -168,-39 -15,-6 -49,-14 -105,-25 -16,-3 -34,-9 -40,-13 -16,-12 -75,-20 -75,-11 0,5 -26,49 -59,97 -134,203 -343,384 -602,522 -90,47 -303,135 -411,169 -43,13 -78,28 -78,31 0,8 93,53 210,103 186,78 427,142 610,163 62,7 313,-2 370,-14 z m -10455,-26 c 216,-38 403,-98 615,-196 61,-28 64,-31 46,-44 -11,-8 -26,-14 -34,-14 -33,0 -234,-74 -331,-122 -163,-80 -272,-159 -406,-293 -120,-119 -214,-244 -270,-355 -35,-71 -45,-82 -59,-71 -10,8 -35,14 -114,28 -18,3 -35,9 -38,14 -3,5 -18,9 -34,9 -16,0 -31,4 -34,9 -3,5 -20,11 -38,14 -18,3 -51,10 -73,17 -22,6 -67,18 -100,26 -113,28 -130,33 -170,44 -22,7 -55,14 -73,17 -18,3 -35,9 -38,14 -3,5 -18,9 -34,9 -16,0 -31,4 -34,9 -3,5 -20,11 -38,14 -18,3 -51,10 -73,17 -22,6 -66,17 -98,25 -32,7 -60,15 -63,18 -19,19 693,718 759,746 80,33 289,77 412,85 79,5 233,-5 320,-20 z m 8897,-351 c -17,-32 -223,-225 -309,-291 -76,-58 -367,-252 -377,-252 -3,0 -29,-14 -58,-31 -56,-33 -430,-223 -508,-257 -25,-11 -67,-30 -94,-42 -177,-80 -434,-166 -449,-151 -36,36 383,362 833,648 271,172 529,284 839,364 63,16 116,31 119,34 11,11 13,-4 4,-22 z m -7724,-14 c 166,-44 282,-86 432,-155 l 74,-35 -29,-18 c -17,-9 -69,-41 -117,-69 -48,-29 -90,-52 -94,-52 -21,0 -364,322 -364,342 0,12 12,10 98,-13 z m -261,-42 c 42,-55 229,-246 318,-326 l 70,-63 -30,-21 c -194,-140 -463,-395 -531,-503 -44,-69 -48,-73 -78,-68 -17,3 -40,9 -51,14 -21,9 -59,18 -113,27 -18,3 -35,9 -38,14 -3,5 -16,9 -30,9 -13,0 -32,4 -42,9 -9,5 -53,16 -97,26 -44,9 -88,21 -97,26 -10,5 -29,9 -42,9 -14,0 -27,4 -30,9 -3,5 -22,12 -41,15 -19,3 -51,9 -70,12 -19,3 -38,10 -41,15 -3,5 -18,9 -34,9 -16,0 -32,5 -35,10 -3,6 -16,10 -27,10 -40,0 -119,29 -125,46 -2,6 32,64 76,130 162,243 348,397 641,527 106,47 310,105 375,106 36,0 44,-4 72,-42 z m 1917,-56 c 151,5 199,1 336,-27 166,-33 363,-100 524,-177 155,-75 211,-109 329,-204 232,-186 362,-316 494,-491 89,-118 222,-407 198,-430 -4,-4 -99,-8 -213,-10 -151,-2 -212,0 -230,9 -18,10 -48,10 -145,1 -67,-7 -175,-12 -239,-12 h -118 v 53 c 0,32 -6,62 -16,77 -27,40 -135,148 -185,185 -105,78 -380,197 -512,221 -45,9 -86,20 -91,25 -12,11 -249,12 -243,2 3,-5 -23,-8 -56,-9 -203,-1 -294,-7 -394,-26 -62,-11 -111,-23 -108,-27 2,-4 -31,-16 -73,-25 -111,-26 -346,-106 -502,-171 -214,-89 -259,-105 -368,-134 -56,-15 -100,-29 -97,-33 3,-3 -44,-13 -105,-23 -91,-14 -120,-15 -161,-5 -27,7 -49,13 -49,15 0,8 33,81 39,85 10,7 82,140 75,140 -12,0 80,120 128,166 119,114 384,325 428,342 21,8 151,92 172,112 21,19 251,140 275,144 28,6 177,69 184,78 25,36 575,171 613,150 4,-2 54,-3 110,-1 z m 9003,-259 c 43,-32 92,-66 108,-76 59,-36 203,-196 240,-267 20,-38 32,-69 28,-69 -14,0 -158,81 -174,98 -8,10 -37,33 -63,52 -88,65 -108,83 -146,134 -20,28 -76,92 -124,141 -48,50 -91,98 -97,108 -16,28 137,-53 228,-121 z m 869,-4 c 104,-130 238,-338 304,-472 l 62,-123 -39,-59 c -160,-247 -358,-473 -534,-611 l -67,-52 -23,26 c -13,14 -49,38 -79,53 -30,15 -76,46 -102,69 -54,48 -68,89 -43,127 15,23 14,27 -16,84 -58,108 -173,197 -316,244 l -53,18 17,31 c 12,25 86,147 99,165 1,2 22,-9 46,-26 148,-101 313,-139 413,-93 58,26 67,43 73,125 7,114 -39,242 -127,354 -23,28 -41,55 -41,59 0,20 142,95 240,128 30,9 64,21 75,26 37,14 45,9 111,-73 z m -1018,-287 102,-109 -82,-136 -83,-136 -140,-5 c -203,-5 -449,-46 -649,-107 -47,-14 -100,-21 -157,-22 -72,-1 -91,-4 -109,-21 -32,-29 -21,-78 28,-129 63,-65 99,-122 124,-194 41,-120 26,-307 -35,-432 -21,-43 -26,-46 -110,-76 -49,-18 -98,-34 -110,-37 -12,-3 -51,-13 -87,-22 -123,-30 -145,-35 -260,-50 -63,-9 -127,-17 -141,-20 -15,-2 -29,-1 -33,2 -3,3 27,41 68,83 218,228 368,513 421,800 9,47 19,163 22,258 6,164 7,173 27,177 79,18 173,41 221,55 22,7 55,14 73,17 18,3 35,9 38,14 3,5 18,9 34,9 16,0 32,5 35,10 3,6 19,10 35,10 16,0 31,4 34,9 3,5 20,11 38,14 57,9 264,61 306,78 13,5 34,9 47,9 13,0 27,5 30,10 3,6 19,10 35,10 16,0 32,5 35,10 3,6 19,10 35,10 16,0 32,5 35,10 3,6 21,10 38,10 28,0 46,-15 135,-109 z m -13223,59 c 11,-5 31,-11 45,-14 14,-2 43,-10 65,-16 56,-16 118,-32 170,-44 56,-13 110,-28 130,-36 21,-9 60,-18 113,-27 18,-3 35,-9 38,-14 3,-5 18,-9 34,-9 16,0 31,-4 34,-9 3,-5 20,-11 38,-14 18,-3 78,-17 133,-32 111,-30 163,-43 215,-53 34,-7 35,-9 37,-57 4,-90 25,-259 40,-324 63,-278 244,-598 485,-856 37,-40 68,-76 68,-79 0,-16 -203,6 -396,44 -166,32 -405,117 -517,182 -26,15 -50,28 -54,28 -11,0 -170,115 -243,176 -85,71 -166,160 -261,284 -94,124 -114,156 -399,632 l -29,46 90,105 c 95,110 102,113 164,87 z m 11852,-423 c -4,-73 -11,-146 -16,-163 -4,-16 -14,-54 -21,-84 -43,-198 -163,-432 -309,-608 -82,-98 -237,-242 -261,-242 -7,0 -51,13 -99,29 -199,66 -302,90 -563,131 -157,24 -392,32 -598,21 -494,-27 -758,-58 -980,-113 -63,-16 -119,-45 -157,-81 -30,-28 -33,-36 -33,-93 0,-46 5,-68 20,-87 39,-50 173,-98 350,-126 41,-7 100,-16 130,-21 127,-21 466,-47 715,-56 l 190,-6 -109,-55 c -206,-103 -462,-195 -736,-263 -132,-33 -128,-33 -230,1 -14,4 -59,15 -100,24 -41,9 -85,21 -98,26 -13,5 -34,9 -47,9 -13,0 -27,5 -30,10 -3,6 -19,10 -35,10 -16,0 -32,5 -35,10 -3,6 -19,10 -35,10 -16,0 -32,5 -35,10 -3,6 -17,10 -30,10 -13,0 -34,4 -47,9 -54,20 -319,90 -376,98 -18,3 -35,9 -38,14 -8,14 60,136 129,229 94,126 239,282 377,406 l 122,109 -218,6 c -330,10 -372,12 -339,16 17,3 34,9 40,14 5,5 21,9 36,9 15,0 30,4 33,9 3,5 20,11 38,14 48,8 91,18 108,25 17,7 120,31 168,39 18,3 35,9 38,14 3,5 18,9 34,9 16,0 32,5 35,10 3,6 19,10 35,10 16,0 31,4 34,9 3,5 20,11 38,14 18,3 51,10 73,17 22,6 51,14 65,17 14,2 32,7 40,11 17,7 120,31 168,39 18,3 35,9 38,14 3,5 18,9 34,9 16,0 32,5 35,10 3,6 19,10 35,10 16,0 31,4 34,9 3,5 20,11 38,14 54,9 92,18 113,27 11,5 31,11 45,14 14,3 54,12 90,21 36,9 80,19 98,22 18,3 35,9 38,14 3,5 18,9 34,9 16,0 32,5 35,10 3,6 19,10 35,10 16,0 31,4 34,9 6,8 18,11 109,27 20,3 40,10 43,15 3,5 16,9 30,9 13,0 32,4 42,9 9,5 53,17 97,26 44,10 88,21 97,26 10,5 29,9 42,9 14,0 28,5 31,10 3,6 21,10 40,10 19,0 37,5 40,10 3,6 19,10 35,10 16,0 32,5 35,10 3,6 19,10 35,10 16,0 32,5 35,10 3,6 19,10 35,10 16,0 31,4 34,9 3,5 20,11 38,14 77,13 157,33 164,40 4,4 20,7 35,7 15,0 30,4 33,9 3,5 23,12 43,15 91,16 103,19 109,27 3,5 18,9 34,9 16,0 32,5 35,10 3,6 19,10 35,10 16,0 31,4 34,9 3,5 20,11 38,14 48,8 151,32 168,39 17,7 60,17 108,25 18,3 35,9 38,14 3,5 18,9 34,9 16,0 32,5 35,10 3,6 20,10 37,10 h 31 z M 4278,8865 c 202,-300 447,-533 700,-665 34,-18 62,-36 62,-41 0,-12 -256,-11 -361,1 -147,17 -243,31 -284,40 -22,4 -67,14 -100,21 -132,26 -317,82 -430,129 -167,70 -435,224 -435,251 0,13 152,248 227,352 36,51 122,165 191,254 l 125,161 139,-231 c 77,-128 151,-250 166,-272 z m 1357,475 c 22,-6 67,-18 100,-26 113,-28 130,-33 170,-44 22,-7 55,-14 73,-17 18,-3 35,-9 38,-14 3,-5 18,-9 34,-9 16,0 32,-4 35,-10 3,-5 17,-10 30,-10 13,0 34,-4 47,-9 13,-5 41,-14 63,-19 135,-36 214,-55 243,-59 26,-4 32,-9 26,-22 -59,-141 -39,-264 49,-315 63,-36 116,-47 237,-47 174,0 440,52 553,107 l 53,26 85,-22 c 46,-12 100,-26 119,-32 19,-5 46,-12 60,-14 14,-3 34,-9 45,-14 11,-5 31,-11 45,-14 14,-2 43,-10 65,-16 22,-6 51,-14 65,-16 14,-3 34,-9 45,-14 11,-5 31,-11 45,-14 14,-3 54,-12 90,-21 36,-9 80,-19 98,-22 18,-3 35,-9 38,-14 3,-5 15,-9 26,-9 19,0 58,-10 112,-29 12,-5 -16,-13 -80,-25 -109,-19 -357,-76 -352,-81 2,-2 100,8 218,21 293,34 412,35 515,7 44,-12 89,-24 100,-26 11,-2 -14,-7 -55,-11 -460,-46 -874,-97 -1305,-161 -126,-18 -295,-36 -375,-40 -301,-13 -574,-66 -760,-146 l -53,-23 -86,90 c -260,269 -448,580 -522,864 -15,57 -39,202 -39,239 0,32 1,33 33,28 17,-3 50,-10 72,-17 z m 2876,-201 c 115,-39 132,-42 241,-43 116,-1 117,-1 147,28 l 31,30 83,-33 c 209,-85 357,-172 402,-239 32,-47 32,-83 -1,-122 -50,-58 -80,-67 -282,-74 -101,-4 -232,-11 -290,-16 -69,-6 -110,-6 -116,0 -6,6 -22,10 -37,10 -15,0 -31,5 -34,10 -3,6 -16,10 -27,10 -12,0 -35,5 -52,10 -17,6 -69,19 -116,31 -47,11 -101,25 -120,31 -19,5 -50,12 -68,15 -18,3 -35,9 -38,14 -3,5 -18,9 -34,9 -16,0 -31,4 -34,9 -3,5 -20,11 -38,14 -18,3 -51,10 -73,17 -40,11 -57,16 -170,44 -33,8 -78,20 -100,26 -22,7 -55,14 -73,17 -18,3 -35,9 -38,14 -3,5 -20,9 -37,10 h -32 l 43,19 c 157,70 598,192 723,199 8,1 71,-18 140,-40 z m 8909,-110 c 47,-6 101,-11 120,-10 73,0 251,-77 280,-121 8,-14 17,-60 20,-111 l 6,-87 79,-81 c 44,-44 108,-99 142,-122 75,-51 406,-376 390,-382 -34,-13 -176,-37 -287,-50 -228,-27 -500,-15 -895,39 -99,14 -261,34 -360,46 -98,11 -181,23 -184,25 -2,3 8,22 22,42 32,48 88,233 70,233 -5,0 -8,82 -9,183 -1,159 -3,189 -22,239 l -21,57 55,16 c 129,37 405,91 484,94 14,1 64,-4 110,-10 z m 1641,-199 c 5,-74 11,-142 13,-150 19,-70 20,-67 -42,-79 -31,-5 -111,-22 -177,-36 -66,-14 -133,-28 -150,-31 -16,-3 -42,-10 -57,-16 -52,-19 -46,3 15,60 90,83 217,225 300,334 86,113 84,115 98,-82 z m -8897,-218 27,-29 -303,-6 c -167,-3 -395,-11 -507,-18 -142,-8 -214,-9 -235,-1 -17,5 -67,18 -111,28 l -80,19 130,8 c 199,12 596,24 836,25 l 215,2 z m 9000,-201 25,-48 -57,-6 c -56,-6 -156,-18 -317,-37 -195,-24 -219,-24 -238,-2 -19,20 -19,21 20,27 21,4 83,18 138,31 55,12 147,33 205,45 58,12 116,25 130,29 55,18 68,12 94,-39 z M 3345,8289 c 22,-6 55,-13 73,-16 17,-3 32,-10 32,-16 0,-6 -28,-8 -82,-3 -119,10 -130,14 -117,38 8,15 17,18 32,13 12,-4 40,-11 62,-16 z m 15879,-134 -16,-35 h -204 -204 l -32,29 -32,28 100,13 c 54,6 167,19 249,29 l 150,17 3,-23 c 2,-12 -4,-38 -14,-58 z m -4548,55 c 135,-10 219,-22 344,-47 41,-9 86,-18 100,-20 78,-15 290,-82 290,-91 0,-22 -473,-132 -484,-113 -2,3 -7,21 -11,39 l -7,32 -59,-47 -60,-47 -166,-4 c -294,-8 -821,33 -1078,83 -108,22 -205,54 -205,69 0,12 76,37 200,65 141,32 438,64 740,80 215,12 255,12 396,1 z M 3398,8124 c 56,-3 102,-10 102,-15 0,-5 -79,-9 -175,-9 -175,0 -176,0 -165,21 10,19 18,20 73,15 34,-3 108,-8 165,-12 z m 1728,7 c 12,-12 164,-65 232,-81 57,-13 69,-36 25,-46 -82,-18 -199,-57 -260,-87 -25,-11 -46,-1 -24,12 10,6 12,34 9,110 -3,100 -1,110 18,92 z m 11278,-67 c -12,-17 -24,-24 -41,-22 -36,5 -32,22 7,35 50,17 52,16 34,-13 z m -499,-89 c 101,-10 360,-57 371,-68 7,-7 -251,-207 -266,-207 -4,0 -29,28 -56,63 -26,34 -79,96 -116,138 -37,42 -68,79 -68,84 0,4 15,5 33,2 17,-3 64,-9 102,-12 z m 3022,-31 c -37,-34 -40,-35 -90,-28 -29,4 -81,10 -117,13 l -65,6 55,22 c 43,17 76,22 155,22 h 100 z m -15522,5 c -109,-11 -229,-25 -292,-34 -56,-8 -59,-6 -43,26 10,18 22,19 213,17 166,-1 188,-3 122,-9 z m 12278,-117 c 52,-56 115,-129 141,-162 l 48,-61 -74,-33 c -140,-65 -209,-81 -348,-81 -123,0 -126,1 -200,36 -41,20 -94,53 -118,74 -41,36 -142,168 -142,187 0,4 13,8 29,8 90,0 501,108 535,141 14,13 29,0 129,-109 z m -9970,39 c -375,-196 -605,-354 -963,-662 -316,-272 -538,-459 -544,-459 -8,0 175,299 242,395 86,124 152,202 254,301 214,209 396,312 753,424 55,17 313,64 375,69 8,0 -44,-30 -117,-68 z m 11429,25 c 139,-19 284,-37 321,-41 60,-6 262,-57 274,-69 3,-3 -19,-3 -48,0 -30,2 -173,14 -319,25 -505,39 -540,43 -609,79 -33,18 -61,34 -61,36 0,14 227,-1 442,-30 z m -12078,18 c 20,-8 21,-24 2,-24 -39,0 -267,-144 -383,-242 -194,-164 -347,-359 -548,-698 -152,-256 -219,-361 -297,-467 -74,-99 -181,-204 -268,-262 -102,-69 -187,-102 -410,-162 -41,-11 -91,-25 -110,-30 -19,-6 -46,-13 -60,-15 -14,-3 -34,-9 -45,-14 -11,-5 -31,-11 -45,-14 -14,-2 -41,-9 -60,-15 -19,-5 -73,-19 -120,-30 -109,-27 -159,-41 -188,-52 -13,-5 -34,-9 -47,-9 -13,0 -27,-4 -30,-10 -3,-5 -16,-10 -27,-10 -20,0 -68,-13 -113,-31 -11,-4 -32,-10 -47,-13 -16,-3 -39,-9 -53,-12 -34,-8 -33,15 1,47 74,70 204,262 400,591 281,474 388,623 587,826 84,85 311,272 331,272 3,0 31,16 62,36 145,93 388,190 609,243 251,61 393,80 655,91 102,4 186,7 187,8 1,1 8,-1 17,-4 z m 13418,-93 c 42,-3 79,-9 83,-13 4,-3 -22,-10 -57,-15 -50,-7 -75,-5 -123,9 -33,10 -68,18 -78,18 -11,0 -15,5 -11,11 4,8 24,9 58,4 28,-4 86,-10 128,-14 z M 3420,7810 c 0,-5 -11,-10 -25,-10 -14,0 -33,-4 -43,-9 -9,-5 -78,-23 -152,-40 -74,-18 -156,-37 -182,-43 -26,-7 -50,-9 -54,-6 -3,3 2,20 10,36 14,27 22,31 73,36 32,4 88,11 125,16 37,6 86,10 110,10 24,0 50,5 58,10 20,13 80,13 80,0 z m -284,-262 c -58,-32 -245,-235 -357,-385 -40,-54 -76,-102 -81,-108 -12,-14 1,22 95,254 l 82,204 60,13 c 33,8 85,19 115,25 30,7 62,16 70,20 23,12 39,-10 16,-23 z m 9464,-47 c 50,-14 229,-61 270,-71 19,-5 53,-14 75,-20 22,-7 55,-14 73,-17 18,-3 35,-9 38,-14 3,-5 17,-9 32,-9 15,0 34,-4 42,-10 13,-8 13,-9 0,-14 -27,-8 -236,-26 -383,-33 l -144,-6 -27,36 c -29,38 -56,113 -56,155 0,26 0,26 80,3 z M 1827,6184 c -3,-3 -12,-4 -19,-1 -8,3 -5,6 6,6 11,1 17,-2 13,-5 z m -100,-20 c -3,-3 -12,-4 -19,-1 -8,3 -5,6 6,6 11,1 17,-2 13,-5 z m 247,-206 c -11,-18 -69,-67 -151,-129 -78,-59 -209,-128 -283,-149 -111,-31 -160,-58 -160,-87 0,-7 -9,-13 -19,-13 -11,0 -23,-4 -26,-10 -3,-5 -16,-10 -27,-10 -12,0 -37,-5 -55,-12 -31,-11 -35,-10 -71,24 -20,20 -53,44 -72,53 -19,10 -48,28 -65,41 -69,51 -182,98 -334,139 -46,12 -77,24 -70,28 8,3 68,29 134,57 98,42 126,51 155,45 302,-54 635,-46 995,25 22,4 44,8 48,9 5,0 5,-4 1,-11 z m 1196,-73 c 0,-3 -108,-95 -241,-205 l -241,-199 -66,33 c -108,54 -162,77 -247,107 -44,15 -73,29 -65,32 8,2 31,9 51,16 19,6 45,11 57,11 11,0 24,5 27,10 3,6 19,10 35,10 16,0 31,4 34,9 3,5 20,11 38,14 18,3 62,13 98,22 36,9 81,20 100,25 19,5 51,13 70,19 19,5 46,13 60,16 14,4 34,10 45,15 21,9 59,18 113,27 18,3 35,9 38,14 3,5 17,9 32,9 15,0 34,5 42,10 17,11 20,12 20,5 z M 2056,5459 c 27,-6 55,-15 63,-18 23,-12 25,-31 2,-31 -11,0 -30,-4 -43,-9 -13,-5 -79,-31 -148,-57 -69,-26 -140,-56 -158,-66 -18,-10 -37,-18 -42,-18 -16,0 -245,-132 -304,-176 l -59,-44 -56,31 c -31,16 -67,38 -80,48 l -24,19 23,48 c 12,27 31,61 41,75 10,14 23,48 30,75 14,55 22,64 61,64 15,0 29,4 33,9 3,6 27,8 53,5 33,-4 76,2 147,22 55,15 120,31 145,35 59,10 253,3 316,-12 z m 244,-306 c -254,-240 -528,-415 -848,-544 -40,-16 -75,-29 -79,-29 -3,0 -3,30 0,68 l 5,67 63,59 c 177,163 496,327 844,433 44,13 85,26 90,28 6,2 12,4 14,4 2,1 -38,-38 -89,-86 z"
       id="path4"
       style="fill:#20c2ef;fill-opacity:1;stroke:#000000;stroke-opacity:1"
       inkscape:connector-curvature="0" />
  </g>
</svg>
