<?xml version="1.0" encoding="iso-8859-1"?>
<!-- Generator: Adobe Illustrator 19.0.0, SVG Export Plug-In . SVG Version: 6.00 Build 0)  -->
<svg version="1.1" id="Capa_1" xmlns="http://www.w3.org/2000/svg" xmlns:xlink="http://www.w3.org/1999/xlink" x="0px" y="0px"
	 viewBox="0 0 512 512" style="enable-background:new 0 0 512 512;" xml:space="preserve">
<path style="fill:#909B91;" d="M327.832,51.182v92.217h-29.121V51.182c0-8.042,6.519-14.561,14.561-14.561
	S327.832,43.14,327.832,51.182z M133.691,102.629c0-5.361-4.346-9.707-9.707-9.707H104.57c-5.361,0-9.707,4.346-9.707,9.707v40.77
	h38.828V102.629z M75.449,494.793c0,5.361,4.346,9.707,9.707,9.707h50.477c5.361,0,9.707-4.346,9.707-9.707V463.73H75.449V494.793z
	 M485.086,162.812h-31.063v99.012h31.063c5.361,0,9.707-4.346,9.707-9.707v-79.598C494.793,167.158,490.447,162.812,485.086,162.812
	z M485.086,308.418h-31.063v38.828h31.063c5.361,0,9.707-4.346,9.707-9.707v-19.414
	C494.793,312.764,490.447,308.418,485.086,308.418z M366.66,494.793c0,5.361,4.346,9.707,9.707,9.707h50.477
	c5.361,0,9.707-4.346,9.707-9.707V463.73H366.66V494.793z"/>
<path style="fill:#D6E2D0;" d="M504.5,395.781v67.464c0,5.361-4.346,9.707-9.707,9.707H17.207c-5.361,0-9.707-4.346-9.707-9.707
	v-67.464c0-5.361,4.346-9.707,9.707-9.707h250.441l0,0c0-10.722,8.692-19.414,19.414-19.414h157.254
	c10.722,0,19.414,8.692,19.414,19.414l0,0h31.063C500.154,386.074,504.5,390.42,504.5,395.781z"/>
<path style="fill:#C7D9C4;" d="M483.145,434.124v-38.343c0-5.361-4.346-9.707-9.707-9.707h21.355c5.361,0,9.707,4.346,9.707,9.707
	v38.343H483.145z"/>
<path style="fill:#AFC1A9;" d="M46.328,269.59v-19.414v-87.363l0,0c0-21.444,17.384-38.828,38.828-38.828h182.492h118.426l0,0
	c0-5.361,4.346-9.707,9.707-9.707l0,0c5.361,0,9.707,4.346,9.707,9.707l0,0h11.648h7.766c21.444,0,38.828,17.384,38.828,38.828
	v223.262H267.648V269.59c0-10.722-8.692-19.414-19.414-19.414H167.08c-9.254,0-17.222,6.532-19.037,15.607l-1.523,7.615
	c-1.391,6.954-6.401,12.403-12.828,14.575v1.032c0,5.361-4.346,9.707-9.707,9.707H104.57c-5.361,0-9.707-4.346-9.707-9.707l0,0
	H65.742C55.02,289.004,46.328,280.312,46.328,269.59z M7.5,424.902v38.343c0,5.361,4.346,9.707,9.707,9.707h477.586
	c5.361,0,9.707-4.346,9.707-9.707v-38.343H7.5z"/>
<path style="fill:#A7B8A1;" d="M504.5,424.902v38.343c0,5.361-4.346,9.707-9.707,9.707h-21.355c5.361,0,9.707-4.346,9.707-9.707
	v-38.343H504.5z M424.902,123.984h-7.766h-11.648c21.444,0,38.828,17.384,38.828,38.828v223.262h19.414V162.813
	C463.73,141.368,446.346,123.984,424.902,123.984z"/>
<path style="fill:#FA8C73;" d="M33.166,372.488h162.222c3.303,0,6.393,1.628,8.26,4.352l0,0c3.512,5.124,1.562,12.176-4.085,14.766
	l-81.111,37.209c-2.651,1.216-5.701,1.216-8.352,0l-81.111-37.209c-5.646-2.59-7.597-9.642-4.085-14.766l0,0
	C26.773,374.116,29.864,372.488,33.166,372.488z"/>
<path style="fill:#F07462;" d="M203.649,376.84c3.512,5.124,1.562,12.176-4.085,14.766l-81.111,37.209
	c-2.651,1.216-5.701,1.216-8.352,0l-15.733-7.217c0.021-0.009,0.043-0.015,0.063-0.025l105.049-48.19
	C201.137,374.126,202.592,375.3,203.649,376.84L203.649,376.84z"/>
<path style="fill:#909B91;" d="M133.691,287.972v22.387c0,5.361-4.346,9.707-9.707,9.707H104.57c-5.361,0-9.707-4.346-9.707-9.707
	v-21.355h32.619C129.645,289.004,131.732,288.635,133.691,287.972z"/>
<path style="fill:#D6E2D0;" d="M366.66,240.469c-26.805,0-48.535,21.73-48.535,48.535s21.73,48.535,48.535,48.535
	s48.535-21.73,48.535-48.535S393.465,240.469,366.66,240.469z M366.66,308.418c-10.722,0-19.414-8.692-19.414-19.414
	s8.692-19.414,19.414-19.414s19.414,8.692,19.414,19.414S377.382,308.418,366.66,308.418z M138.545,196.787
	c0,13.403-10.865,24.268-24.268,24.268S90.01,210.19,90.01,196.787s10.865-24.268,24.268-24.268S138.545,183.384,138.545,196.787z"
	/>
<path style="fill:#909B91;" d="M327.832,181.934v-9.121c0-5.523,4.477-10,10-10h67.363c5.523,0,10,4.477,10,10v9.121
	c0,5.523-4.477,10-10,10h-67.363C332.309,191.934,327.832,187.456,327.832,181.934z"/>
<path style="fill:#F4998A;" d="M415.195,12.354v24.268v82.51c0,2.681-2.173,4.854-4.854,4.854H381.22
	c-2.681,0-4.854-2.173-4.854-4.854v-82.51V12.354c0-2.681,2.173-4.854,4.854-4.854h29.121C413.022,7.5,415.195,9.673,415.195,12.354
	z"/>
<path style="fill:#F26152;" d="M424.902,46.621v38.242c0,5.523-4.477,10-10,10H376.66c-5.523,0-10-4.477-10-10V46.621
	c0-5.523,4.477-10,10-10h38.242C420.425,36.621,424.902,41.098,424.902,46.621z"/>
<path style="fill:#DD5652;" d="M424.902,46.328v38.828c0,5.361-4.346,9.707-9.707,9.707h-19.414c5.361,0,9.707-4.346,9.707-9.707
	V46.328c0-5.361-4.346-9.707-9.707-9.707h19.414C420.556,36.621,424.902,40.967,424.902,46.328z"/>
<path d="M494.793,378.574H471.23v-23.828h13.855c9.488,0,17.207-7.719,17.207-17.207v-19.414c0-9.488-7.719-17.207-17.207-17.207
	H471.23v-31.594h13.855c9.488,0,17.207-7.719,17.207-17.207V172.52c0-9.488-7.719-17.207-17.207-17.207h-14.462
	c-3.594-21.993-22.729-38.828-45.722-38.828h-2.207V100.53c5.75-2.871,9.707-8.815,9.707-15.667V46.621
	c0-6.852-3.958-12.796-9.707-15.667v-18.6C422.695,5.542,417.154,0,410.342,0h-29.121c-6.812,0-12.354,5.542-12.354,12.354v18.601
	c-5.75,2.871-9.707,8.815-9.707,15.667v38.242c0,6.852,3.958,12.796,9.707,15.667v15.954h-33.535V51.182
	c0-12.164-9.896-22.061-22.061-22.061s-22.061,9.896-22.061,22.061v65.303H141.19V102.63c0-9.488-7.719-17.207-17.207-17.207H104.57
	c-9.488,0-17.207,7.719-17.207,17.207v13.855h-2.207c-25.545,0-46.328,20.783-46.328,46.328V269.59
	c0,14.84,12.074,26.914,26.914,26.914h21.621v13.855c0,9.488,7.719,17.207,17.207,17.207h2.207v12.18h-2.207
	c-4.142,0-7.5,3.358-7.5,7.5s3.358,7.5,7.5,7.5h2.207v10.242h-73.61c-5.779,0-11.18,2.846-14.446,7.611
	c-1.266,1.846-2.149,3.886-2.634,6.011C7.118,379.189,0,386.669,0,395.781v67.464c0,9.488,7.719,17.207,17.207,17.207h50.742v14.341
	c0,9.488,7.719,17.207,17.207,17.207h50.477c9.488,0,17.207-7.719,17.207-17.207v-14.341h206.32v14.341
	c0,9.488,7.719,17.207,17.207,17.207h50.477c9.488,0,17.207-7.719,17.207-17.207v-14.341h50.742c9.488,0,17.207-7.719,17.207-17.207
	v-67.464C512,386.293,504.281,378.574,494.793,378.574z M471.23,170.313h13.855c1.217,0,2.207,0.99,2.207,2.207v79.598
	c0,1.217-0.99,2.207-2.207,2.207H471.23V170.313z M471.23,315.918h13.855c1.217,0,2.207,0.99,2.207,2.207v19.414
	c0,1.217-0.99,2.207-2.207,2.207H471.23V315.918z M383.867,15h23.828v14.121h-23.828V15z M374.16,73.242h21.621
	c4.142,0,7.5-3.358,7.5-7.5s-3.358-7.5-7.5-7.5H374.16V46.621c0-1.378,1.122-2.5,2.5-2.5h38.242c1.378,0,2.5,1.122,2.5,2.5v38.242
	c0,1.378-1.122,2.5-2.5,2.5H376.66c-1.378,0-2.5-1.122-2.5-2.5V73.242z M407.695,102.363v14.121h-23.828v-14.121H407.695z
	 M306.211,51.182c0-3.893,3.167-7.061,7.061-7.061s7.061,3.167,7.061,7.061v65.303h-14.121V51.182H306.211z M102.363,102.629
	c0-1.217,0.99-2.207,2.207-2.207h19.414c1.217,0,2.207,0.99,2.207,2.207v13.855h-11.914h-11.914V102.629z M131.045,196.787
	c0,9.246-7.522,16.768-16.768,16.768s-16.768-7.522-16.768-16.768s7.522-16.768,16.768-16.768S131.045,187.542,131.045,196.787z
	 M65.742,281.504c-6.569,0-11.914-5.345-11.914-11.914V162.813c0-17.274,14.054-31.328,31.328-31.328h21.621v34.429
	c-13.909,3.38-24.268,15.94-24.268,30.874s10.359,27.494,24.268,30.874v32.222c0,4.142,3.358,7.5,7.5,7.5s7.5-3.358,7.5-7.5v-32.222
	c13.909-3.38,24.268-15.94,24.268-30.874s-10.359-27.494-24.268-30.874v-34.429h303.125c17.274,0,31.328,14.054,31.328,31.328
	v215.276H275.148V269.59c0-14.84-12.074-26.914-26.914-26.914H167.08c-12.785,0-23.884,9.099-26.392,21.636l-1.523,7.615
	c-1.11,5.55-6.023,9.578-11.683,9.578L65.742,281.504L65.742,281.504z M104.57,312.566c-1.217,0-2.207-0.99-2.207-2.207v-13.855
	h23.828v13.855c0,1.217-0.99,2.207-2.207,2.207H104.57z M137.84,494.793c0,1.217-0.99,2.207-2.207,2.207H85.156
	c-1.217,0-2.207-0.99-2.207-2.207v-14.341h54.891V494.793z M429.051,494.793c0,1.217-0.99,2.207-2.207,2.207h-50.477
	c-1.217,0-2.207-0.99-2.207-2.207v-14.341h54.891V494.793z M497,417.402H375.396c-4.142,0-7.5,3.358-7.5,7.5s3.358,7.5,7.5,7.5H497
	v30.843c0,1.217-0.99,2.207-2.207,2.207H17.207c-1.217,0-2.207-0.99-2.207-2.207v-67.464c0-1.217,0.99-2.207,2.207-2.207h2.382
	c1.671,2.049,3.805,3.716,6.274,4.849l81.11,37.208c4.642,2.13,9.966,2.129,14.607,0l81.11-37.208
	c4.707-2.159,8.198-6.259,9.579-11.25c1.38-4.991,0.493-10.303-2.435-14.574c-3.267-4.766-8.668-7.611-14.446-7.611h-53.204
	c-4.142,0-7.5,3.358-7.5,7.5s3.358,7.5,7.5,7.5h53.204c0.83,0,1.606,0.409,2.075,1.093c0.576,0.839,0.466,1.671,0.35,2.093
	c-0.117,0.421-0.45,1.19-1.376,1.615l-81.111,37.208c-0.666,0.306-1.429,0.306-2.097,0l-81.111-37.208
	c-0.925-0.424-1.258-1.194-1.375-1.615s-0.226-1.253,0.35-2.093c0.469-0.684,1.244-1.092,2.074-1.092h73.611v6.086
	c0,4.142,3.358,7.5,7.5,7.5s7.5-3.358,7.5-7.5v-58.508h2.207c9.488,0,17.207-7.719,17.207-17.207v-17.63
	c6.392-3.799,11.148-10.187,12.683-17.862l1.523-7.615c1.11-5.549,6.023-9.577,11.683-9.577h81.154
	c6.569,0,11.914,5.345,11.914,11.914v108.984h-31.49c-4.142,0-7.5,3.358-7.5,7.5s3.358,7.5,7.5,7.5h266.134
	c1.217,0,2.207,0.99,2.207,2.207L497,417.402L497,417.402z M337.832,199.434h67.363c9.649,0,17.5-7.851,17.5-17.5v-9.121
	c0-9.649-7.851-17.5-17.5-17.5h-67.363c-9.649,0-17.5,7.851-17.5,17.5v9.121C320.332,191.583,328.183,199.434,337.832,199.434z
	 M335.332,172.813c0-1.378,1.122-2.5,2.5-2.5h67.363c1.378,0,2.5,1.122,2.5,2.5v9.121c0,1.378-1.122,2.5-2.5,2.5h-67.363
	c-1.378,0-2.5-1.122-2.5-2.5V172.813z M366.66,315.918c14.84,0,26.914-12.074,26.914-26.914S381.5,262.09,366.66,262.09
	s-26.914,12.074-26.914,26.914S351.82,315.918,366.66,315.918z M366.66,277.09c6.569,0,11.914,5.345,11.914,11.914
	s-5.345,11.914-11.914,11.914s-11.914-5.345-11.914-11.914S360.091,277.09,366.66,277.09z M355.231,424.902
	c0,4.142-3.358,7.5-7.5,7.5H191.934c-4.142,0-7.5-3.358-7.5-7.5s3.358-7.5,7.5-7.5h155.798
	C351.874,417.402,355.231,420.76,355.231,424.902z M366.66,345.039c30.898,0,56.035-25.137,56.035-56.035
	s-25.137-56.035-56.035-56.035s-56.035,25.137-56.035,56.035S335.762,345.039,366.66,345.039z M366.66,247.969
	c22.627,0,41.035,18.408,41.035,41.035s-18.408,41.035-41.035,41.035s-41.035-18.408-41.035-41.035S344.033,247.969,366.66,247.969z
	"/>
<g>
</g>
<g>
</g>
<g>
</g>
<g>
</g>
<g>
</g>
<g>
</g>
<g>
</g>
<g>
</g>
<g>
</g>
<g>
</g>
<g>
</g>
<g>
</g>
<g>
</g>
<g>
</g>
<g>
</g>
</svg>
