<?xml version="1.0" encoding="iso-8859-1"?>
<!-- Generator: Adobe Illustrator 19.0.0, SVG Export Plug-In . SVG Version: 6.00 Build 0)  -->
<svg version="1.1" id="Capa_1" xmlns="http://www.w3.org/2000/svg" xmlns:xlink="http://www.w3.org/1999/xlink" x="0px" y="0px"
	 viewBox="0 0 512 512" style="enable-background:new 0 0 512 512;" xml:space="preserve">
<path style="fill:#D6E2D0;" d="M37.5,105.417h437c16.569,0,30,13.431,30,30V434.5c0,16.569-13.431,30-30,30h-437
	c-16.569,0-30-13.431-30-30V135.417C7.5,118.848,20.931,105.417,37.5,105.417z"/>
<path style="fill:#AFC1A9;" d="M504.5,134.375v301.167c0,15.993-13.038,28.958-29.121,28.958h-21.355
	c16.083,0,29.121-12.965,29.121-28.958V134.375c0-15.993-13.038-28.958-29.121-28.958h21.355
	C491.462,105.417,504.5,118.382,504.5,134.375z"/>
<path style="fill:#909B91;" d="M37.5,47.5h437c16.569,0,30,13.431,30,30v299.083c0,16.569-13.431,30-30,30h-437
	c-16.569,0-30-13.431-30-30V77.5C7.5,60.931,20.931,47.5,37.5,47.5z"/>
<path style="fill:#F26152;" d="M100.688,100.59c0,13.328-10.865,24.132-24.268,24.132s-24.268-10.804-24.268-24.132
	S63.017,76.458,76.42,76.458S100.688,87.263,100.688,100.59z M154.076,76.458c-13.403,0-24.268,10.804-24.268,24.132
	s10.865,24.132,24.268,24.132s24.268-10.804,24.268-24.132S167.479,76.458,154.076,76.458z"/>
<path style="fill:#FA8C73;" d="M74.38,84.804c1.895,1.885,1.204,5.628-1.544,8.361s-6.513,3.42-8.408,1.536
	c-1.895-1.885-1.204-5.628,1.544-8.361C68.72,83.606,72.485,82.919,74.38,84.804z M151.807,84.804
	c-1.895-1.885-5.66-1.197-8.408,1.536s-3.44,6.477-1.544,8.361c1.895,1.885,5.66,1.197,8.408-1.536S153.702,86.688,151.807,84.804z"
	/>
<path style="fill:#EFA96B;" d="M441.644,95.764v9.653v16.534v157.6c0,5.331-4.346,9.653-9.707,9.653h-28.641
	c-5.361,0-9.707-4.322-9.707-9.653v-157.6v-16.534v-9.653c0-5.331,4.346-9.653,9.707-9.653h28.641
	C437.298,86.111,441.644,90.433,441.644,95.764z"/>
<path style="fill:#DD5652;" d="M389.562,121.951h56.11c11.046,0,20,8.954,20,20v91.413c0,11.046-8.954,20-20,20h-56.11
	c-11.046,0-20-8.954-20-20v-91.413C369.562,130.905,378.516,121.951,389.562,121.951z"/>
<path style="fill:#F26152;" d="M423.942,253.364h-34.967c-10.722,0-19.414-8.643-19.414-19.306v-92.802
	c0-10.662,8.692-19.306,19.414-19.306h34.967c10.722,0,19.414,8.643,19.414,19.306v92.802
	C443.356,244.721,434.664,253.364,423.942,253.364z"/>
<path style="fill:#AFC1A9;" d="M284.061,277.339l-18.413-155.634c-2.242-18.947,12.645-35.594,31.83-35.594l0,0
	c19.185,0,34.072,16.648,31.83,35.594l-18.413,155.634c-0.8,6.766-6.567,11.865-13.417,11.865l0,0
	C290.628,289.204,284.862,284.105,284.061,277.339z"/>
<path style="fill:#D6E2D0;" d="M314.06,121.705l-18.413,155.634c-0.471,3.983-2.671,7.378-5.793,9.505
	c-3.122-2.127-5.322-5.522-5.793-9.505l-18.413-155.634c-1.934-16.344,8.883-30.968,24.206-34.679
	C305.177,90.738,315.994,105.361,314.06,121.705z"/>
<path style="fill:#FBCA5C;" d="M278.478,327.431h174.141c5.523,0,10,4.477,10,10v18.611c0,5.523-4.477,10-10,10H278.478
	c-5.523,0-10-4.477-10-10v-18.611C268.478,331.908,272.955,327.431,278.478,327.431z"/>
<path style="fill:#E5A854;" d="M452.912,327.431h-32.953c-1.825,6.083-2.822,12.568-2.822,19.306s0.997,13.222,2.822,19.306h32.953
	c5.361,0,9.707-4.322,9.707-9.653v-19.306C462.619,331.752,458.273,327.431,452.912,327.431z M440.363,353.976h-0.971
	c-4.021,0-7.28-3.241-7.28-7.24s3.259-7.24,7.28-7.24h0.971c4.021,0,7.28,3.241,7.28,7.24S444.385,353.976,440.363,353.976z"/>
<path style="fill:#F26152;" d="M101.004,331.313c0-21.904,17.856-39.66,39.883-39.66s39.883,17.757,39.883,39.66
	c0,21.904-17.856,39.66-39.883,39.66S101.004,353.217,101.004,331.313z"/>
<path style="fill:#FBCA5C;" d="M129.492,331.313c0,21.904-17.856,39.661-39.883,39.661s-39.883-17.757-39.883-39.661
	s17.856-39.66,39.883-39.66S129.492,309.409,129.492,331.313z M140.887,230.903c-22.027,0-39.883,17.757-39.883,39.66
	s17.856,39.66,39.883,39.66s39.883-17.757,39.883-39.66S162.914,230.903,140.887,230.903z"/>
<path style="fill:#D6E2D0;" d="M49.726,270.563c0-21.904,17.856-39.66,39.883-39.66s39.883,17.757,39.883,39.66
	s-17.856,39.66-39.883,39.66S49.726,292.467,49.726,270.563z"/>
<path style="fill:#AFC1A9;" d="M475.379,47.5H230.276h-14.561H36.621C20.538,47.5,7.5,60.465,7.5,76.458v118.247v14.479v168.441
	c0,15.993,13.038,28.958,29.121,28.958h179.364h14.021h245.372c16.083,0,29.121-12.965,29.121-28.958V76.458
	C504.5,60.465,491.462,47.5,475.379,47.5z M22.061,76.458c0-7.984,6.531-14.479,14.561-14.479h179.095v132.726H22.061V76.458z
	 M22.061,377.625V209.184h193.655v182.92H36.621C28.592,392.104,22.061,385.609,22.061,377.625z M489.939,377.625
	c0,7.984-6.531,14.479-14.561,14.479H230.276V61.979h245.103c8.029,0,14.561,6.495,14.561,14.479v301.167H489.939z"/>
<path d="M144.782,271.13v-1.134c0-4.143,3.357-7.5,7.5-7.5s7.5,3.357,7.5,7.5v1.134c0,4.143-3.357,7.5-7.5,7.5
	S144.782,275.272,144.782,271.13z M512,76.458v359.084C512,455.645,495.572,472,475.379,472H36.621C16.428,472,0,455.645,0,435.542
	V76.458C0,56.355,16.428,40,36.621,40h49.991c4.143,0,7.5,3.357,7.5,7.5s-3.357,7.5-7.5,7.5H36.621C24.699,55,15,64.626,15,76.458
	v117.986h53.92v-63.112c-13.909-3.365-24.268-15.872-24.268-30.742c0-17.441,14.251-31.632,31.768-31.632
	s31.768,14.19,31.768,31.632c0,14.87-10.358,27.377-24.268,30.742v63.112h62.656v-63.112c-13.909-3.365-24.268-15.872-24.268-30.742
	c0-17.441,14.251-31.632,31.768-31.632s31.768,14.19,31.768,31.632c0,14.87-10.358,27.377-24.268,30.742v63.112h53.92V55h-98.792
	c-4.143,0-7.5-3.357-7.5-7.5s3.357-7.5,7.5-7.5h358.675C495.572,40,512,56.355,512,76.458z M154.076,117.223
	c9.246,0,16.768-7.462,16.768-16.633s-7.521-16.632-16.768-16.632s-16.768,7.461-16.768,16.632S144.83,117.223,154.076,117.223z
	 M76.42,117.223c9.246,0,16.768-7.462,16.768-16.633S85.666,83.958,76.42,83.958s-16.768,7.461-16.768,16.632
	S67.174,117.223,76.42,117.223z M15,377.625c0,11.832,9.699,21.458,21.621,21.458h178.875V209.444H15V377.625z M497,76.458
	C497,64.626,487.301,55,475.379,55H230.496v344.083h174.345c4.143,0,7.5,3.357,7.5,7.5s-3.357,7.5-7.5,7.5H36.621
	c-8.08,0-15.558-2.619-21.621-7.049v28.508C15,447.374,24.699,457,36.621,457h438.758c11.922,0,21.621-9.626,21.621-21.458v-28.508
	c-6.063,4.43-13.541,7.049-21.621,7.049h-42.063c-4.143,0-7.5-3.357-7.5-7.5s3.357-7.5,7.5-7.5h42.063
	c11.922,0,21.621-9.626,21.621-21.458V76.458z M101.004,278.63c4.143,0,7.5-3.357,7.5-7.5v-1.134c0-4.143-3.357-7.5-7.5-7.5
	s-7.5,3.357-7.5,7.5v1.134C93.504,275.272,96.861,278.63,101.004,278.63z M152.282,346.619c4.143,0,7.5-3.357,7.5-7.5v-1.134
	c0-4.143-3.357-7.5-7.5-7.5s-7.5,3.357-7.5,7.5v1.134C144.782,343.262,148.14,346.619,152.282,346.619z M473.172,141.951v91.413
	c0,13.987-10.498,25.569-24.027,27.282v18.558c0,9.649-7.851,17.5-17.5,17.5h-28.056c-9.649,0-17.5-7.851-17.5-17.5v-18.558
	c-13.53-1.713-24.027-13.295-24.027-27.282v-91.413c0-13.987,10.497-25.569,24.027-27.282V96.111c0-9.649,7.851-17.5,17.5-17.5
	h28.056c9.649,0,17.5,7.851,17.5,17.5v18.558C462.674,116.382,473.172,127.964,473.172,141.951z M401.089,114.451h33.056v-18.34
	c0-1.379-1.121-2.5-2.5-2.5h-28.056c-1.379,0-2.5,1.121-2.5,2.5V114.451z M434.145,260.864h-33.056v18.34c0,1.379,1.121,2.5,2.5,2.5
	h28.056c1.379,0,2.5-1.121,2.5-2.5V260.864z M458.172,141.951c0-6.893-5.607-12.5-12.5-12.5h-56.11c-6.893,0-12.5,5.607-12.5,12.5
	v38.206h52.569c4.143,0,7.5,3.357,7.5,7.5s-3.357,7.5-7.5,7.5h-52.569v38.207c0,6.893,5.607,12.5,12.5,12.5h52.083h4.027
	c6.893,0,12.5-5.607,12.5-12.5v-4.422h-52.568c-4.143,0-7.5-3.357-7.5-7.5s3.357-7.5,7.5-7.5h52.568v-52.569h-52.568
	c-4.143,0-7.5-3.357-7.5-7.5s3.357-7.5,7.5-7.5h52.568L458.172,141.951L458.172,141.951z M276.613,278.221L258.2,122.586
	c-1.315-11.119,2.204-22.305,9.656-30.69c7.502-8.442,18.299-13.284,29.622-13.284s22.121,4.842,29.623,13.285
	c7.452,8.385,10.972,19.57,9.656,30.689L318.345,278.22c-1.247,10.538-10.218,18.484-20.865,18.484
	C286.831,296.704,277.86,288.758,276.613,278.221z M273.097,120.824l18.413,155.634c0.354,2.99,2.92,5.246,5.97,5.246
	c3.049,0,5.615-2.256,5.969-5.247l18.413-155.633c0.824-6.969-1.297-13.703-5.972-18.964c-4.658-5.242-11.369-8.249-18.41-8.249
	c-7.042,0-13.752,3.007-18.411,8.249C274.394,107.121,272.272,113.856,273.097,120.824z M297.479,135.425c4.143,0,7.5-3.357,7.5-7.5
	v-11.947c0-4.143-3.357-7.5-7.5-7.5s-7.5,3.357-7.5,7.5v11.947C289.979,132.067,293.337,135.425,297.479,135.425z M78.214,278.63
	c4.143,0,7.5-3.357,7.5-7.5v-1.134c0-4.143-3.357-7.5-7.5-7.5s-7.5,3.357-7.5,7.5v1.134C70.714,275.272,74.071,278.63,78.214,278.63
	z M470.119,337.083v19.306c0,9.458-7.719,17.153-17.207,17.153H278.479c-9.649,0-17.5-7.851-17.5-17.5v-18.611
	c0-9.649,7.851-17.5,17.5-17.5h174.434C462.4,319.931,470.119,327.625,470.119,337.083z M331.98,334.931h-53.502
	c-1.379,0-2.5,1.121-2.5,2.5v18.611c0,1.379,1.121,2.5,2.5,2.5h14.674v-9.231c0-4.143,3.357-7.5,7.5-7.5s7.5,3.357,7.5,7.5v9.231
	h23.828L331.98,334.931L331.98,334.931z M410.569,358.542c-0.62-3.891-0.933-7.837-0.933-11.806s0.313-7.915,0.932-11.806H346.98
	v23.611h23.828v-9.231c0-4.143,3.357-7.5,7.5-7.5s7.5,3.357,7.5,7.5v9.231h24.761V358.542z M455.119,337.431
	c0-1.379-1.121-2.5-2.5-2.5h-26.813c-0.777,3.869-1.17,7.821-1.17,11.806c0,3.983,0.393,7.936,1.171,11.806h26.812
	c1.379,0,2.5-1.121,2.5-2.5V337.431z M440.363,339.236h-0.971c-4.143,0-7.5,3.357-7.5,7.5s3.357,7.5,7.5,7.5h0.971
	c4.143,0,7.5-3.357,7.5-7.5S444.506,339.236,440.363,339.236z M101.004,346.619c4.143,0,7.5-3.357,7.5-7.5v-1.134
	c0-4.143-3.357-7.5-7.5-7.5s-7.5,3.357-7.5,7.5v1.134C93.504,343.262,96.861,346.619,101.004,346.619z M42.226,338.552
	c0-12.953,5.331-25.189,14.556-34.011c-8.968-8.586-14.556-20.644-14.556-33.978c0-26.005,21.256-47.161,47.383-47.161
	c9.431,0,18.229,2.758,25.62,7.504c7.642-4.922,16.434-7.504,25.659-7.504c26.127,0,47.383,21.156,47.383,47.161
	c0,13.081-5.295,25.222-14.523,34.007c9.207,8.817,14.523,21.033,14.523,33.981c0,26.005-21.256,47.161-47.383,47.161
	c-9.108,0-18.045-2.639-25.652-7.508c-7.393,4.749-16.192,7.508-25.627,7.508C63.481,385.713,42.226,364.557,42.226,338.552z
	 M136.992,270.563c0,10.942-3.764,21.025-10.069,29.036c4.315,2.057,9.046,3.124,13.965,3.124c5.985,0,11.829-1.632,16.898-4.72
	c9.696-5.905,15.484-16.163,15.484-27.44c0-17.733-14.526-32.161-32.383-32.161c-4.913,0-9.646,1.068-13.965,3.126
	C133.229,249.539,136.992,259.621,136.992,270.563z M126.92,367.591c4.313,2.057,9.039,3.122,13.968,3.122
	c17.856,0,32.383-14.428,32.383-32.161c0-9.895-4.566-19.167-12.327-25.252c-6.247,2.905-13.089,4.424-20.056,4.424
	c-3.126,0-6.201-0.296-9.197-0.878c3.307,6.346,5.146,13.427,5.292,20.762c0.007,0.125,0.01,0.251,0.01,0.378v1.134
	c0,0.127-0.003,0.253-0.01,0.378C136.772,350.076,133.046,359.811,126.92,367.591z M57.226,270.563
	c0,17.733,14.526,32.16,32.383,32.16s32.384-14.427,32.384-32.16s-14.527-32.161-32.384-32.161S57.226,252.83,57.226,270.563z
	 M57.226,338.552c0,17.733,14.526,32.161,32.383,32.161s32.384-14.428,32.384-32.161c0-9.625-4.291-18.666-11.771-24.806
	c-0.184-0.151-0.359-0.309-0.524-0.473c-6.102,2.854-12.912,4.45-20.088,4.45c-7.16,0-13.955-1.589-20.046-4.432
	C61.799,319.377,57.226,328.661,57.226,338.552z M78.214,346.619c4.143,0,7.5-3.357,7.5-7.5v-1.134c0-4.143-3.357-7.5-7.5-7.5
	s-7.5,3.357-7.5,7.5v1.134C70.714,343.262,74.071,346.619,78.214,346.619z"/>
<g>
</g>
<g>
</g>
<g>
</g>
<g>
</g>
<g>
</g>
<g>
</g>
<g>
</g>
<g>
</g>
<g>
</g>
<g>
</g>
<g>
</g>
<g>
</g>
<g>
</g>
<g>
</g>
<g>
</g>
</svg>
