<?xml version="1.0" encoding="UTF-8" standalone="no"?>
<!-- Created with Inkscape (http://www.inkscape.org/) -->

<svg
   xmlns:dc="http://purl.org/dc/elements/1.1/"
   xmlns:cc="http://creativecommons.org/ns#"
   xmlns:rdf="http://www.w3.org/1999/02/22-rdf-syntax-ns#"
   xmlns:svg="http://www.w3.org/2000/svg"
   xmlns="http://www.w3.org/2000/svg"
   xmlns:sodipodi="http://sodipodi.sourceforge.net/DTD/sodipodi-0.dtd"
   xmlns:inkscape="http://www.inkscape.org/namespaces/inkscape"
   version="1.1"
   id="svg4856"
   xml:space="preserve"
   width="790.6875"
   height="382.02264"
   viewBox="0 0 790.6875 382.02264"
   sodipodi:docname="bloop-architecture-diagram.svg"
   inkscape:version="0.92.2 5c3e80d, 2017-08-06"><metadata
     id="metadata4862"><rdf:RDF><cc:Work
         rdf:about=""><dc:format>image/svg+xml</dc:format><dc:type
           rdf:resource="http://purl.org/dc/dcmitype/StillImage" /><dc:title></dc:title></cc:Work></rdf:RDF></metadata><defs
     id="defs4860"><clipPath
       clipPathUnits="userSpaceOnUse"
       id="clipPath4874"><path
         d="M 0,0 H 612 V 792 H 0 Z"
         id="path4872"
         inkscape:connector-curvature="0" /></clipPath><clipPath
       clipPathUnits="userSpaceOnUse"
       id="clipPath4884"><path
         d="M 173.8687,495.925 H 424.4312 V 757.8 H 173.8687 Z"
         id="path4882"
         inkscape:connector-curvature="0" /></clipPath><clipPath
       clipPathUnits="userSpaceOnUse"
       id="clipPath4894"><path
         d="m 198.4656,535.0219 h 90.38438 v 83.84062 H 198.4656 Z"
         id="path4892"
         inkscape:connector-curvature="0" /></clipPath><clipPath
       clipPathUnits="userSpaceOnUse"
       id="clipPath4904"><path
         d="m 199.4656,536.0219 h 88.38438 v 81.84062 H 199.4656 Z"
         id="path4902"
         inkscape:connector-curvature="0" /></clipPath><clipPath
       clipPathUnits="userSpaceOnUse"
       id="clipPath4924"><path
         d="m 246.5138,651.7185 h 105.2724 v 50.68802 H 246.5138 Z"
         id="path4922"
         inkscape:connector-curvature="0" /></clipPath><clipPath
       clipPathUnits="userSpaceOnUse"
       id="clipPath4938"><path
         d="m 309.2656,535.0219 h 90.38438 v 83.84062 H 309.2656 Z"
         id="path4936"
         inkscape:connector-curvature="0" /></clipPath><clipPath
       clipPathUnits="userSpaceOnUse"
       id="clipPath4948"><path
         d="m 310.2656,536.0219 h 88.38438 v 81.84062 H 310.2656 Z"
         id="path4946"
         inkscape:connector-curvature="0" /></clipPath><clipPath
       clipPathUnits="userSpaceOnUse"
       id="clipPath4968"><path
         d="m 494.6578,525.8625 h 102 v 102 h -102 z"
         id="path4966"
         inkscape:connector-curvature="0" /></clipPath><clipPath
       clipPathUnits="userSpaceOnUse"
       id="clipPath4978"><path
         d="m 495.6578,526.8625 h 100 v 100 h -100 z"
         id="path4976"
         inkscape:connector-curvature="0" /></clipPath><clipPath
       clipPathUnits="userSpaceOnUse"
       id="clipPath4998"><path
         d="M 496.6578,571.0625 H 397.65 v 11.6 h 99.0078 z"
         id="path4996"
         inkscape:connector-curvature="0" /></clipPath><clipPath
       clipPathUnits="userSpaceOnUse"
       id="clipPath5004"><path
         d="M 0,0 H 612 V 792 H 0 Z"
         id="path5002"
         inkscape:connector-curvature="0" /></clipPath><clipPath
       clipPathUnits="userSpaceOnUse"
       id="clipPath5020"><path
         d="M 1.642184,525.8625 H 103.64218 v 102 H 1.642184 Z"
         id="path5018"
         inkscape:connector-curvature="0" /></clipPath><clipPath
       clipPathUnits="userSpaceOnUse"
       id="clipPath5030"><path
         d="m 2.642184,526.8625 h 99.999996 v 100 H 2.642184 Z"
         id="path5028"
         inkscape:connector-curvature="0" /></clipPath><clipPath
       clipPathUnits="userSpaceOnUse"
       id="clipPath5050"><path
         d="m 200.65,571.0625 h -99.0078 v 11.6 H 200.65 Z"
         id="path5048"
         inkscape:connector-curvature="0" /></clipPath><clipPath
       clipPathUnits="userSpaceOnUse"
       id="clipPath5056"><path
         d="M 0,0 H 612 V 792 H 0 Z"
         id="path5054"
         inkscape:connector-curvature="0" /></clipPath><clipPath
       clipPathUnits="userSpaceOnUse"
       id="clipPath5072"><path
         d="M 8.299996,459.7031 H 122 v 58.69688 H 8.299996 Z"
         id="path5070"
         inkscape:connector-curvature="0" /></clipPath><clipPath
       clipPathUnits="userSpaceOnUse"
       id="clipPath5106"><path
         d="m 495.6578,459.7031 h 113.7 v 58.69688 h -113.7 z"
         id="path5104"
         inkscape:connector-curvature="0" /></clipPath><clipPath
       clipPathUnits="userSpaceOnUse"
       id="clipPath5140"><path
         d="m 107.9656,576.9422 h 66.90313 v 24.82188 H 107.9656 Z"
         id="path5138"
         inkscape:connector-curvature="0" /></clipPath><clipPath
       clipPathUnits="userSpaceOnUse"
       id="clipPath5154"><path
         d="m 423.4312,576.9422 h 66.90313 v 24.82188 H 423.4312 Z"
         id="path5152"
         inkscape:connector-curvature="0" /></clipPath></defs><sodipodi:namedview
     pagecolor="#ffffff"
     bordercolor="#666666"
     borderopacity="1"
     objecttolerance="10"
     gridtolerance="10"
     guidetolerance="10"
     inkscape:pageopacity="0"
     inkscape:pageshadow="2"
     inkscape:window-width="2180"
     inkscape:window-height="1087"
     id="namedview4858"
     showgrid="false"
     inkscape:zoom="1.0757576"
     inkscape:cx="590.39258"
     inkscape:cy="272.787"
     inkscape:window-x="0"
     inkscape:window-y="0"
     inkscape:window-maximized="0"
     inkscape:current-layer="g4864" /><g
     id="g4864"
     inkscape:groupmode="layer"
     inkscape:label="Bloop architecture diagram"
     transform="matrix(1.3333333,0,0,-1.3333333,-3.5229099,1009.0666)"><g
       id="g4866" /><g
       id="g4878"><g
         id="g4880"
         clip-path="url(#clipPath4884)"><path
           d="m 231.8641,756.8 h 134.5718 c 16.3405,0 24.6374,0 33.4505,-2.793 9.6443,-3.5103 17.2416,-11.1075 20.7518,-20.7519 2.793,-8.8131 2.793,-17.11 2.793,-33.7038 v -145.631 c 0,-16.3404 0,-24.6373 -2.793,-33.4504 -3.5102,-9.6444 -11.1075,-17.2416 -20.7518,-20.7519 -8.8131,-2.793 -17.11,-2.793 -33.7039,-2.793 H 231.8641 c -16.3405,0 -24.6374,0 -33.4505,2.793 -9.6444,3.5103 -17.2416,11.1075 -20.7518,20.7519 -2.7931,8.8131 -2.7931,17.11 -2.7931,33.7038 v 145.631 c 0,16.3404 0,24.6373 2.7931,33.4504 3.5102,9.6444 11.1074,17.2416 20.7518,20.7519 8.8131,2.793 17.11,2.793 33.7039,2.793 z"
           style="fill:#0099f5;fill-opacity:1;fill-rule:nonzero;stroke:none"
           id="path4886"
           inkscape:connector-curvature="0" /></g></g><g
       id="g4888"><g
         id="g4890"
         clip-path="url(#clipPath4894)"><path
           d="m 219.7321,617.8625 h 47.8514 c 5.8103,0 8.7606,0 11.8944,-0.9931 3.4293,-1.2482 6.1308,-3.9497 7.3789,-7.379 0.9932,-3.1338 0.9932,-6.084 0.9932,-11.9845 v -41.2175 c 0,-5.8104 0,-8.7606 -0.9932,-11.8944 -1.2481,-3.4293 -3.9496,-6.1308 -7.3789,-7.379 -3.1338,-0.9931 -6.0841,-0.9931 -11.9845,-0.9931 h -47.7613 c -5.8103,0 -8.7606,0 -11.8944,0.9931 -3.4293,1.2482 -6.1307,3.9497 -7.3789,7.379 -0.9932,3.1338 -0.9932,6.084 -0.9932,11.9845 v 41.2175 c 0,5.8104 0,8.7606 0.9932,11.8944 1.2482,3.4293 3.9496,6.1308 7.3789,7.379 3.1338,0.9931 6.0841,0.9931 11.9845,0.9931 z"
           style="fill:#8ce0ff;fill-opacity:1;fill-rule:nonzero;stroke:none"
           id="path4896"
           inkscape:connector-curvature="0" /></g></g><g
       id="g4898"><g
         id="g4900"
         clip-path="url(#clipPath4904)"><g
           id="g4906"
           transform="translate(228,580)"><text
             transform="scale(1,-1)"
             style="font-variant:normal;font-weight:normal;font-size:15px;font-family:'Helvetica Neue';-inkscape-font-specification:HelveticaNeue;writing-mode:lr-tb;fill:#3b69aa;fill-opacity:1;fill-rule:nonzero;stroke:none"
             id="text4910"><tspan
               x="0 10.275 18.615 21.945 25.275 34.169998"
               y="0"
               sodipodi:role="line"
               id="tspan4908">Build </tspan></text>
</g><g
           id="g4912"
           transform="translate(224,563)"><text
             transform="scale(1,-1)"
             style="font-variant:normal;font-weight:normal;font-size:15px;font-family:'Helvetica Neue';-inkscape-font-specification:HelveticaNeue;writing-mode:lr-tb;fill:#3b69aa;fill-opacity:1;fill-rule:nonzero;stroke:none"
             id="text4916"><tspan
               x="0 9.7200003 17.775 22.77 30.27 38.325001"
               y="0"
               sodipodi:role="line"
               id="tspan4914">Server</tspan></text>
</g></g></g><g
       id="g4918"><g
         id="g4920"
         clip-path="url(#clipPath4924)"><g
           id="g4926"
           transform="translate(255,667)"><text
             transform="scale(1,-1)"
             style="font-variant:normal;font-weight:bold;font-size:28px;font-family:'Helvetica Neue';-inkscape-font-specification:HelveticaNeue-Bold;writing-mode:lr-tb;fill:#ffffff;fill-opacity:1;fill-rule:nonzero;stroke:none"
             id="text4930"><tspan
               x="0 19.712 26.936001 44.043999 61.152"
               y="0"
               sodipodi:role="line"
               id="tspan4928">Bloop</tspan></text>
</g></g></g><g
       id="g4932"><g
         id="g4934"
         clip-path="url(#clipPath4938)"><path
           d="m 330.5321,617.8625 h 47.8514 c 5.8104,0 8.7606,0 11.8944,-0.9931 3.4293,-1.2482 6.1308,-3.9497 7.379,-7.379 0.9931,-3.1338 0.9931,-6.084 0.9931,-11.9845 v -41.2175 c 0,-5.8104 0,-8.7606 -0.9931,-11.8944 -1.2482,-3.4293 -3.9497,-6.1308 -7.379,-7.379 -3.1338,-0.9931 -6.084,-0.9931 -11.9845,-0.9931 h -47.7613 c -5.8103,0 -8.7606,0 -11.8943,0.9931 -3.4294,1.2482 -6.1308,3.9497 -7.379,7.379 -0.9932,3.1338 -0.9932,6.084 -0.9932,11.9845 v 41.2175 c 0,5.8104 0,8.7606 0.9932,11.8944 1.2482,3.4293 3.9496,6.1308 7.379,7.379 3.1337,0.9931 6.084,0.9931 11.9844,0.9931 z"
           style="fill:#8ce0ff;fill-opacity:1;fill-rule:nonzero;stroke:none"
           id="path4940"
           inkscape:connector-curvature="0" /></g></g><g
       id="g4942"><g
         id="g4944"
         clip-path="url(#clipPath4948)"><g
           id="g4950"
           transform="translate(327,580)"><text
             transform="scale(1,-1)"
             style="font-variant:normal;font-weight:normal;font-size:15px;font-family:'Helvetica Neue';-inkscape-font-specification:HelveticaNeue;writing-mode:lr-tb;fill:#3b69aa;fill-opacity:1;fill-rule:nonzero;stroke:none"
             id="text4954"><tspan
               x="0 10.83 18.885 22.215 25.545 34.154999 42.494999 50.834999"
               y="0"
               sodipodi:role="line"
               id="tspan4952">Nailgun </tspan></text>
</g><g
           id="g4956"
           transform="translate(331,563)"><text
             transform="scale(1,-1)"
             style="font-variant:normal;font-weight:normal;font-size:15px;font-family:'Helvetica Neue';-inkscape-font-specification:HelveticaNeue;writing-mode:lr-tb;fill:#3b69aa;fill-opacity:1;fill-rule:nonzero;stroke:none"
             id="text4960"><tspan
               x="0 9.7200003 17.775 22.77 30.27 38.325001"
               y="0"
               sodipodi:role="line"
               id="tspan4958">Server</tspan></text>
</g></g></g><g
       id="g4962"><g
         id="g4964"
         clip-path="url(#clipPath4968)"><path
           d="m 581.0131,612.2178 c 19.5263,-19.5262 19.5263,-51.1844 0,-70.7106 -19.5262,-19.5263 -51.1844,-19.5263 -70.7106,0 -19.5262,19.5262 -19.5262,51.1844 0,70.7106 19.5262,19.5263 51.1844,19.5263 70.7106,0 z"
           style="fill:#00d1e5;fill-opacity:1;fill-rule:nonzero;stroke:none"
           id="path4970"
           inkscape:connector-curvature="0" /></g></g><g
       id="g4972"><g
         id="g4974"
         clip-path="url(#clipPath4978)"><g
           id="g4980"
           transform="translate(520,581)"><text
             transform="scale(1,-1)"
             style="font-variant:normal;font-weight:normal;font-size:16px;font-family:'Helvetica Neue';-inkscape-font-specification:HelveticaNeue;writing-mode:lr-tb;fill:#ffffff;fill-opacity:1;fill-rule:nonzero;stroke:none"
             id="text4984"><tspan
               x="0 10.96 19.856001 23.408001 26.959999 32 38.223999 41.776001 50.672001"
               y="0"
               sodipodi:role="line"
               id="tspan4982">Built-in </tspan></text>
</g><g
           id="g4986"
           transform="translate(533,563)"><text
             transform="scale(1,-1)"
             style="font-variant:normal;font-weight:normal;font-size:16px;font-family:'Helvetica Neue';-inkscape-font-specification:HelveticaNeue;writing-mode:lr-tb;fill:#ffffff;fill-opacity:1;fill-rule:nonzero;stroke:none"
             id="text4990"><tspan
               x="0 11.552 20.448"
               y="0"
               sodipodi:role="line"
               id="tspan4988">CLI</tspan></text>
</g></g></g><g
       id="g4992"><g
         id="g4994"
         clip-path="url(#clipPath4998)"><g
           id="g5000"
           clip-path="url(#clipPath5004)"><g
             id="g5006"
             transform="matrix(-1,0,0,1,495.6578,576.8625)"><path
               d="m 8.6,0 h 1 77.80782 1"
               style="fill:none;stroke:#023c64;stroke-width:2;stroke-linecap:butt;stroke-linejoin:miter;stroke-miterlimit:4;stroke-dasharray:none;stroke-opacity:1"
               id="path5008"
               inkscape:connector-curvature="0" /></g><path
             d="m 408.25,581.6625 -9.6,-4.8 9.6,-4.8 z"
             style="fill:#023c64;fill-opacity:1;fill-rule:nonzero;stroke:none"
             id="path5010"
             inkscape:connector-curvature="0" /><path
             d="m 486.0578,572.0625 9.6,4.8 -9.6,4.8 z"
             style="fill:#023c64;fill-opacity:1;fill-rule:nonzero;stroke:none"
             id="path5012"
             inkscape:connector-curvature="0" /></g></g></g><g
       id="g5014"><g
         id="g5016"
         clip-path="url(#clipPath5020)"><path
           d="m 87.99752,612.2178 c 19.52618,-19.5262 19.52618,-51.1844 0,-70.7106 -19.52621,-19.5263 -51.18446,-19.5263 -70.71068,0 -19.52621,19.5262 -19.52621,51.1844 0,70.7106 19.52622,19.5263 51.18447,19.5263 70.71068,0 z"
           style="fill:#00d1e5;fill-opacity:1;fill-rule:nonzero;stroke:none"
           id="path5022"
           inkscape:connector-curvature="0" /></g></g><g
       id="g5024"><g
         id="g5026"
         clip-path="url(#clipPath5030)"><g
           id="g5032"
           transform="translate(34,581)"><text
             transform="scale(1,-1)"
             style="font-variant:normal;font-weight:normal;font-size:16px;font-family:'Helvetica Neue';-inkscape-font-specification:HelveticaNeue;writing-mode:lr-tb;fill:#ffffff;fill-opacity:1;fill-rule:nonzero;stroke:none"
             id="text5036"><tspan
               x="0 10.96 19.856001 23.408001 26.959999 36.448002"
               y="0"
               sodipodi:role="line"
               id="tspan5034">Build </tspan></text>
</g><g
           id="g5038"
           transform="translate(28,563)"><text
             transform="scale(1,-1)"
             style="font-variant:normal;font-weight:normal;font-size:16px;font-family:'Helvetica Neue';-inkscape-font-specification:HelveticaNeue;writing-mode:lr-tb;fill:#ffffff;fill-opacity:1;fill-rule:nonzero;stroke:none"
             id="text5042"><tspan
               x="0 11.552 15.104 18.656 27.247999 36.144001 41.183998"
               y="0"
               sodipodi:role="line"
               id="tspan5040">Clients</tspan></text>
</g></g></g><g
       id="g5044"><g
         id="g5046"
         clip-path="url(#clipPath5050)"><g
           id="g5052"
           clip-path="url(#clipPath5056)"><g
             id="g5058"
             transform="matrix(-1,0,0,1,199.65,576.8625)"><path
               d="m 8.6,0 h 1 77.80782 1"
               style="fill:none;stroke:#023c64;stroke-width:2;stroke-linecap:butt;stroke-linejoin:miter;stroke-miterlimit:4;stroke-dasharray:none;stroke-opacity:1"
               id="path5060"
               inkscape:connector-curvature="0" /></g><path
             d="m 112.2422,581.6625 -9.6,-4.8 9.6,-4.8 z"
             style="fill:#023c64;fill-opacity:1;fill-rule:nonzero;stroke:none"
             id="path5062"
             inkscape:connector-curvature="0" /><path
             d="m 190.05,572.0625 9.6,4.8 -9.6,4.8 z"
             style="fill:#023c64;fill-opacity:1;fill-rule:nonzero;stroke:none"
             id="path5064"
             inkscape:connector-curvature="0" /></g></g></g><g
       id="g5066"><g
         id="g5068"
         clip-path="url(#clipPath5072)"><g
           id="g5074"
           transform="translate(12,503)"><text
             transform="scale(1,-1)"
             style="font-variant:normal;font-weight:normal;font-size:13px;font-family:'Helvetica Neue';-inkscape-font-specification:HelveticaNeue;writing-mode:lr-tb;fill:#000000;fill-opacity:1;fill-rule:nonzero;stroke:none"
             id="text5078"><tspan
               x="0 8.9049997 16.132999 19.018999 21.905001 29.614 33.228001 39.247002 46.709 54.171001 57.056999"
               y="0"
               sodipodi:role="line"
               id="tspan5076">Build Tools</tspan></text>
<text
             transform="matrix(1,0,0,-1,63.557,0)"
             style="font-variant:normal;font-weight:normal;font-size:13px;font-family:'Helvetica Neue';-inkscape-font-specification:HelveticaNeue;writing-mode:lr-tb;fill:#000000;fill-opacity:1;fill-rule:nonzero;stroke:none"
             id="text5082"><tspan
               x="0"
               y="0"
               id="tspan5080"></tspan></text>
</g><g
           id="g5084"
           transform="translate(12,488)"><text
             transform="scale(1,-1)"
             style="font-variant:normal;font-weight:normal;font-size:13px;font-family:'Helvetica Neue';-inkscape-font-specification:HelveticaNeue;writing-mode:lr-tb;fill:#000000;fill-opacity:1;fill-rule:nonzero;stroke:none"
             id="text5088"><tspan
               x="0 7.9429998 15.652 18.538 22.632999 30.094999 34.424 40.924 44.537998 48.867001 52.480999 55.848 65 72.943001"
               y="0"
               sodipodi:role="line"
               id="tspan5086">Editors / IDEs</tspan></text>
<text
             transform="matrix(1,0,0,-1,79.443,0)"
             style="font-variant:normal;font-weight:normal;font-size:13px;font-family:'Helvetica Neue';-inkscape-font-specification:HelveticaNeue;writing-mode:lr-tb;fill:#000000;fill-opacity:1;fill-rule:nonzero;stroke:none"
             id="text5092"><tspan
               x="0"
               y="0"
               id="tspan5090"></tspan></text>
</g><g
           id="g5094"
           transform="translate(12,473)"><text
             transform="scale(1,-1)"
             style="font-variant:normal;font-weight:normal;font-size:13px;font-family:'Helvetica Neue';-inkscape-font-specification:HelveticaNeue;writing-mode:lr-tb;fill:#000000;fill-opacity:1;fill-rule:nonzero;stroke:none"
             id="text5098"><tspan
               x="0 3.3670001 10.595 15.652 22.879999 30.341999 37.57 44.07 51.050999 54.665001 58.759998 66.222 73.683998 76.57 79.456001 86.683998"
               y="0"
               sodipodi:role="line"
               id="tspan5096">In-house tooling</tspan></text>
</g></g></g><g
       id="g5100"><g
         id="g5102"
         clip-path="url(#clipPath5106)"><g
           id="g5108"
           transform="translate(500,503)"><text
             transform="scale(1,-1)"
             style="font-variant:normal;font-weight:normal;font-size:13px;font-family:'Helvetica Neue';-inkscape-font-specification:HelveticaNeue;writing-mode:lr-tb;fill:#000000;fill-opacity:1;fill-rule:nonzero;stroke:none"
             id="text5112"><tspan
               x="0 7.9429998 15.171 22.879999 26.493999 33.722 40.222 47.202999 51.532001"
               y="0"
               sodipodi:role="line"
               id="tspan5110">End users</tspan></text>
</g><g
           id="g5118"
           transform="translate(500,488)"><text
             transform="scale(1,-1)"
             style="font-variant:normal;font-weight:normal;font-size:13px;font-family:'Helvetica Neue';-inkscape-font-specification:HelveticaNeue;writing-mode:lr-tb;fill:#000000;fill-opacity:1;fill-rule:nonzero;stroke:none"
             id="text5122"><tspan
               x="0 8.9049997 16.132999 19.018999 21.905001 29.614 33.228001 39.247002 46.709 54.171001 57.056999"
               y="0"
               sodipodi:role="line"
               id="tspan5120">Build Tools</tspan></text>
<text
             transform="matrix(1,0,0,-1,63.557,0)"
             style="font-variant:normal;font-weight:normal;font-size:13px;font-family:'Helvetica Neue';-inkscape-font-specification:HelveticaNeue;writing-mode:lr-tb;fill:#000000;fill-opacity:1;fill-rule:nonzero;stroke:none"
             id="text5126"><tspan
               x="0"
               y="0"
               id="tspan5124"></tspan></text>
</g><g
           id="g5128"
           transform="translate(500,473)"><text
             transform="scale(1,-1)"
             style="font-variant:normal;font-weight:normal;font-size:13px;font-family:'Helvetica Neue';-inkscape-font-specification:HelveticaNeue;writing-mode:lr-tb;fill:#000000;fill-opacity:1;fill-rule:nonzero;stroke:none"
             id="text5132"><tspan
               x="0 3.3670001 10.595 15.652 22.879999 30.341999 37.57 44.07 51.050999 54.665001 58.759998 66.222 73.683998 76.57 79.456001 86.683998"
               y="0"
               sodipodi:role="line"
               id="tspan5130">In-house tooling</tspan></text>
</g></g></g><g
       id="g5134"><g
         id="g5136"
         clip-path="url(#clipPath5140)"><g
           id="g5142"
           transform="translate(112,586)"><text
             transform="scale(1,-1)"
             style="font-variant:normal;font-weight:normal;font-size:13px;font-family:'Helvetica Neue';-inkscape-font-specification:HelveticaNeue;writing-mode:lr-tb;fill:#042842;fill-opacity:1;fill-rule:nonzero;stroke:none"
             id="text5146"><tspan
               x="0 2.8859999 10.114 14.209 21.190001 28.652 32.980999 39.962002 44.056999 51.037998"
               y="0"
               sodipodi:role="line"
               id="tspan5144">integrates</tspan></text>
</g></g></g><g
       id="g5148"><g
         id="g5150"
         clip-path="url(#clipPath5154)"><g
           id="g5156"
           transform="translate(427,586)"><text
             transform="scale(1,-1)"
             style="font-variant:normal;font-weight:normal;font-size:13px;font-family:'Helvetica Neue';-inkscape-font-specification:HelveticaNeue;writing-mode:lr-tb;fill:#042842;fill-opacity:1;fill-rule:nonzero;stroke:none"
             id="text5160"><tspan
               x="0 2.8859999 10.114 14.209 21.190001 28.652 32.980999 39.962002 44.056999 51.037998"
               y="0"
               sodipodi:role="line"
               id="tspan5158">integrates</tspan></text>
</g></g></g></g></svg>