<?xml version="1.0" encoding="UTF-8" standalone="no"?>
<!DOCTYPE svg PUBLIC "-//W3C//DTD SVG 1.1//EN"
 "http://www.w3.org/Graphics/SVG/1.1/DTD/svg11.dtd">
<!-- Generated by graphviz version 2.40.1 (20161225.0304)
 -->
<!-- Title: project Pages: 1 -->
<svg width="152pt" height="98pt"
 viewBox="0.00 0.00 152.00 98.00" xmlns="http://www.w3.org/2000/svg" xmlns:xlink="http://www.w3.org/1999/xlink">
<g id="graph0" class="graph" transform="scale(1 1) rotate(0) translate(4 94)">
<title>project</title>
<polygon fill="#ffffff" stroke="transparent" points="-4,4 -4,-94 148,-94 148,4 -4,4"/>
<!-- b -->
<g id="node1" class="node">
<title>b</title>
<ellipse fill="none" stroke="#000000" cx="27" cy="-72" rx="27" ry="18"/>
<text text-anchor="middle" x="27" y="-67.8" font-family="Times,serif" font-size="14.00" fill="#000000">b</text>
</g>
<!-- a -->
<g id="node2" class="node">
<title>a</title>
<ellipse fill="none" stroke="#000000" cx="117" cy="-45" rx="27" ry="18"/>
<text text-anchor="middle" x="117" y="-40.8" font-family="Times,serif" font-size="14.00" fill="#000000">a</text>
</g>
<!-- b&#45;&gt;a -->
<g id="edge1" class="edge">
<title>b&#45;&gt;a</title>
<path fill="none" stroke="#000000" d="M52.07,-64.479C61.5102,-61.6469 72.4169,-58.3749 82.564,-55.3308"/>
<polygon fill="#000000" stroke="#000000" points="83.803,-58.6133 92.3755,-52.3874 81.7915,-51.9085 83.803,-58.6133"/>
</g>
<!-- c -->
<g id="node3" class="node">
<title>c</title>
<ellipse fill="none" stroke="#000000" cx="27" cy="-18" rx="27" ry="18"/>
<text text-anchor="middle" x="27" y="-13.8" font-family="Times,serif" font-size="14.00" fill="#000000">c</text>
</g>
<!-- c&#45;&gt;a -->
<g id="edge2" class="edge">
<title>c&#45;&gt;a</title>
<path fill="none" stroke="#000000" d="M52.07,-25.521C61.5102,-28.3531 72.4169,-31.6251 82.564,-34.6692"/>
<polygon fill="#000000" stroke="#000000" points="81.7915,-38.0915 92.3755,-37.6126 83.803,-31.3867 81.7915,-38.0915"/>
</g>
</g>
</svg>
