<svg xmlns="http://www.w3.org/2000/svg" width="790.688" height="382.023" viewBox="0 0 790.688 382.023"><defs><clipPath clipPathUnits="userSpaceOnUse" id="a"><path d="M173.869 495.925H424.43V757.8H173.87z"/></clipPath><clipPath clipPathUnits="userSpaceOnUse" id="b"><path d="M198.466 535.022h90.384v83.84h-90.384z"/></clipPath><clipPath clipPathUnits="userSpaceOnUse" id="c"><path d="M199.466 536.022h88.384v81.84h-88.384z"/></clipPath><clipPath clipPathUnits="userSpaceOnUse" id="d"><path d="M246.514 651.718h105.272v50.689H246.514z"/></clipPath><clipPath clipPathUnits="userSpaceOnUse" id="e"><path d="M309.266 535.022h90.384v83.84h-90.384z"/></clipPath><clipPath clipPathUnits="userSpaceOnUse" id="f"><path d="M310.266 536.022h88.384v81.84h-88.384z"/></clipPath><clipPath clipPathUnits="userSpaceOnUse" id="g"><path d="M494.658 525.862h102v102h-102z"/></clipPath><clipPath clipPathUnits="userSpaceOnUse" id="h"><path d="M495.658 526.862h100v100h-100z"/></clipPath><clipPath clipPathUnits="userSpaceOnUse" id="i"><path d="M496.658 571.063H397.65v11.6h99.008z"/></clipPath><clipPath clipPathUnits="userSpaceOnUse" id="j"><path d="M0 0h612v792H0z"/></clipPath><clipPath clipPathUnits="userSpaceOnUse" id="k"><path d="M1.642 525.862h102v102h-102z"/></clipPath><clipPath clipPathUnits="userSpaceOnUse" id="l"><path d="M2.642 526.862h100v100h-100z"/></clipPath><clipPath clipPathUnits="userSpaceOnUse" id="m"><path d="M200.65 571.063h-99.008v11.6h99.008z"/></clipPath><clipPath clipPathUnits="userSpaceOnUse" id="n"><path d="M0 0h612v792H0z"/></clipPath><clipPath clipPathUnits="userSpaceOnUse" id="o"><path d="M8.3 459.703H122V518.4H8.3z"/></clipPath><clipPath clipPathUnits="userSpaceOnUse" id="p"><path d="M495.658 459.703h113.7V518.4h-113.7z"/></clipPath><clipPath clipPathUnits="userSpaceOnUse" id="q"><path d="M107.966 576.942h66.903v24.822h-66.903z"/></clipPath><clipPath clipPathUnits="userSpaceOnUse" id="r"><path d="M423.431 576.942h66.903v24.822h-66.903z"/></clipPath></defs><g clip-path="url(#a)" transform="matrix(1.33333 0 0 -1.33333 -3.523 1009.067)"><path d="M231.864 756.8h134.572c16.34 0 24.637 0 33.45-2.793a34.721 34.721 0 0020.752-20.752c2.793-8.813 2.793-17.11 2.793-33.704v-145.63c0-16.341 0-24.638-2.793-33.451a34.721 34.721 0 00-20.752-20.752c-8.813-2.793-17.11-2.793-33.704-2.793H231.864c-16.34 0-24.637 0-33.45 2.793a34.72 34.72 0 00-20.752 20.752c-2.793 8.813-2.793 17.11-2.793 33.704v145.63c0 16.341 0 24.638 2.793 33.451a34.72 34.72 0 0020.752 20.752c8.813 2.793 17.11 2.793 33.704 2.793z" fill="#0099f5"/></g><g clip-path="url(#b)" transform="matrix(1.33333 0 0 -1.33333 -3.523 1009.067)"><path d="M219.732 617.862h47.852c5.81 0 8.76 0 11.894-.993a12.346 12.346 0 007.379-7.379c.993-3.133.993-6.084.993-11.984v-41.218c0-5.81 0-8.76-.993-11.894a12.346 12.346 0 00-7.38-7.379c-3.133-.993-6.083-.993-11.984-.993h-47.76c-5.811 0-8.762 0-11.895.993a12.346 12.346 0 00-7.38 7.379c-.992 3.134-.992 6.084-.992 11.984v41.218c0 5.81 0 8.76.993 11.894a12.346 12.346 0 007.379 7.38c3.134.992 6.084.992 11.984.992z" fill="#8ce0ff"/></g><g clip-path="url(#c)" transform="matrix(1.33333 0 0 -1.33333 -3.523 1009.067)" font-weight="400" font-size="15" font-family="Helvetica Neue" fill="#3b69aa"><text transform="matrix(1 0 0 -1 228 580)" style="-inkscape-font-specification:HelveticaNeue"><tspan x="0 10.275 18.615 21.945 25.275 34.169998" y="0">Build</tspan></text><text transform="matrix(1 0 0 -1 224 563)" style="-inkscape-font-specification:HelveticaNeue"><tspan x="0 9.7200003 17.775 22.77 30.27 38.325001" y="0">Server</tspan></text></g><g clip-path="url(#d)" transform="matrix(1.33333 0 0 -1.33333 -3.523 1009.067)"><text transform="matrix(1 0 0 -1 255 667)" style="-inkscape-font-specification:HelveticaNeue-Bold" font-weight="700" font-size="28" font-family="Helvetica Neue" fill="#fff"><tspan x="0 19.712 26.936001 44.043999 61.152" y="0">Bloop</tspan></text></g><g clip-path="url(#e)" transform="matrix(1.33333 0 0 -1.33333 -3.523 1009.067)"><path d="M330.532 617.862h47.852c5.81 0 8.76 0 11.894-.993a12.347 12.347 0 007.379-7.379c.993-3.133.993-6.084.993-11.984v-41.218c0-5.81 0-8.76-.993-11.894a12.347 12.347 0 00-7.38-7.379c-3.133-.993-6.083-.993-11.984-.993h-47.76c-5.811 0-8.762 0-11.895.993a12.346 12.346 0 00-7.38 7.379c-.992 3.134-.992 6.084-.992 11.984v41.218c0 5.81 0 8.76.993 11.894a12.346 12.346 0 007.379 7.38c3.134.992 6.084.992 11.984.992z" fill="#8ce0ff"/></g><g clip-path="url(#f)" transform="matrix(1.33333 0 0 -1.33333 -3.523 1009.067)" font-weight="400" font-size="15" font-family="Helvetica Neue" fill="#3b69aa"><text transform="matrix(1 0 0 -1 327 580)" style="-inkscape-font-specification:HelveticaNeue"><tspan x="0 10.83 18.885 22.215 25.545 34.154999 42.494999 50.834999" y="0">Nailgun</tspan></text><text transform="matrix(1 0 0 -1 331 563)" style="-inkscape-font-specification:HelveticaNeue"><tspan x="0 9.7200003 17.775 22.77 30.27 38.325001" y="0">Server</tspan></text></g><g clip-path="url(#g)" transform="matrix(1.33333 0 0 -1.33333 -3.523 1009.067)"><path d="M581.013 612.218c19.526-19.526 19.526-51.185 0-70.71-19.526-19.527-51.184-19.527-70.71 0-19.527 19.525-19.527 51.184 0 70.71 19.526 19.526 51.184 19.526 70.71 0z" fill="#00d1e5"/></g><g clip-path="url(#h)" transform="matrix(1.33333 0 0 -1.33333 -3.523 1009.067)" font-weight="400" font-size="16" font-family="Helvetica Neue" fill="#fff"><text transform="matrix(1 0 0 -1 520 581)" style="-inkscape-font-specification:HelveticaNeue"><tspan x="0 10.96 19.856001 23.408001 26.959999 32 38.223999 41.776001 50.672001" y="0">Built-in</tspan></text><text transform="matrix(1 0 0 -1 533 563)" style="-inkscape-font-specification:HelveticaNeue"><tspan x="0 11.552 20.448" y="0">CLI</tspan></text></g><g clip-path="url(#i)" transform="matrix(1.33333 0 0 -1.33333 -3.523 1009.067)"><g clip-path="url(#j)"><path d="M487.058 576.862H407.25" fill="none" stroke="#023c64" stroke-width="2"/><path d="M408.25 581.663l-9.6-4.8 9.6-4.8zm77.808-9.6l9.6 4.8-9.6 4.8z" fill="#023c64"/></g></g><g clip-path="url(#k)" transform="matrix(1.33333 0 0 -1.33333 -3.523 1009.067)"><path d="M87.998 612.218c19.526-19.526 19.526-51.185 0-70.71-19.527-19.527-51.185-19.527-70.711 0-19.526 19.525-19.526 51.184 0 70.71 19.526 19.526 51.184 19.526 70.71 0z" fill="#00d1e5"/></g><g clip-path="url(#l)" transform="matrix(1.33333 0 0 -1.33333 -3.523 1009.067)" font-weight="400" font-size="16" font-family="Helvetica Neue" fill="#fff"><text transform="matrix(1 0 0 -1 34 581)" style="-inkscape-font-specification:HelveticaNeue"><tspan x="0 10.96 19.856001 23.408001 26.959999 36.448002" y="0">Build</tspan></text><text transform="matrix(1 0 0 -1 28 563)" style="-inkscape-font-specification:HelveticaNeue"><tspan x="0 11.552 15.104 18.656 27.247999 36.144001 41.183998" y="0">Clients</tspan></text></g><g clip-path="url(#m)" transform="matrix(1.33333 0 0 -1.33333 -3.523 1009.067)"><g clip-path="url(#n)"><path d="M191.05 576.862h-79.808" fill="none" stroke="#023c64" stroke-width="2"/><path d="M112.242 581.663l-9.6-4.8 9.6-4.8zm77.808-9.6l9.6 4.8-9.6 4.8z" fill="#023c64"/></g></g><g clip-path="url(#o)" transform="matrix(1.33333 0 0 -1.33333 -3.523 1009.067)" font-weight="400" font-size="13" font-family="Helvetica Neue"><text transform="matrix(1 0 0 -1 12 503)" style="-inkscape-font-specification:HelveticaNeue"><tspan x="0 8.9049997 16.132999 19.018999 21.905001 29.614 33.228001 39.247002 46.709 54.171001 57.056999" y="0">Build Tools</tspan></text><text transform="matrix(1 0 0 -1 12 488)" style="-inkscape-font-specification:HelveticaNeue"><tspan x="0 7.9429998 15.652 18.538 22.632999 30.094999 34.424 40.924 44.537998 48.867001 52.480999 55.848 65 72.943001" y="0">Editors / IDEs</tspan></text><text transform="matrix(1 0 0 -1 12 473)" style="-inkscape-font-specification:HelveticaNeue"><tspan x="0 3.3670001 10.595 15.652 22.879999 30.341999 37.57 44.07 51.050999 54.665001 58.759998 66.222 73.683998 76.57 79.456001 86.683998" y="0">In-house tooling</tspan></text></g><g clip-path="url(#p)" transform="matrix(1.33333 0 0 -1.33333 -3.523 1009.067)" font-weight="400" font-size="13" font-family="Helvetica Neue"><text transform="matrix(1 0 0 -1 500 503)" style="-inkscape-font-specification:HelveticaNeue"><tspan x="0 7.9429998 15.171 22.879999 26.493999 33.722 40.222 47.202999 51.532001" y="0">End users</tspan></text><text transform="matrix(1 0 0 -1 500 488)" style="-inkscape-font-specification:HelveticaNeue"><tspan x="0 8.9049997 16.132999 19.018999 21.905001 29.614 33.228001 39.247002 46.709 54.171001 57.056999" y="0">Build Tools</tspan></text><text transform="matrix(1 0 0 -1 500 473)" style="-inkscape-font-specification:HelveticaNeue"><tspan x="0 3.3670001 10.595 15.652 22.879999 30.341999 37.57 44.07 51.050999 54.665001 58.759998 66.222 73.683998 76.57 79.456001 86.683998" y="0">In-house tooling</tspan></text></g><g clip-path="url(#q)" transform="matrix(1.33333 0 0 -1.33333 -3.523 1009.067)"><text transform="matrix(1 0 0 -1 112 586)" style="-inkscape-font-specification:HelveticaNeue" font-weight="400" font-size="13" font-family="Helvetica Neue" fill="#042842"><tspan x="0 2.8859999 10.114 14.209 21.190001 28.652 32.980999 39.962002 44.056999 51.037998" y="0">integrates</tspan></text></g><g clip-path="url(#r)" transform="matrix(1.33333 0 0 -1.33333 -3.523 1009.067)"><text transform="matrix(1 0 0 -1 427 586)" style="-inkscape-font-specification:HelveticaNeue" font-weight="400" font-size="13" font-family="Helvetica Neue" fill="#042842"><tspan x="0 2.8859999 10.114 14.209 21.190001 28.652 32.980999 39.962002 44.056999 51.037998" y="0">integrates</tspan></text></g></svg>