<svg xmlns="http://www.w3.org/2000/svg" width="280.363" height="193.29" viewBox="0 0 74.179 51.141" version="1.1" id="svg8"><g id="layer1" transform="translate(-43.728 -12.876)"><g id="g161" transform="translate(47.124 26.877) scale(.13856)"><g id="Layer_3" fill="#380d09"><path id="path139" d="M17.417 106.458l-13.25 12s6.5 8.125 15.125 13 13.381 4.508 23.065 4.379c9.31 0 18.81-1.754 26.435-8.504s9.066-8.6 9.033-17.112c-.016-3.994-1.075-12.813-5.908-18.513-5.466-6.445-14.781-9.566-14.781-9.566s-28.53-7.155-25.594-17.059c1.232-4.156 7.818-5.726 14.292-4.583 8.192 1.444 16.474 6.371 16.474 6.371l11.577-11.33s-5.274-6.198-13.468-10.208c-6.064-2.967-14.428-4.059-19.783-4.078-12.592-.047-28.335 11.197-30.217 22.828-1.375 8.5 1.383 15.676 7.625 21.125 7.875 6.875 13.478 7.771 13.478 7.771s25.123 6.469 25.123 14.286c0 7.817-6.101 10.692-15.851 10.817s-23.375-11.624-23.375-11.624z"/><path id="path141" d="M198.508 45.484l.2 18.199h10.4l.1 53.9s1.801 6.2 6.5 10.8c6.065 5.937 12.4 7.454 12.4 7.454h20.399l.101-18.554-11-.1s-2.401.101-5.1-2.5c-2.801-2.7-2.7-6.2-2.7-6.2l.2-44.9h20l.1-18.2-20-.1-.2-35.2h-20.8l.2 35.4h-10.8z"/><path id="path143" d="M156.667 49.833c-12.529-2.767-25.25-1.375-33.375 3.375l10.625-43.125-21.188-5.188-30.125 121.438 21 6.062L106.5 120.5c6.167 11.666 13.194 17.279 26.667 20.333 25 5.667 47.312-11.762 53.334-38.667 5.166-23.083-10.584-48.083-29.834-52.333zm6.089 67.261l-30.152 8.302-22.49-22.776 7.666-31.077 30.155-8.302 22.487 22.776z"/></g></g><g id="g9544" transform="translate(-82.568 21.753)" stroke-width=".071"><path d="M151.396 4.05c-1.954-.365-3.414-1.621-4.093-3.525-.15-.42-.268-.645-.347-.66-.186-.038-.517.127-.706.353-.295.35-.345.686-.35 2.314l-.004 1.516-.993.02-.994.02-.356-.48c-.468-.63-1.373-1.484-1.832-1.731-1.185-.636-2.144-.055-2.802 1.695l-.192.511h-1.745l-.077-.3c-.133-.515-.154-.573-.32-.905-.202-.401-.575-.736-.944-.847-.237-.07-.331-.065-.6.038-.542.207-.833.618-1.314 1.858-.062.158-.073.16-1.204.14l-1.141-.019-.068-.211c-.038-.117-.07-.973-.074-1.904-.004-1.343.02-1.83.12-2.362.171-.912.556-2.042.914-2.68.403-.719 1.262-1.575 1.928-1.923.277-.144.538-.262.58-.262.04 0 .283.41.539.912.707 1.39 1.208 1.851 2.018 1.853.427.001.788-.12 1.24-.419.363-.239 1.077-.957 1.077-1.083 0-.112-.081-.073-.48.228-1.038.784-1.934.967-2.481.507-.243-.204-.992-1.43-1.456-2.381-.531-1.09-.412-1.51.564-1.974.581-.277 1.402-.535 2.408-.757.587-.13.936-.156 2.08-.16 1.23-.005 1.442.013 2.005.161 1.34.354 2.209.838 3.319 1.845.765.695 1.565 1.357 1.774 1.468.14.073.172.05.36-.254a5.457 5.457 0 0 1 1.255-1.436c.252-.199.448-.396.433-.439-.014-.042-.213-.223-.443-.402-.23-.179-.429-.38-.442-.447-.014-.072.12-.265.334-.479.323-.323.38-.353.586-.312.387.078.804.317 1.258.722.303.27.47.373.55.34.288-.118 1.752-.12 2.342-.001 1.566.313 2.956 1.5 3.441 2.937.269.795.292.77-.727.77h-.876l-.232-.471c-.285-.58-.768-1.074-1.303-1.336-.334-.163-.522-.203-1.067-.227-.415-.018-.69 0-.737.047-.044.044-.07.31-.061.632.044 1.668-1.06 3.652-2.477 4.452-.553.312-.59.367-.482.73.161.545.597 1.278 1 1.682.465.465 1.228.87 1.86.986.803.148 2.023-.024 2.853-.403.65-.297.637-.269.637-1.365 0-.655-.027-.99-.085-1.047-.06-.06-.481-.085-1.445-.085h-1.361v-1.48h4.653v4.132l-.2.316c-.404.638-1.152 1.113-2.198 1.398-1.034.281-2.477.359-3.419.183zm-6.346-7.097c.31-.086.882-.602.882-.796 0-.134-.454-.354-.608-.295-.053.021-.097.12-.097.22 0 .259-.314.527-.615.527-.174 0-.3-.058-.448-.206-.233-.233-.249-.331-.106-.673.119-.284.08-.332-.367-.465-.39-.116-.47-.039-.464.448.006.443.155.757.466.99.426.317.842.394 1.357.25zm4.98-1.768c.04-.076.055-.157.033-.18-.057-.057-.324.197-.324.309 0 .13.2.04.29-.13zm37.456 8.897c-1.26-.228-2.299-.995-2.82-2.081-.355-.743-.469-1.383-.424-2.395.058-1.315.373-2.115 1.14-2.896 1.41-1.436 4.192-1.453 5.61-.035.647.647 1.05 1.671 1.162 2.954l.05.575-3.023.018-3.023.019.01.235c.007.13.113.44.236.69.4.815 1.12 1.225 2.151 1.225.737 0 1.12-.154 1.605-.648l.405-.414.67.361c.368.198.67.392.67.43 0 .136-.414.665-.824 1.056-.457.434-.773.62-1.363.798-.46.139-1.72.2-2.231.108zm2.645-5.239c.152-.183-.169-.989-.53-1.33-.48-.456-1.37-.614-2.083-.37-.574.195-1.078.754-1.287 1.426-.109.352-.028.367 1.971.367 1.445 0 1.869-.02 1.929-.093zm-15.565 5.133c-1.194-.333-2.045-1.229-2.413-2.538-.213-.76-.215-2.072-.004-2.864.328-1.23 1.038-2.192 1.941-2.633 1.133-.552 2.424-.466 3.324.22.194.15.356.227.393.19.035-.035.072-.92.082-1.965l.02-1.901.899-.02.899-.02-.018 5.696-.018 5.696h-1.763l-.022-.3c-.026-.37-.141-.388-.494-.078-.474.416-.951.582-1.74.603-.467.013-.834-.016-1.086-.086zm1.873-1.55c.496-.146.94-.559 1.193-1.106.196-.425.205-.488.203-1.432-.002-.85-.023-1.041-.157-1.375-.336-.84-.936-1.268-1.78-1.268-1.31 0-2.13 1.138-2.024 2.811.114 1.786 1.189 2.78 2.565 2.37zm-10.87 1.488c-.756-.188-1.353-.63-1.693-1.255-.169-.309-.209-.478-.232-.973-.037-.799.14-1.292.649-1.8.519-.518 1.004-.72 2.404-.996 1.943-.383 2.32-.554 2.32-1.05 0-.523-.486-.883-1.258-.933-.94-.06-1.704.308-1.883.908l-.083.275h-.858c-.472 0-.875-.017-.896-.037-.02-.02-.007-.2.03-.401.262-1.442 1.546-2.165 3.686-2.076 1.67.07 2.543.467 2.935 1.333l.167.37.005 3.032c.004 2.639.02 3.066.12 3.297l.115.264h-2.038v-.17c0-.242-.07-.394-.181-.394-.053 0-.295.11-.54.243-.779.429-1.907.576-2.77.363zm2.405-1.59c.858-.379 1.081-.745 1.083-1.778.001-.483-.024-.69-.086-.712-.049-.016-.263.03-.476.103-.213.073-.753.196-1.199.275-1.315.231-1.762.553-1.762 1.268 0 .485.318.843.88.991.358.094 1.194.015 1.56-.147zm-9.333-2.487l.018-4.038h1.692l.02.476c.026.576.105.603.467.162.356-.435.986-.737 1.652-.793l.51-.043-.02.91-.02.91-.36.043c-.932.114-1.68.615-2.01 1.347-.164.362-.17.437-.204 2.699l-.035 2.327-.864.02-.865.02zm22.687-1.676v-5.712h1.832v1.957c0 1.076-.021 3.646-.047 5.711l-.047 3.755h-1.74z" id="path9550" fill="#22d826"/><path d="M131.442 3.942c-.128-.208-.197-2.047-.116-3.102.127-1.66.446-2.864 1.041-3.937.374-.673 1.266-1.546 1.91-1.87l.507-.255.478.933c.594 1.159.996 1.605 1.607 1.782.258.075.51.102.697.074.665-.1 1.496-.652 2.056-1.365.544-.694.378-.782-.362-.193-1.166.93-2.054 1.104-2.614.511-.496-.525-1.643-2.732-1.643-3.161 0-.548.631-.964 2.115-1.392 1.275-.368 1.902-.46 3.173-.465 2.27-.009 3.573.494 5.326 2.053 1.189 1.057 1.43 1.246 2.078 1.627.742.438 1.212.603 1.548.546.383-.064.8-.328.93-.588.172-.342.305-.466.751-.7.596-.313.932-.41 1.009-.289.17.268.02 1.357-.298 2.187-.74 1.921-2.39 3.177-4.512 3.434-.295.036-.62.12-.722.186-.481.315-.628.96-.609 2.678.007.66.01 1.24.006 1.289-.005.065-.24.088-.92.088h-.912l-.39-.518c-.504-.67-1.318-1.437-1.796-1.694-.528-.284-1.148-.331-1.584-.12-.551.267-1.055.974-1.385 1.944l-.12.353-.818.02-.819.02-.076-.303c-.34-1.344-1.063-2.007-1.913-1.753-.535.16-.972.697-1.289 1.581l-.155.435-1.066.02c-.692.012-1.083-.008-1.113-.056zm14.021-7.099c.27-.189.61-.6.61-.736 0-.116-.363-.293-.615-.3-.24-.008-.262.009-.31.237-.097.463-.51.626-.87.344-.199-.157-.211-.304-.073-.845.044-.171.022-.194-.289-.3-.483-.165-.654-.15-.736.067-.163.43-.02.995.345 1.36.333.333.633.434 1.199.402.357-.02.509-.067.74-.229zm3.626-4.51c-.243-.171-.454-.345-.468-.386-.014-.041.111-.215.279-.386.364-.37.572-.396 1.09-.133.546.277.993.738.719.74-.049 0-.333.108-.633.239l-.544.237z" id="path9546" fill="#002e38"/></g><g id="g9582" transform="translate(-48.753 16.06)"><g id="g9606" transform="translate(42.03 -42.508)" stroke-width=".081"><path id="path9590" d="M103.408 90.445c-1.126-.18-2.064-.624-2.736-1.292-.887-.882-1.2-1.82-1.131-3.382.05-1.108.183-1.657.648-2.648.403-.86 1.078-1.75 1.766-2.329.702-.59 1.944-1.19 2.868-1.383.95-.2 2.341-.211 3.143-.027 2.003.46 3.258 2.04 3.265 4.111.002.508-.217 1.913-.332 2.133-.069.133-.34.143-3.953.143-4.383 0-4.12-.041-4.022.631.13.9.59 1.466 1.382 1.7.36.106.669.126 1.464.092 1.151-.048 2.144-.277 3.274-.753.94-.397 1.065-.425 1.06-.233-.001.084-.102.647-.223 1.253-.253 1.262-.162 1.16-1.336 1.505-1.213.357-2 .468-3.492.493-.773.014-1.513.007-1.645-.014zm4.413-7.37c0-.444-.036-.591-.215-.866-.587-.9-2.279-.924-3.254-.045-.335.302-.904 1.172-.904 1.383 0 .087.414.104 2.187.086l2.186-.022zm-57.37 7.272c-.033-.056 2.085-12.76 2.241-13.44l.043-.183h3.768v.19c0 .174-.113.914-.204 1.339-.064.299.108.214.625-.306 1.017-1.023 1.928-1.471 3.115-1.53 1.501-.076 2.567.495 3.165 1.693.11.221.2.456.2.522 0 .278.18.165.932-.587 1.185-1.185 2.18-1.644 3.568-1.646 2.3-.003 3.587 1.59 3.417 4.227-.048.739-1.45 9.237-1.586 9.607-.067.183-.072.184-1.91.184-1.014 0-1.863-.033-1.887-.072-.024-.04.285-1.993.686-4.34.404-2.36.735-4.527.74-4.848.008-.506-.02-.622-.215-.923-.415-.637-1.221-.746-2.066-.279-.533.295-.895.73-1.28 1.537-.422.89-.547 1.44-1.202 5.298-.312 1.838-.586 3.406-.61 3.484-.038.13-.2.143-1.922.143h-1.88v-.213c0-.117.285-1.868.635-3.891.349-2.024.679-3.964.733-4.312.239-1.537-.175-2.307-1.234-2.297-.928.008-1.733.66-2.299 1.863-.406.863-.53 1.414-1.208 5.382-.314 1.836-.588 3.367-.61 3.403-.053.088-3.7.083-3.754-.005zm25.173-.016c-.838-.168-1.56-.697-1.934-1.417-.2-.384-.214-.484-.214-1.431 0-.98.01-1.04.259-1.575.808-1.732 2.715-2.495 6.25-2.499 1.477-.002 1.499-.008 1.576-.44.095-.538-.233-1.075-.808-1.319-.972-.412-3.046-.282-4.815.303-.279.092-.524.15-.546.128-.063-.065.341-2.1.437-2.196.124-.127 1.414-.366 2.572-.479 1.233-.12 3.238-.054 3.897.127 1.156.318 1.75.754 2.147 1.573.254.524.265.584.262 1.485-.003.836-.071 1.287-.625 4.117a222.857 222.857 0 0 1-.665 3.322c-.038.129-.186.142-1.612.142h-1.57l.05-.367.103-.733c.067-.487-.028-.476-.627.075-1.126 1.035-2.672 1.477-4.137 1.184zm3.875-2.298c.7-.364 1.249-1.132 1.481-2.068.171-.688.179-.683-1.186-.683-1.345 0-1.958.118-2.467.473-.404.282-.601.675-.601 1.2 0 .547.21.924.65 1.164.31.17.435.188 1.035.16.533-.027.77-.08 1.088-.246zm9.987 2.037c-.12-.29-2.09-10.424-2.041-10.503.072-.12 3.001-.09 3.046.03.021.056.326 1.676.677 3.6.35 1.923.672 3.532.714 3.574.091.093-.035.316 2.204-3.893l1.779-3.342 1.674-.022c1.593-.02 1.674-.015 1.637.128-.053.207-6.003 10.475-6.112 10.55-.049.032-.856.06-1.795.06-1.695.002-1.708 0-1.783-.182zm23.153.106c-.047-.077 1.919-10.46 2.007-10.605.026-.042.772-.075 1.686-.075 1.863 0 1.704-.081 1.547.784-.052.285-.074.54-.048.566.025.026.271-.137.546-.362 1.12-.917 2.147-1.274 3.488-1.213 1.465.068 2.299.663 2.65 1.894.24.834.138 1.778-.602 5.582-.362 1.86-.674 3.41-.696 3.444-.02.034-.776.063-1.678.063-1.52 0-1.64-.011-1.64-.146 0-.08.267-1.556.593-3.28.717-3.786.696-3.644.6-4.084-.105-.473-.399-.77-.879-.887-1.042-.254-2.201.47-2.798 1.749-.298.638-.305.67-.915 3.81-.285 1.466-.542 2.704-.57 2.751-.068.111-3.224.12-3.291.009z" fill="#fd6601"/><path id="path9584" d="M103.568 90.33c-1.528-.21-2.7-.867-3.328-1.87-.439-.699-.59-1.317-.586-2.404.006-1.988.677-3.512 2.18-4.948a6.344 6.344 0 0 1 2.858-1.544c.945-.236 2.623-.254 3.405-.037 1.446.402 2.422 1.328 2.827 2.684.146.489.162.695.123 1.592-.024.567-.095 1.214-.156 1.438l-.11.408-3.968.04-3.967.041v.573c0 1.106.591 1.77 1.778 1.997 1.08.207 3.002-.118 4.551-.77.392-.165.731-.28.754-.257.037.038-.077.709-.315 1.86l-.08.386-.776.248c-1.537.492-3.868.745-5.19.563zm4.294-6.595c.185-.12.149-1.018-.059-1.428-.21-.413-.373-.562-.86-.78-.846-.38-2.237-.014-2.897.763-.486.573-.795 1.298-.625 1.47.084.086 4.305.062 4.44-.025zm-57.297 6.482c0-.066.146-.975.324-2.018l.726-4.262c.828-4.875 1.2-6.99 1.243-7.06.053-.086 3.46-.096 3.512-.01.02.034-.012.336-.071.672-.136.766-.144 1.141-.025 1.141.051 0 .405-.305.786-.679 1.404-1.374 2.99-1.828 4.45-1.273.844.32 1.547 1.065 1.758 1.86.052.197.142.375.2.398.058.023.364-.245.705-.617.709-.775 1.508-1.34 2.307-1.63.782-.284 2.03-.298 2.706-.03.636.254 1.099.629 1.443 1.17.712 1.118.737 2.36.12 5.895a1648.8 1648.8 0 0 0-.755 4.36l-.371 2.16-1.785.022c-1.663.02-1.785.012-1.785-.122 0-.08.089-.658.195-1.285 1.01-5.939 1.25-7.428 1.25-7.803 0-.921-.544-1.529-1.367-1.529-1.175 0-2.03.75-2.643 2.315-.276.705-.434 1.478-1.12 5.488-.263 1.534-.5 2.827-.528 2.873-.059.097-3.46.116-3.52.02-.02-.034.14-1.089.355-2.343.946-5.493 1.038-6.093 1.038-6.739 0-.557-.031-.717-.198-1.005-.249-.432-.604-.609-1.223-.609-.965 0-1.766.667-2.387 1.991-.47 1-.486 1.08-1.552 7.382l-.227 1.344-1.78.022c-1.531.02-1.781.005-1.781-.099zm39.05-.112c-.046-.074-2.056-10.275-2.056-10.43 0-.073.361-.098 1.399-.098 1.263 0 1.403.014 1.441.143.023.078.19.967.37 1.976.181 1.009.471 2.597.646 3.529.174.932.317 1.714.317 1.737 0 .024.073.031.162.017.122-.02.634-.914 2.112-3.694l1.95-3.667 1.54-.022c.993-.015 1.538.007 1.538.06 0 .045-.103.256-.23.47-.126.214-.537.92-.913 1.57-3.71 6.42-4.755 8.211-4.859 8.334-.108.127-.299.142-1.75.142-.895 0-1.645-.03-1.668-.067zm23.18-.018c-.051-.084.175-1.326 1.403-7.698l.535-2.771 1.477-.023c.812-.012 1.519-.005 1.57.015.072.028.068.162-.014.552-.152.718-.145.882.034.882.081 0 .216-.077.3-.171.323-.363 1.534-1.105 2.12-1.3.814-.27 2.057-.272 2.742-.004.823.322 1.336.99 1.512 1.968.134.748.07 1.24-.649 4.968-.35 1.815-.636 3.36-.636 3.434a.213.213 0 0 1-.127.184c-.184.071-2.987.06-3.027-.012-.018-.034.236-1.436.566-3.117.807-4.12.813-4.526.069-5.09-.183-.137-.338-.167-.878-.165-.803.003-1.263.214-1.848.85-.7.759-.87 1.276-1.52 4.59l-.58 2.952-1.498.023c-1.012.015-1.515-.007-1.551-.067z" fill="#000"/></g></g><path d="M85.493 37.118V31.56h26.459v11.113h-26.46zm5.628.394c.833-1.675 1.516-3.104 1.516-3.175 0-.072-.39-.13-.866-.13-.839 0-.91.091-2.38 3.046-.835 1.675-1.517 3.104-1.517 3.175 0 .071.39.13.865.13.84 0 .91-.092 2.381-3.046zm2.002 2.371c.17-.37.301-1.472.294-2.447l-.013-1.774-1.164 2.25c-.64 1.236-1.17 2.338-1.178 2.447-.007.109.385.198.87.198.69 0 .951-.147 1.191-.674zm4.572-1.509l.03-2.182.528 2.182c.47 1.94.595 2.183 1.13 2.183.535 0 .661-.243 1.13-2.183l.528-2.182.031 2.182c.03 2.144.043 2.183.693 2.183h.661V34.44l-.973.083c-.958.08-.978.106-1.321 1.67-.587 2.67-.637 2.845-.785 2.697-.079-.078-.257-.658-.396-1.288-.684-3.094-.703-3.13-1.695-3.13h-.915v6.086h.661c.65 0 .662-.039.692-2.183zm6.848-.066c0-2.072-.042-2.249-.53-2.249-.487 0-.529.177-.529 2.25 0 2.072.042 2.248.53 2.248.487 0 .529-.176.529-2.249zm2.381-.793c0-2.867-.03-3.043-.53-3.043-.498 0-.528.176-.528 3.043 0 2.866.03 3.042.529 3.042.498 0 .529-.176.529-3.042zm2.381 0c0-2.867-.03-3.043-.529-3.043-.498 0-.53.176-.53 3.043 0 2.866.032 3.042.53 3.042.499 0 .53-.176.53-3.042zm-19.857-3.11c.007-.108-.384-.198-.87-.198-1.147 0-1.502.746-1.484 3.122l.013 1.773 1.164-2.249c.64-1.237 1.17-2.338 1.177-2.447zm15.36.596c0-.388-.177-.53-.662-.53-.485 0-.662.142-.662.53s.177.53.662.53c.485 0 .661-.142.661-.53z" id="path9562" fill="#000" stroke-width=".265"/></g><style id="style89"/></svg>