<svg height="511pt" viewBox="0 -1 512 511" width="511pt" xmlns="http://www.w3.org/2000/svg"><path d="M511.512 200.828l-12.688 34.86a8.042 8.042 0 01-10.289 4.804l-42.906-15.62a111.534 111.534 0 01-15.344 18.265l22.844 39.55c.144.258.277.516.39.786a8.034 8.034 0 01-3.335 10.187l-32.133 18.543a8.026 8.026 0 01-10.973-2.933l-22.82-39.528a110.692 110.692 0 01-23.496 4.11l-7.934 44.984a8.026 8.026 0 01-9.3 6.512l-36.532-6.438a8.045 8.045 0 01-6.52-9.308l7.926-44.954a111.064 111.064 0 01-20.644-11.945l-34.992 29.352c-3.391 2.851-8.461 2.41-11.313-.993l-23.848-28.41c-2.851-3.398-2.406-8.472.993-11.324l34.972-29.344a109.682 109.682 0 01-8.16-22.418h-45.656a8.027 8.027 0 01-8.027-8.027v-37.102c0-4.44 3.593-8.039 8.027-8.039h45.656a109.935 109.935 0 018.16-22.418l-34.972-29.343a8.028 8.028 0 01-.993-11.313l23.848-28.422c2.852-3.398 7.922-3.843 11.313-.992l34.992 29.363a110.88 110.88 0 0120.644-11.953l-7.925-44.953c-.766-4.363 2.148-8.535 6.52-9.3L343.526.62A8.02 8.02 0 01352 4.754a7.93 7.93 0 01.828 2.387l7.934 44.972c8.101.54 15.965 1.942 23.496 4.121l22.82-39.527a8.04 8.04 0 0110.973-2.945l32.133 18.554c3.843 2.211 5.156 7.13 2.945 10.965L430.285 82.84a111.208 111.208 0 0115.344 18.265l42.906-15.62c4.164-1.52 8.77.628 10.29 4.804l12.687 34.86c1.52 4.163-.63 8.769-4.793 10.288l-42.906 15.622c.41 3.918.628 7.894.628 11.925 0 4.028-.218 8.004-.629 11.934l42.907 15.61a8.035 8.035 0 014.793 10.3zm0 0" fill="#63a6fd"/><path d="M450.184 293.66l-32.13 18.543a8.025 8.025 0 01-10.972-2.933l-22.824-39.528a110.692 110.692 0 01-23.496 4.11l-7.934 44.984a8.022 8.022 0 01-9.297 6.512l-36.535-6.438a8.05 8.05 0 01-6.52-9.308l7.926-44.954a111.19 111.19 0 01-20.644-11.945l-34.992 29.352c-3.387 2.851-8.461 2.41-11.313-.993l-23.848-28.41c-2.851-3.398-2.406-8.472.993-11.324l34.972-29.344a109.682 109.682 0 01-8.16-22.418h-45.656a8.027 8.027 0 01-8.027-8.027v-37.102c0-4.44 3.593-8.039 8.027-8.039h45.656a109.935 109.935 0 018.16-22.418l-34.972-29.343a8.028 8.028 0 01-.993-11.313l23.848-28.422c2.852-3.398 7.926-3.843 11.313-.992l34.992 29.363a111.007 111.007 0 0120.644-11.953l-7.925-44.953c-.762-4.363 2.152-8.535 6.52-9.3L343.53.62a8.025 8.025 0 018.473 4.133c-24.602 29.754-39.375 67.918-39.375 109.535 0 84.371 60.738 154.55 140.894 169.184a8.04 8.04 0 01-3.34 10.187zm0 0" fill="#1980f9"/><path d="M500.898 408.059l-177.52 90.011c-23.85 15.176-54.194 14.914-77.663-.203-11.02-7.105-14.48-7.793-72.418-36.437-25.746-12.598-49.2-16.606-87.43-21.32V328.913h126.781a29.664 29.664 0 0120.985 8.7c1.742 1.745-11.567-11.563 57.027 57.015a25.935 25.935 0 017.602 19.047l1.218-.836 186.075-46.844c24.656-3.117 35.699 29.145 15.343 42.063zm0 0" fill="#f2bb88"/><path d="M291.371 430.27c-9.789 10.12-25.887 10.277-35.867.316L208.09 383.16a13.497 13.497 0 00-9.543-3.953H85.867v-50.289h126.781a29.659 29.659 0 0120.985 8.691l57.027 57.016c9.676 9.676 10.367 25.652.711 35.645zm0 0" fill="#f2d1a5"/><path d="M92.21 325.828v137.477c0 1.949-.187 3.87-.526 5.73h-.012c-2.707 14.55-15.54 25.656-30.848 25.656H31.387C14.125 494.691 0 480.566 0 463.305V325.828c0-15.383 11.21-28.265 25.871-30.89a30.303 30.303 0 015.516-.497h29.437c17.262 0 31.387 14.125 31.387 31.387zm0 0" fill="#63a6fd"/><path d="M424.738 123.516l-84.41 84.41-3.578 3.574a14.146 14.146 0 01-10.094 4.184 14.146 14.146 0 01-10.082-4.184l-37.586-37.574a7.754 7.754 0 010-10.965 7.75 7.75 0 0110.961 0l36.707 36.719 5.582-5.578 81.547-81.547c3.016-3.02 7.926-3.02 10.953 0a7.757 7.757 0 010 10.96zm0 0" fill="#fff5f4"/><path d="M91.676 469.04c-2.707 14.546-15.54 25.651-30.852 25.651H31.391C14.125 494.691 0 480.571 0 463.305V325.832c0-15.383 11.21-28.27 25.871-30.89a30.874 30.874 0 00-.535 5.73v137.476c0 17.262 14.121 31.387 31.387 31.387h29.425c1.891 0 3.727-.164 5.528-.496zm0 0" fill="#4395fb"/><path d="M64.668 445.246c0 10.254-8.309 18.563-18.563 18.563-10.253 0-18.562-8.309-18.562-18.563s8.309-18.562 18.562-18.562c10.254 0 18.563 8.308 18.563 18.562zm0 0" fill="#285fb3"/></svg>