<svg xmlns="http://www.w3.org/2000/svg" viewBox="0 0 512 512" width="512" height="512"><path d="M256 0L128 256l128 256c141.385 0 256-114.615 256-256S397.385 0 256 0z" fill="#ff2b59"/><path d="M0 256c0 141.385 114.615 256 256 256V0C114.615 0 0 114.615 0 256z" fill="#ff4e51"/><path d="M256 60l-98 196 98 196c108.248 0 196-87.752 196-196S364.248 60 256 60z" fill="#dae0e7"/><path d="M60 256c0 108.248 87.752 196 196 196V60C147.752 60 60 147.752 60 256z" fill="#fff"/><path fill="#233952" d="M271 392h-15l-10 15 10 15h15z"/><path fill="#3d5168" d="M241 392h15v30h-15z"/><path fill="#233952" d="M311.002 381.27l25.98-15 15 25.98-25.98 15zm55.27-44.27l15-25.98 25.98 15-15 25.98zM241 90h15v181h-15z"/><path fill="#09213d" d="M271 241V90h-15v181h166v-30z"/><path fill="#3d5168" d="M200.995 130.724l-25.98 15-15-25.98 25.98-15zm-55.27 44.283l-15 25.98-25.98-15 15-25.98zM90 241h30v30H90zm40.728 70.007l15 25.98-25.98 15-15-25.98zm44.277 55.263l25.98 15-15 25.98-25.98-15z"/></svg>