<svg xmlns="http://www.w3.org/2000/svg" viewBox="0 0 442.474 487.521"><switch><g><linearGradient id="a" gradientUnits="userSpaceOnUse" x1="228.737" y1="263.791" x2="223.522" y2="323.931"><stop offset="0" stop-color="#455663"/><stop offset="1" stop-color="#111822"/></linearGradient><path fill="url(#a)" d="M222.495 256.867c-3.807-.275-7.603-.511-11.449-.536-.2 0-.393.037-.587.037-7.029.099-13.87.899-20.469 2.373 0 1.323.1 2.609.1 3.97 0 22.886-2.154 45.272-6.024 67.021 5.043-1.884 9.975-3.92 14.781-6.243 25.639-12.335 47.738-30.526 64.731-52.912 1.418-1.923 2.904-3.772 4.251-5.719-14.496-4.071-29.733-6.992-45.334-7.991z"/><path fill="#0B0E15" d="M221.234 486.447c-28.216 0-55.841-5.356-82.092-15.893-11.324-4.582-22.124-9.976-32.112-16.043C43.392 415.831 3.87 348.372 1.323 274.072l-.037-.924c-.1-2.284-.2-4.544-.2-6.841 0-90.344 54.198-170.519 138.056-204.242.325-.125.55-.374.643-.693.099-.319.05-.656-.131-.943-13.041-19.271-28.067-37.438-44.685-54.062 13.928-3.502 27.811-5.269 41.296-5.269 43.836 0 85.519 16.774 117.363 47.264a.952.952 0 00.593.292c51.578 7.748 98.908 33.818 133.301 73.414 34.728 39.985 53.861 91.212 53.861 144.238 0 7.129-.375 14.407-1.135 22.261-.175.912-7.854 40.964-27.818 45.859-1.33.324-2.703.499-4.095.499-6.312 0-13.259-3.371-20.657-10.063-.525-.45-49.018-40.128-110.814-57.508-12.848-6.38-27.798-9.639-44.26-9.639-23.866 0-42.781 7.016-42.982 7.104-33.71 11.911-58.431 41.164-64.486 76.347-1.042 6.169-1.548 11.712-1.548 16.881 0 29.865 13.353 57.882 36.638 76.834 8.222 6.643 17.492 11.949 27.568 15.732.124.099.262.199.424.249.018 0 .474.113 1.28.374 5.905 2.098 12.098 3.621 18.396 4.595a435.192 435.192 0 0015.301 2.921c.063 0 .132.026.189.026.437 0 .842-.262 1.018-.687a1.104 1.104 0 00-.407-1.324l-.949-.637c-.6-.399-1.21-.799-1.779-1.198-10.469-7.379-20.077-15.858-28.585-25.334-6.555-7.242-10.457-12.747-11.499-14.245a118.959 118.959 0 01-6.024-10.388c-14.128-27.144-12.492-50.616-8.633-65.536 2.179-8.39 5.225-14.77 7.235-18.466.019 5.505.899 10.774 2.652 16.006 2.548 7.666 6.918 14.757 12.967 21.087a77.628 77.628 0 0012.704 10.55c3.894 2.572 6.654 3.846 6.767 3.896 25.843 10.163 40.489 52.864 40.633 53.325.131.374.468.637.867.725h.175c.344 0 .662-.162.868-.437 9.158-12.136 29.553-20.327 59.012-23.686 7.148-.811 14.645-1.298 22.293-1.486a4.08 4.08 0 00.33-.087h.438c1.698-.05 3.308-.063 4.876-.063 10.238-.374 29.583-1.785 44.754-7.242 3.671-1.624 7.303-3.383 11.161-5.344 2.335-1.486 3.302-1.923 3.708-2.01 5.6-3.009 9.883-5.581 12.317-7.092-.018 0-.024.013-.031.037-13.397 22.349-30.433 41.976-50.672 58.307-24.646 19.976-52.619 34.135-83.146 42.026a222.874 222.874 0 01-55.2 6.972z"/><linearGradient id="b" gradientUnits="userSpaceOnUse" x1="104.7" y1="305.674" x2="221.844" y2="189.424"><stop offset="0" stop-color="#c9c9c9"/><stop offset="1" stop-color="#9fa19e"/></linearGradient><path fill="url(#b)" d="M73.382 329.732c16.5 6.542 34.273 10.513 52.826 11.612 6.755-39.179 36.725-70.367 75.288-78.858a367.057 367.057 0 00-8.192-73.663C129.972 207.875 82.279 262.71 73.382 329.732z"/><path fill="#0B0E15" d="M138.744 61.054a364.452 364.452 0 0154.56 127.768 170.166 170.166 0 0149.306-7.291c22.235 0 43.411 4.346 62.888 12.085.993-7.44 1.686-14.981 1.686-22.698 0-48.524-20.333-92.235-52.807-123.348a223.726 223.726 0 00-33.143-2.484c-29.171-.001-57.002 5.729-82.49 15.968z"/><linearGradient id="c" gradientUnits="userSpaceOnUse" x1="298.816" y1="24.823" x2="407.021" y2="288.631"><stop offset="0" stop-color="#455663"/><stop offset=".473" stop-color="#111822"/><stop offset=".995" stop-color="#0b0e15"/></linearGradient><path fill="url(#c)" d="M307.184 170.918c0 7.717-.693 15.258-1.686 22.698 58.245 23.073 100.826 77.072 107.2 141.859 21.019-5.169 28.628-46.721 28.628-46.721.725-7.365 1.149-14.844 1.149-22.447 0-110.907-81.648-202.743-188.098-218.737 32.473 31.113 52.807 74.824 52.807 123.348zm9.794-18.927c3.29-4.67 8.177-6.618 12.441-7.466 33.285-3.445 48.892 23.846 55.947 45.347 1.005 3.221 7.484 26.443-21.293 12.285h-.038l-14.065-6.392c-11.148-4.732-18.853-9.801-24.04-13.946-10.357-9.427-11.661-19.989-11.755-21.338.168-3.496 1.292-6.268 2.803-8.49z"/><linearGradient id="d" gradientUnits="userSpaceOnUse" x1="276.563" y1="264.81" x2="412.697" y2="264.81"><stop offset="0" stop-color="#c9c9c9"/><stop offset="1" stop-color="#9fa19e"/></linearGradient><path fill="url(#d)" d="M386.945 325.662c10.208 9.238 18.722 11.536 25.752 9.813-6.373-64.787-48.955-118.785-107.2-141.859-3.665 27.53-13.784 53.026-28.935 74.763 62.283 17.554 110.383 57.283 110.383 57.283z"/><path fill="#455663" d="M138.744 61.054c25.488-10.238 53.319-15.968 82.49-15.968 11.28 0 22.337.867 33.143 2.484C223.657 18.16 182.13 0 136.265 0c-15.039 0-29.559 2.148-43.437 5.799 17.012 16.818 32.432 35.322 45.916 55.255z"/><path fill="#273747" d="M221.221 260.213l.013-.049c.2 0 .368.025.561.025.244 0 .519-.025.774-.025 3.478 0 6.893.199 10.263.524 15.039.975 29.722 3.759 43.73 7.692 15.151-21.737 25.27-47.233 28.935-74.763-19.477-7.74-40.653-12.085-62.888-12.085-17.161 0-33.68 2.572-49.306 7.291a367.065 367.065 0 018.192 73.663 98.891 98.891 0 0119.726-2.273z"/><path fill="#0B0E15" d="M73.382 329.732c-29.24-11.586-54.423-30.976-73.157-55.635 2.641 76.848 44.498 143.807 106.238 181.337-21.713-28.654-34.76-64.224-34.76-102.991 0-7.679.693-15.257 1.679-22.711z"/><linearGradient id="e" gradientUnits="userSpaceOnUse" x1="174.404" y1="429.592" x2="122.077" y2="254.5"><stop offset="0" stop-color="#8d8e8d"/><stop offset="1" stop-color="#5a5b5a"/></linearGradient><path fill="url(#e)" d="M223.382 457.682c-5.669-.999-10.782-1.973-15.321-2.922a102.312 102.312 0 01-18.216-4.545c-.862-.299-1.324-.424-1.324-.424l.007-.099c-10.076-3.733-19.416-9.015-27.619-15.669-22.079-17.966-36.219-45.346-36.219-75.973 0-5.719.612-11.287 1.517-16.706-18.553-1.098-36.326-5.07-52.826-11.612-.986 7.454-1.679 15.033-1.679 22.711 0 38.767 13.047 74.337 34.76 102.991 10.237 6.243 21.055 11.586 32.281 16.132 25.488 10.237 53.319 15.956 82.49 15.956 19.147 0 37.749-2.434 55.473-7.004-21.175-4.471-39.004-13.159-53.324-22.836z"/><linearGradient id="f" gradientUnits="userSpaceOnUse" x1="-70.509" y1="419.697" x2="109.24" y2="174.218"><stop offset="0" stop-color="#455663"/><stop offset="1" stop-color="#111822"/></linearGradient><path fill="url(#f)" d="M73.382 329.732c8.897-67.021 56.59-121.857 119.922-140.91a364.444 364.444 0 00-54.56-127.768C57.433 93.74 0 173.29 0 266.307c0 2.646.119 5.193.225 7.79 18.734 24.659 43.916 44.049 73.157 55.635z"/><path opacity=".9" fill="#455663" d="M232.832 260.688c-3.651-.275-7.315-.474-11.037-.499-.193 0-.362.024-.575.024-6.754.1-13.346.874-19.725 2.272 0 1.299.099 2.498.099 3.822 0 22.073-2.072 43.647-5.812 64.674 4.875-1.848 9.625-3.821 14.29-6.056a171.451 171.451 0 0062.364-51.014c1.373-1.861 2.802-3.658 4.126-5.531-14.008-3.933-28.691-6.718-43.73-7.692z"/><path fill="#455663" d="M250.524 425.444s-14.658-43.499-41.213-53.936c0 0-2.753-1.249-6.624-3.82a73.559 73.559 0 01-12.51-10.388c-5.063-5.294-9.901-12.187-12.729-20.676-1.967-5.844-2.997-12.386-2.441-19.84 0 0-5.905 8.366-9.545 22.374-4.138 15.994-5.256 39.454 8.714 66.285 1.767 3.508 3.802 6.979 6.113 10.525 1.055 1.561 5.007 7.117 11.586 14.383 6.736 7.479 16.325 16.717 28.753 25.457.649 0 1.299.125 1.942.125 38.48 0 71.704-22.261 87.709-54.572-23.122 2.634-48.412 9.052-59.755 24.083z"/><linearGradient id="g" gradientUnits="userSpaceOnUse" x1="332.909" y1="156.984" x2="386.911" y2="207.632"><stop offset="0" stop-color="#c9c9c9"/><stop offset="1" stop-color="#9fa19e"/></linearGradient><path fill="url(#g)" d="M349.97 195.764l14.065 6.392h.038c28.778 14.158 22.299-9.064 21.293-12.285-7.055-21.501-22.662-48.792-55.947-45.347-4.264.849-9.152 2.796-12.441 7.466-1.511 2.222-2.635 4.994-2.803 8.489.095 1.349 1.398 11.911 11.755 21.338 5.187 4.146 12.892 9.215 24.04 13.947z"/><linearGradient id="h" gradientUnits="userSpaceOnUse" x1="228.49" y1="482.775" x2="368.661" y2="402.295"><stop offset="0" stop-color="#455663"/><stop offset=".473" stop-color="#111822"/><stop offset=".995" stop-color="#0b0e15"/></linearGradient><path fill="url(#h)" d="M411.579 376.963c-2.579 1.661-7.622 4.783-13.872 8.179-.705.175-1.997.836-3.952 2.086a218.851 218.851 0 01-11.036 5.306c-15.277 5.493-34.841 6.83-44.379 7.167-1.574 0-3.203.05-4.876.074h-.83l.031.075c-6.785.15-14.401.6-22.386 1.512-16.006 32.311-49.229 54.572-87.709 54.572-.643 0-1.292-.125-1.942-.125.893.65 1.848 1.249 2.754 1.873 14.32 9.677 32.149 18.365 53.324 22.836 31.019-8.016 59.393-22.624 83.558-42.239a222.008 222.008 0 0050.915-58.544 82.05 82.05 0 002.217-3.982c-.131.149-.762.549-1.817 1.21z"/><path fill="#FFF" d="M429.321 304.237c0 4.394-3.558 7.965-7.928 7.965-4.414 0-7.997-3.571-7.997-7.965 0-4.395 3.583-7.941 7.997-7.941 4.37 0 7.928 3.546 7.928 7.941zm-16.624-77.684c0 10.188-8.285 18.504-18.541 18.504-10.219 0-18.515-8.316-18.515-18.504 0-10.238 8.296-18.528 18.515-18.528 10.256 0 18.541 8.29 18.541 18.528z"/><linearGradient id="i" gradientUnits="userSpaceOnUse" x1="-10.332" y1="123.913" x2="81.321" y2="182.032"><stop offset="0" stop-color="#fff" stop-opacity=".4"/><stop offset="1" stop-color="#fff" stop-opacity="0"/></linearGradient><path fill="url(#i)" d="M137.445 77.672S15.208 134.212 14.32 274.097l39.017 30.14s26.762-98.959 120.838-128.774c.001 0-18.246-64.674-36.73-97.791z"/></g></switch></svg>