<svg xmlns="http://www.w3.org/2000/svg" version="1.0" width="2594.874" height="1520.8" viewBox="0 0 1946.156 1140.6"><path d="M1102.157 7.05c-5.1 5.2-7 8-7.5 10.8-.4 2.1-1.1 3.5-1.5 3.3-1.1-.7-6.8 16.4-8.6 25.7-.8 4.3-1.5 13.2-1.5 19.8v11.9l-7.5 19.5c-4.1 10.7-7.7 20.7-7.9 22.2-.7 3.8-13.8 41.7-14.7 42.3-.9.7-5.6 17-5.7 19.5 0 1.1-1.1 6.9-2.5 13-1.4 6-2.8 12.7-3.2 14.8-.6 3.6-1.4 4.4-10.9 10.5-16.5 10.8-23.1 13.6-42.8 18.3-9.7 2.3-17.5 4.5-17.3 4.9.5.8-15.5 5.3-19.6 5.6-3.1.2-13.2 3.4-13.9 4.4-.7.9-19.7 7.2-23 7.6-3.4.4-24.2 7.8-30.5 10.9-7.3 3.6-49.2 20.5-54.5 22-12.1 3.4-86.9 41-125.6 63-9 5.1-16.4 9.2-16.4 8.9 0-.5-13.3 7.6-14 8.5-.3.4-7.2 4.9-15.5 10.1-19.8 12.4-37.7 24.4-55.9 37.4-8.1 5.8-15.1 10.6-15.4 10.6-.7 0-11.4 7.9-12.7 9.4-1.6 1.8-14.2 11.6-15 11.6-.8 0-20.1 15.5-23.5 19-1.4 1.3-7.4 6.7-13.5 11.9-33.2 28.4-60 53.6-80.5 75.6-8.6 9.3-20.7 22.2-26.9 28.5-6.1 6.3-11.1 11.9-11.1 12.5 0 .5-3.5 4.6-7.7 9s-8.3 9.1-9.2 10.5c-.9 1.4-5.9 7.9-11.2 14.5-17.2 21.5-28.7 37-38.3 51.6-5.2 7.9-10.1 15.1-10.8 16-3.3 3.6-20.6 33.9-23.8 41.6-1.3 2.9-2.6 5.3-2.9 5.3-.4 0-2 2.8-3.5 6.2-2.8 6.3-3.8 8.3-9.6 19.2-1.8 3.2-3.3 6.8-3.6 8-.6 3.2-2.6 7.6-3.4 7.6-.9 0-6 11.5-6.7 15-.2 1.4-1.7 4.8-3.3 7.6-3.4 6.1-8.1 17.1-8.5 19.9-.1 1.1-2.4 7.4-5 14s-7.3 19.4-10.6 28.5c-3.2 9.1-6.5 17.6-7.3 19-1.6 3-4.7 12.2-5 15.3-.2 1.2-1.6 6.5-3.2 11.8l-2.9 9.7-6.2.6c-9.2 1-46 7.1-60.4 10.1-22 4.7-55 13.3-74.9 19.6-7.4 2.4-25.3 9.8-26 10.8-.3.4-4.1 2.7-8.5 5.1-14.4 7.8-24.7 15.5-35.5 26.7-15.8 16.3-15 14.9-15 24.8 0 5 .4 8.5 1 8.5s1 .6 1 1.3c0 .8.9 2.2 2 3.2s1.7 2.1 1.5 2.5c-.3.4 1.3 2.4 3.6 4.5l4 3.6 9.7-.4c5.3-.2 14.3-1.4 19.9-2.6 9.8-2.2 10.6-2.2 17.7-.8 13.3 2.7 18.9 6.2 32.3 19.8 6.5 6.7 15.1 14.4 19.1 17.1 6.2 4.2 7.3 5.4 6.9 7.1-.3 1.2-1.3 4.7-2.1 7.7-2.2 7.6-2.2 27.7 0 30.8.8 1.2 1.9 2 2.3 1.8.4-.3 2.5 1.3 4.6 3.4l3.9 4h10.3c9.1 0 11.1-.3 18-3.1 27.8-10.9 59.5-30.9 80.2-50.4 8.1-7.7 23.5-20.6 40.4-33.8 4.1-3.2 9.2-7.5 11.3-9.5 4.1-3.8 66.7-55.9 90.5-75.2 7.7-6.3 16-13.2 18.2-15.4 2.3-2.1 16.8-14.5 32.2-27.4 15.4-13 39.1-33.1 52.6-44.7 24.8-21.3 33.9-28.6 48.4-38.6 10.9-7.6 29-18.8 32.8-20.4 1.8-.7 12-5.9 22.7-11.5 18.8-9.9 41.5-20 44.9-20 2.3 0 25.2-7.6 24.6-8.2-.6-.6 15.3-4.9 28.5-7.7 13.6-3 71.7-12.1 76.5-12.1 6 .1 62.6-7.3 61.5-8-2.5-1.6 111.9-12 115.7-10.6 2.2.9 47.7-1.5 48.1-2.6.2-.4 4.7-.8 10-.8 11.9 0 79.8 2.8 86.7 3.5 14 1.5 112.8 7.3 117.5 6.9 3-.2 20.1.3 37.8 1.3l32.4 1.8-6.3 7c-9.9 11.2-18.6 23.3-23.2 32.5-2.3 4.7-4.6 8.8-5 9.1-.4.3-1.4 2.7-2.2 5.2-1.8 5.9-1 30.7 1.1 38.5 1.2 4.3 2.9 6.8 9.2 13.4l7.7 8.1 25-.6c26.6-.6 49.3-2.8 74.5-7.3 8-1.4 16.6-2.7 19.2-2.9 5.4-.4 31.7-7.2 33.3-8.5.7-.5 6.4-2.8 12.8-5 21.2-7.3 42.2-16.8 57.4-26.1 3.8-2.3 7.1-4.3 7.4-4.5.3-.2 2.3 2.1 4.3 5 2.1 3 8 9.5 13.2 14.6 7.3 7 11.2 9.9 17.2 12.8l7.7 3.7h22.5c25.6 0 28.4-.5 47.5-9.3 10.9-4.9 16.2-8.3 30.5-19.7 5.2-4.1 10.5-8.2 11.8-9.1 2.1-1.6 3.8-1.5 26.5.9 13.3 1.4 26.5 3 29.2 3.7 2.8.6 12 1.3 20.5 1.5 8.5.2 24.3 1.1 35 2 10.7.8 31.4 1.8 46 2.1 15.4.3 28.1 1 30.3 1.6 5.1 1.5 29.2-.3 43.2-3.2 11-2.2 25.5-6.7 25.5-7.9 0-.4 1.7-1.5 3.8-2.4 2.1-.9 6.4-3.7 9.6-6.2 3.2-2.5 6.3-4.5 7-4.5 7-.1 30.9-20.5 33.3-28.5.6-2 .7-3.5.2-3.5-.5 0-.9-3.2-.9-7 0-4.6.4-7 1.1-7 2.3 0 .1-10.6-3.2-15.5-2.8-4.1-6-11.7-9.2-21.3-.6-1.7-1.4-3.2-1.8-3.2-1.4 0-3.9-13.8-4.9-27.2-.5-7.3-1.9-17.1-3.1-21.8-1.1-4.7-2.2-9.9-2.4-11.5-.3-3.4-10.1-26.9-11.9-28.8-.6-.7-3.4-5-6-9.7-14.7-25.6-31.5-46.7-58.2-73.1-29.7-29.1-55.9-50.8-97.9-80.4-7.7-5.5-14.7-10.6-15.5-11.4-3.3-3.3-55.3-36.7-65-41.8-7.9-4.2-48.9-28.1-52.5-30.7-1.6-1.1-9.3-5.3-17-9.2-31.7-16-60.1-30.6-61.1-31.4-2-1.5-13.6-7.2-15.5-7.5-.9-.2-10.7-4.4-21.6-9.3-22.8-10.4-44.3-19.5-68.8-29.2-9.5-3.7-18.3-7.5-19.6-8.3-1.3-.8-6-2.7-10.4-4.2s-8.9-3.1-10-3.6c-6.6-2.9-22.1-7.9-23.2-7.5-.7.3-1.8-.1-2.5-.8-1.6-1.5-10.3-4.6-14.8-5.1-1.7-.2-7.9-2-13.8-3.9s-17.8-5.5-26.4-8c-18.3-5.4-21-6.5-30.1-11.8-11-6.4-17.9-12.8-25.1-23.5-3.6-5.4-6.6-10.4-6.6-11.1 0-.7-1.1-3.4-2.4-6-1.3-2.6-3.1-8.3-4.1-12.7-.9-4.4-2.1-8.5-2.6-9.1-.5-.6-2.7-7.8-5-16-2.2-8.2-6.8-23-10.1-32.9-3.3-9.9-6.2-19.1-6.4-20.5-.3-2.7-5.1-14.2-6.3-15-.3-.3-2.4-4.4-4.5-9.3-5.3-11.9-14.6-28.5-21.4-38.2-3.2-4.4-11.6-13.9-18.8-21.1-11.1-11.2-14.2-13.7-20.9-17l-7.9-3.9h-27.7zm49.3 30c7.3 7.2 15.9 18.8 22.5 30.4 7.2 12.5 16.3 32.1 15.7 33.7-.3.7-1.9 2-3.7 2.9-5.2 2.7-22.9 14.5-31.4 20.9-9.9 7.5-26.8 23.8-34.5 33.1-8.7 10.6-21 30.6-21 34.1 0 .8-.5 1.4-1.2 1.4-.8 0-.9-4.4-.4-16.8 2.4-60.1 15.5-105.2 41.4-142.5 3.9-5.6 4.1-5.5 12.6 2.8zm50.9 96.2c6.8 20.4 10.5 33.1 15.3 52.8 2 8.2 5 17.7 6.6 20.9 2.5 4.9 2.8 6.3 1.9 8.3-.6 1.3-1.1 3.4-1.1 4.6-.1 4.2-2.3 5.7-8.1 5.7-19.7 0-42 5.6-62.4 15.5-17.1 8.3-31.1 17.5-46.8 30.8-5.5 4.7-5.9 4.9-10.2 4.3-5.6-.9-5.6-.9-.9-26.1 10.4-54.7 34.7-91.1 81.2-121.7 7-4.6 13.8-9.1 15.2-10 1.4-.9 2.8-1.7 3.1-1.7.3-.1 3.1 7.4 6.2 16.6zm-126.6 63c1.1.8 5 1.3 10.4 1.3 6.1 0 8.9-.4 9.2-1.3.2-.6.8-.8 1.3-.4s.4 1.1-.1 1.5c-1.2.8-4.7 10.4-8.2 22.2-3.5 12-3.9 12.4-5.3 5.4-1.5-7.1-5.9-19.7-10.5-30.3l-3.4-7.7 2.2-6.9 2.2-7 .3 11c.2 8.9.6 11.2 1.9 12.2zm-9.4 26.3c4.9 15.4 7.7 27.6 9.2 41 .4 3 .9 6.3 1.1 7.2.5 1.8-.2 1.8-8.2.3-1.2-.3-5.2-3.1-9-6.2-6.4-5.4-16.3-12.3-24.2-17l-3.2-1.9 7.6-4.8c4.1-2.7 10.6-7.3 14.4-10.3 6.9-5.5 6.9-5.6 7.6-11.5.4-3.2 1-5.6 1.5-5.1.4.4 1.9 4.2 3.2 8.3zm174.1 9.6c.4 1 .1 1.4-.6 1.2-1.5-.5-2.3-2.8-1-2.8.5 0 1.3.7 1.6 1.6zm-21.9 11.6c-.4 2.4-1.1 5.1-1.6 6-.5.9-.9 2.8-.9 4.2 0 1.4-.4 2.7-.9 3-.5.3-1.1 2-1.4 3.8-.3 1.8-1 5.1-1.7 7.3s-1.4 5.5-1.7 7.3c-.3 1.8-.9 3.5-1.4 3.8-.5.3-.9 1.8-.9 3.4 0 1.6-.4 3.1-.9 3.4-.5.3-1.1 2-1.4 3.8-.6 4.3-4.7 20.7-5.7 23.3-.5 1.1-1.1 3.1-1.4 4.5-.2 1.4-1 4.3-1.6 6.5-.7 2.2-1.4 5.5-1.7 7.3-.3 1.8-.9 3.5-1.4 3.8-.5.3-.9 1.8-.9 3.4 0 1.6-.4 3.1-.9 3.4-.5.3-1.1 2-1.4 3.8-.2 1.8-1.7 7.8-3.2 13.3-1.4 5.5-3 11.6-3.5 13.5-.5 1.9-1.4 5.3-2 7.5-.7 2.2-1.4 5.5-1.7 7.3-.3 1.8-.9 3.5-1.4 3.8-.5.3-.9 1.5-.9 2.8 0 1.2-.6 3.4-1.2 4.8l-1.3 2.6-4.5-2.3c-5.8-3-11.6-8.8-13.1-13.3-1.6-4.8-.6-10.5 3.5-19.4 15.4-33.3 3.9-62.3-31.6-79.3-4-1.9-7.8-3.5-8.5-3.5-2.6 0-1-1.7 8-8.3 15-11 28.5-18.9 43.7-25.5 12.6-5.4 26.8-8.7 44.3-10.1 1.7-.1 1.8.4 1.2 4.1zm21.3 7.5c20.3 11.6 38.7 29.4 50.4 48.8 3.1 5.1 9.8 18.7 12.9 26 2.3 5.5 5.9 18 7.5 25.9l1.7 8.9-6.4 5.6c-27.9 24.2-51.6 53-67.4 81.6-4.5 8.3-22.4 43.9-25.5 51-1.2 2.7-3 6.8-4 9-4 8.9-10 24.6-12.9 34-2.7 8.6-3.1 11.4-3.1 20.9 0 9.9.2 11.2 2.2 13.3 1.9 2 3.1 2.3 9.5 2.3 6.6 0 7.9-.3 11.6-2.9 20.5-14.3 65-76.3 88.6-123.1 13.8-27.6 20-46.7 23.8-74l.8-5.5 9-2.3c10.6-2.6 25.9-5.6 37-7.1 16.2-2.3 45.4-1 58 2.5 15.4 4.2 32.5 11.4 33.2 13.9.2.6-74.4 75.7-165.7 167l-165.9 165.9-2.3-2.1c-2.6-2.4-11.9-7.5-16.8-9.1-2.8-1-3.2-1.5-2.7-3.9 1.4-6.9 1.9-8.9 2.7-10.8.5-1.1 1.1-3.1 1.4-4.5.2-1.4 1-4.3 1.6-6.5.6-2.2 1.4-5.1 1.6-6.5.3-1.4.9-3.4 1.4-4.5.5-1.1 1.1-3.1 1.4-4.5.2-1.4 1-4.3 1.6-6.5 1.3-4.7 3.9-15 4.6-18.5.3-1.4.9-3.4 1.4-4.5.5-1.1 1.1-3.1 1.4-4.5.2-1.4 1-4.3 1.6-6.5.6-2.2 1.4-5.1 1.6-6.5.3-1.4.9-3.4 1.4-4.5.5-1.1 1.1-3.1 1.4-4.5.2-1.4 1-4.3 1.6-6.5 1.3-4.7 3.9-15 4.6-18.5.3-1.4.9-3.4 1.4-4.5.5-1.1 1.1-3.1 1.4-4.5.2-1.4 1-4.3 1.6-6.5.7-2.2 1.4-5.5 1.7-7.3.3-1.8.9-3.5 1.4-3.8.5-.3.9-1.8.9-3.4 0-1.6.4-3.1.9-3.4.5-.3 1.1-2 1.4-3.8.7-5.1 6.2-26.5 7.8-30.6.5-1.3.9-3.4.9-4.7 0-1.3.5-2.7 1-3 .6-.3 1-1.9 1-3.5s.5-3.2 1-3.5c.6-.3 1-1.9 1-3.5s.4-3.1.9-3.4c.5-.3 1.1-2 1.4-3.8.4-3 6.4-26.2 8.9-34.8.5-1.9 1.2-5 1.5-6.8.3-1.8.9-3.5 1.4-3.8.5-.3.9-1.8.9-3.4 0-1.6.5-3.2 1-3.5.6-.3 1-1.6 1-2.7 0-2 1.2-6.4 3.1-11.4.7-2 1.7-2.2 12.6-2.8 14.7-.9 36.7-3.3 45.3-5l6.5-1.4-13-.1c-13.8-.2-28.3-1.3-40.3-3.2l-7.4-1.2.5-3.1c.3-1.7 1-4.9 1.7-7.1.6-2.2 1.4-5.1 1.6-6.5.3-1.4.9-3.4 1.4-4.5.5-1.1 1.1-3.1 1.4-4.5.2-1.4.9-4.1 1.5-6 .5-1.9 2.6-9.8 4.6-17.5 2-7.7 4.1-15.6 4.7-17.5.5-1.9 1.2-5 1.5-6.8.3-1.8.9-3.5 1.4-3.8.5-.3.9-1.6.9-2.9 0-1.3.4-3.4.9-4.7 1.3-3.6 4.1-13.4 7.2-25.8 1.1-4.7 2.5-10.1 3.1-12 .5-1.9 1.2-5 1.5-6.8.3-1.8.9-3.5 1.4-3.8.5-.3.9-1.6.9-2.9 0-1.3.4-3.4.9-4.7.5-1.3 1.4-4.3 2.1-6.8 1.6-5.8 3.1-10 3.7-10 .2 0 2.5 1.2 5.1 2.7zm-215.5 8.9c4.5 2.5 9.3 5.4 10.7 6.4l2.5 2h-7.5c-10.8 0-29.9 2.5-49.5 6.5-9.3 1.9-18 3.7-19.1 4.1-1.8.5-2.2.1-2.6-2.3-.3-1.5-.8-3.5-1.2-4.4-.5-1.2 1.8-2.2 12.6-5.4 14.9-4.3 42.6-11.4 44.6-11.5.8 0 5 2 9.5 4.6zm277.7 8.9c29.9 8.9 44 13.7 44 14.9 0 3.3-6.9 26.4-11 36.6-3.6 9.1-9.3 21-10 21-.9 0-3-4.7-3-6.8 0-2.9-6.8-21-11.4-30.6-5.7-11.7-14.7-25.5-21.9-33.2-6-6.5-6.8-7.9-3.9-7 .9.3 8.7 2.6 17.2 5.1zm-358 9.4c.7 1.7 1 3.5.8 4.2-.2.6-5.5 2.7-11.8 4.6-6.3 1.9-19.5 6.4-29.5 10-9.9 3.5-18.8 6.7-19.8 7-1.7.5-1.6.1.5-4.1 2.1-4.2 2.9-4.8 10.3-7.7 8-3.2 46.5-16.8 47.6-16.8.4-.1 1.2 1.2 1.9 2.8zm107.4 11.7c6.7.8 13 1.9 14.1 2.5 1.1.5 6.7 1.8 12.5 2.9 5.8 1.1 12.9 2.7 15.9 3.5 3 .8 5.8 1.2 6.2.9 1-.6 14.1 4.2 21.4 7.9 12.4 6.2 16.9 10 21.1 17.9 5.1 9.8 5.3 16 .5 26.8-5.8 13.1-6 14-6.1 25.2 0 7.3-.4 10.8-1.1 10.8-2 0-22.3-7.1-22.9-7.9-.6-1-12.4-6.1-15.2-6.6-2.6-.5-19.4-10.3-23.2-13.4-4.1-3.5-10.6-8.4-12.7-9.6-1-.6-8.5-7.5-16.6-15.5-11.3-11-17-15.7-23.5-19.6-11-6.5-27.4-12-42.5-14.2l-11.7-1.8 9.5-2.1c21.6-5 46.5-8.9 57.3-9.2 2.8 0 10.4.6 17 1.5zm315.4-.3l3.2 1.2-5.5 5.5c-3 2.9-5.8 5.1-6.1 4.7-.4-.4-.2-2.4.4-4.6.7-2.1 1.2-4.8 1.2-6 0-2.4 1.7-2.6 6.8-.8zm44.2 16.4c30 11.6 88.8 36.7 90.9 38.9.3.2-4.6 5.5-10.7 11.7l-11.3 11.3-10.2-5.1c-12.7-6.3-17.8-8.1-35.7-12.2-9.8-2.3-58-2.6-70.5-.5-12.1 2.1-22.7 4.2-23.7 4.8-1.2.7-3.2-.7-2.1-1.5.5-.3 2.8-3.3 5-6.6 10.6-15.7 22.1-28.9 36.7-42.3 6.2-5.6 8.5-7.1 10-6.6 1.2.3 10.9 4 21.6 8.1zm-549.1 3.1c-2 4.8-2.2 5-12.8 9.5-5.8 2.6-10.9 4.7-11.3 4.7-1.1 0-3.1-6.1-2.2-7 .9-.9 26.3-11.9 27.6-12 .4 0-.2 2.2-1.3 4.8zm92.8 11.4c1.1 1.3 2 4.8 3 10.6.3 1.8.9 3.5 1.4 3.8.5.3.9 1.8.9 3.4 0 1.6.5 3.2 1 3.5.6.3 1 1.9 1 3.5s.4 3.1.9 3.4c.5.3 1.1 2 1.4 3.8.9 5.7 6.1 26.4 7.8 30.6.5 1.3.9 3.4.9 4.7 0 1.3.5 2.7 1 3 .6.3 1 1.9 1 3.5s.4 3.1.9 3.4c.5.3 1.1 2 1.4 3.8.3 1.8 1 4.9 1.5 6.8.6 1.9 2 7.3 3.1 12 2.7 10.9 4.1 15.9 5.2 18.8.5 1.3.9 3.4.9 4.7 0 1.3.5 2.7 1 3 .6.3 1 1.9 1 3.5s.5 3.2 1 3.5c.6.3 1 1.7 1 3s.4 3.4.9 4.7c2.1 5.6 9 31.8 9.8 37.6.3 1.8.9 3.5 1.4 3.8.5.3.9 1.8.9 3.4 0 1.6.5 3.2 1 3.5.6.3 1 1.9 1 3.5s.4 3.1.9 3.4c.5.3 1.1 2 1.4 3.8.9 5.4 1.8 9.2 2.7 11.3.5 1.1 1.1 3.1 1.4 4.5.7 3.5 3.3 13.8 4.6 18.5.6 2.2 1.4 5.1 1.6 6.5.3 1.4.9 3.4 1.4 4.5.5 1.1 1.1 3.1 1.4 4.5.2 1.4 1 4.3 1.6 6.5.6 2.2 1.4 5.1 1.6 6.5.3 1.4.9 3.4 1.4 4.5.5 1.1 1.1 3.1 1.4 4.5 1.2 6 3.4 14.7 4.2 16.5.4 1-4.2-2.6-10.2-8.1-14-12.6-30.1-25.6-38.1-30.7-6.2-3.9-6.3-4-6.3-8.6 0-14.4-12.6-47.5-34.3-90.1-21.2-41.7-35.7-63.5-58.7-88.4-4.4-4.8-20-18.1-23.5-20.1-1.7-1-1.6-1.5.9-10 2.8-9.2 7.3-22.6 7.9-23.1.6-.7 23.5-5.3 33.7-6.9 21.9-3.3 48.9-4.5 50.7-2.3zm37.6 6.5c16.5 5.5 26 11.6 40 25.8 6.6 6.6 14.6 14.3 17.9 17.1l6.1 5-.2 31.2c-.1 17.2.2 37.4.8 45 3.1 39 5.4 56.2 9.9 75.2 1.5 6 5.2 13.4 8.4 16.7 2.9 3 3.7 3.3 9.3 3.3 5.6 0 6.4-.3 9.2-3.3 6.2-6.5 9.3-15.9 13.2-39.7 3-18.9 4.8-39.3 6.2-71 .6-14.6 1.3-26.6 1.4-26.8.1-.1 5 1.1 10.8 2.7 10 2.8 28.2 6.2 41 7.6 5.3.6 5.7.8 5.2 2.8-1.1 4-2.7 10.2-3.7 14.2-.5 2.2-1.4 5-1.9 6.3-.5 1.3-.9 3.4-.9 4.7 0 1.3-.4 2.7-1 3-.5.3-1 1.9-1 3.5s-.4 3.1-.9 3.4c-.5.3-1.1 2-1.4 3.8-.3 1.8-1.7 7.8-3.2 13.3-1.5 5.5-3.1 11.6-3.5 13.5-.5 1.9-1.4 5.3-2 7.5-.7 2.2-1.4 5.5-1.7 7.3-.3 1.8-.9 3.5-1.4 3.8-.5.3-.9 1.8-.9 3.4 0 1.6-.4 3.2-1 3.5-.5.3-1 1.9-1 3.5s-.4 3.1-.9 3.4c-.5.3-1.1 2-1.4 3.8-.5 3.4-5 21.4-6.9 27.8-.5 1.9-1.2 5-1.5 6.8-.3 1.8-.9 3.5-1.4 3.8-.5.3-.9 1.8-.9 3.4 0 1.6-.4 3.1-.9 3.4-.5.3-1.1 2-1.4 3.8-.3 1.8-1 4.9-1.5 6.8-2.5 8.3-8.5 31.8-8.9 34.8-.3 1.8-.9 3.5-1.4 3.8-.5.3-.9 1.8-.9 3.4 0 1.6-.4 3.1-.9 3.4-.5.3-1.1 2-1.4 3.8-.3 1.8-1 4.9-1.5 6.8-2.5 8.6-8.5 31.8-8.9 34.8-.3 1.8-.9 3.5-1.4 3.8-.5.3-.9 1.8-.9 3.4 0 1.6-.4 3.2-1 3.5-.5.3-1 1.7-1 3s-.4 3.4-.9 4.7c-.5 1.3-1.5 4.4-2.2 7l-1.3 4.8h-14.6v-3.8c0-12.9-12.6-41.1-25-55.7-1.5-1.8-2.2-3.9-5-14.3-.5-2-2-7.3-3.1-11.7-1.2-4.4-2.4-9.5-2.6-11.3-.3-1.8-.9-3.5-1.4-3.8-.5-.3-.9-1.8-.9-3.4 0-1.6-.4-3.1-.9-3.4-.5-.3-1.1-2-1.4-3.8-.3-1.8-1-5.1-1.7-7.3-.6-2.2-1.4-5.1-1.6-6.5-.3-1.4-.9-3.4-1.4-4.5-.5-1.1-1.1-3.1-1.4-4.5-.3-1.4-1.2-5.4-2.1-9-.9-3.6-1.9-8-2.2-9.8-.3-1.8-.9-3.5-1.4-3.8-.5-.3-.9-1.8-.9-3.4 0-1.6-.4-3.1-.9-3.4-.5-.3-1.1-2-1.4-3.8-.3-1.8-1-5.1-1.7-7.3-.6-2.2-1.4-5.1-1.6-6.5-.3-1.4-.9-3.4-1.4-4.5-.5-1.1-1.1-3.1-1.4-4.5-.3-1.4-1.2-5.4-2.1-9-.9-3.6-1.9-8-2.2-9.8-.3-1.8-.9-3.5-1.4-3.8-.5-.3-.9-1.8-.9-3.4 0-1.6-.4-3.1-.9-3.4-.5-.3-1.1-2-1.4-3.8-.3-1.8-1-5.1-1.7-7.3-.6-2.2-1.4-5.1-1.6-6.5-.3-1.4-.9-3.4-1.4-4.5-.5-1.1-1.1-3.1-1.4-4.5-.3-1.4-1.2-5.4-2.1-9-.9-3.6-1.9-8-2.2-9.8-.3-1.8-.9-3.5-1.4-3.8-.5-.3-.9-1.8-.9-3.4 0-1.6-.4-3.1-.9-3.4-.5-.3-1.1-2-1.4-3.8-.3-1.8-1-5.1-1.7-7.3-.6-2.2-1.4-5.1-1.6-6.5-.3-1.4-.9-3.4-1.4-4.5-.5-1.1-1.1-3.1-1.3-4.5-.3-1.4-1.7-7-3.2-12.5-1.5-5.5-2.9-11.1-3.2-12.5-.2-1.4-.8-3.4-1.3-4.5s-1.1-3.1-1.4-4.5c-.2-1.4-1-4.3-1.6-6.5-.7-2.2-1.4-5.5-1.7-7.3-.3-1.8-.9-3.5-1.4-3.8-.5-.3-.9-1.6-.9-2.9 0-1.3-.4-3.4-.9-4.7-.8-2-1.4-4.2-3.6-12.4-.5-2.1-.4-2.1 4.7-1.2 2.9.5 10.2 2.5 16.1 4.5zm-176.8 2.5l2.7 3.2-12.4 6.1-12.3 6.1-9.5-.6-9.4-.5 18.4-8.7c10.2-4.8 18.8-8.7 19.2-8.8.3 0 1.8 1.4 3.3 3.2zm35 9.5c-.8 2.7-1.5 5.1-1.5 5.5 0 2-1.8.5-3.3-2.7-2.3-4.9-2.2-5.2 2.1-6.3 2-.5 3.8-1 3.9-1.1.1-.1-.4 2-1.2 4.6zm-22.6 7.2c2.6 3.5 2.7 5.6.4 4.7-.9-.4-3.7-1.1-6.2-1.7-8.8-1.9-8.9-2-4.1-4 6.2-2.5 7.6-2.3 9.9 1zm719.2 20.5c15.6 7.9 32.9 16.8 38.4 19.9l10 5.5-.3 4.4c-.2 2.3-1.2 7.9-2.3 12.2-7.7 30-23.3 57.2-45.8 79.6-13.4 13.2-37.3 32.1-38.8 30.6-.4-.3-.1-2.3.5-4.3 1.2-4.1 2.5-10.3 4.2-19.7 1.5-9 1.2-44.6-.5-54.1-3.6-20.1-11.5-41-20.5-54-1.7-2.4-3-4.8-3-5.3 0-.9 28.1-29.2 29.1-29.2.4 0 13.4 6.5 29 14.4zm-750-6.9c12.8 1.8 27.6 5.5 37.1 9.3 8 3.2 7.4 2.2 9.8 15.7 4.4 24.7 13 49.8 25.5 75 8.4 17 33.2 55.9 48.9 76.9 3.7 4.9 6 8.6 5.2 8.3-7.6-2.9-38.1-6.7-54-6.7h-10.1l-73.3-73.3-73.4-73.4 3.4-1.9c10.9-6.4 65.7-31.3 68.9-31.4.8 0 6.2.7 12 1.5zm-38.6 3.4c-2.7 1.5-14.5 8.2-26.2 14.8l-21.2 12-3.6-3.7-3.7-3.8 7.3-4.2c13.1-7.7 22.2-11.3 41.9-16.8 1.9-.6 5.1-1 7-1.1l3.5-.1zm110.7 26.8c11.8 11.5 23 25.5 34.2 42.8 9.7 15 9.9 15.3 15.8 26 5 9.2 23.5 46 27.5 55 7.5 16.8 17.3 44.5 15.7 44.5-.2 0-2.1-.7-4.3-1.6-4.5-1.8-10.3-8.1-25.7-27.9-5.9-7.7-27.2-39.2-35.5-52.5-8.5-13.8-19.8-35.7-23.8-46.5-1.3-3.3-2.7-6.9-3.2-8-1.5-3.5-5.8-17.7-8.3-27.5-1.3-5.2-2.7-10.3-3.1-11.3-1.5-3.7 2.1-1.4 10.7 7zm443.8-6.1c0 3.4-6.8 26.6-9.9 33.9-.5 1.1-2.1 4.9-3.6 8.5-16 37.7-57.7 101.7-83.4 128.2-9.7 10.1-10.8 9.3-6.5-4.4 5.5-17.3 13.3-35.6 27.7-64.8 18.6-37.7 29.6-55 50-78.5 7.2-8.3 23.6-24.4 25-24.5.4 0 .7.7.7 1.6zm-222.6 11.2l9.8 4.7-.6 20.5c-1.2 38.5-5.6 78-10.6 96-1.2 4.1-2.4 8.5-2.7 9.7-2.5 10.4-9.4-17.5-13.2-53.7-3-27.6-4.4-58.6-3.5-75.1l.7-12.8 5.1 3.1c2.8 1.6 9.5 5.1 15 7.6zm393.8 10.3c8.3 15.5 13.8 33.8 15.9 52.9 1.1 10 1 13.2-.4 24.5-1 7.1-2.8 17.4-4.2 22.7-2.3 8.9-7 22.3-8.4 24-.3.4-7.4 2.1-15.8 3.8-14.9 3-18.6 3.9-32.8 8.6-19 6.2-40.4 15.7-56.4 25.2-12.6 7.4-44.3 28.5-56.8 37.8-15.9 11.8-26.4 20.7-34.9 29.5-8.9 9.2-10.4 12.1-10.4 19.8 0 4.9.4 6.5 2.4 8.8 2.2 2.5 3.1 2.8 10.7 3.2 12.5.5 26.3-3 47.9-12.2 1.9-.8 6.9-2.9 11-4.7 13.6-5.8 49.2-23.6 63-31.5 33.3-19.1 58.6-39.2 75.7-60.2 6.5-8.1 7.7-9.1 9.6-8.3 1.2.4 6.3 2 11.2 3.5 43.2 13 78.9 35.9 96.6 62.1 2.7 4 4.9 7.5 4.9 7.8 0 1-6.9 3.5-11.7 4.2-2.6.3-5.2 1-5.8 1.4-.5.4-2.3 1-4 1.3-1.6.3-4.8 1.1-7 1.7-2.2.7-5.5 1.4-7.3 1.7-1.8.3-3.5.9-3.8 1.4-.3.5-1.8.9-3.4.9-1.6 0-3.2.4-3.5 1-.3.5-1.9 1-3.5 1s-3.1.4-3.4.9c-.3.5-2 1.1-3.8 1.4-1.8.3-5.1 1-7.3 1.6-2.2.5-6.7 1.7-10 2.5s-7.8 2-10 2.6c-2.2.7-5.5 1.4-7.3 1.7-1.8.3-3.5.9-3.8 1.4-.3.5-1.8.9-3.4.9-1.6 0-3.2.4-3.5 1-.3.5-1.9 1-3.5 1s-3.1.4-3.4.9c-.3.5-2 1.1-3.8 1.4-5.7.9-26.4 6.1-30.6 7.8-1.3.5-3.4.9-4.7.9-1.3 0-2.7.4-3 1-.3.5-1.9 1-3.5 1s-3.1.4-3.4.9c-.3.5-2 1.1-3.8 1.4-5.4.9-9.2 1.8-11.3 2.7-1.1.5-3.1 1.1-4.5 1.4-3.8.7-14 3.3-18.5 4.6-2.2.7-5.5 1.4-7.3 1.7-1.8.3-3.5.9-3.8 1.4-.3.5-1.8.9-3.4.9-1.6 0-3.1.4-3.4.9-.3.5-2 1.1-3.8 1.4-1.8.3-5.1 1-7.3 1.7-2.2.6-5.1 1.4-6.5 1.7-1.4.2-3.2.7-4 1.1-1.7.7-12 3.1-16.8 3.9-1.8.3-3.5.9-3.8 1.4-.3.5-1.8.9-3.4.9-1.6 0-3.2.4-3.5 1-.3.5-1.9 1-3.5 1s-3.1.4-3.4.9c-.6.8-1.8 1.1-10.9 2.7-2 .3-4 1-4.3 1.5-.3.5-1.8.9-3.4.9-1.6 0-3.1.4-3.4.9-.3.5-2 1.1-3.8 1.4-7.7 1.3-15.7 3.3-16.4 3.9-.4.5-2 .8-3.5.8s-3.1.4-3.4 1c-.3.5-1.9 1-3.5 1s-3.1.4-3.4.9c-.3.5-2.3 1.2-4.3 1.5-9.1 1.6-10.3 1.9-10.9 2.7-.3.5-1.8.9-3.4.9-1.6 0-3.1.4-3.4.9-.3.5-2 1.1-3.8 1.4-1.8.3-6.2 1.3-9.8 2.2-3.6.9-7.6 1.8-9 2.1-1.4.3-3.4.9-4.5 1.4-1.9.8-4.7 1.5-11 2.7-1.6.3-3.4.9-4 1.3-2.5 1.9-12.3 1.9-41.4 0-29.3-1.8-34.1-2.5-34.1-5 0-.9 326.9-327.7 329.1-329.1 1.4-.8 2.4.6 8.1 11.2zm-788.3-8.9c.8 1.3 1 2.3.4 2.5-.6.2-1.9 1.1-2.9 1.9-1.5 1.2-1.2 1.2 1.5-.2l3.4-1.6 70.8 70.8 70.8 70.8-10.9 2.2c-17.5 3.5-30.5 7.6-52.6 16.5-2.9 1.2-3.9.9-14.5-4.3-12.2-5.9-28.3-12.4-38.9-15.6-8.4-2.6-26.2-6.2-30.9-6.2-2 0-4.1-.4-4.8-.8-.6-.4-2.5-6.5-4.3-13.6-9.8-40-10-72.9-.5-101.2 3.6-10.7 9.7-23.4 11.4-23.4.3 0 1.2 1 2 2.2zm941.3 19.3l13.9 8.2-11.3 9.4c-6.2 5.2-13.8 11.3-16.8 13.6-5.8 4.3-28.6 19.3-29.4 19.3-.3 0-2.8 1.4-5.5 3.2-2.8 1.7-5.3 2.9-5.5 2.7-.3-.2 1.4-3.3 3.5-6.9 10.6-17.2 18.2-36.8 23-59.2l1.2-5.8 6.5 3.6c3.5 2 12.7 7.3 20.4 11.9zm-967.6-8.7c-1.4 3.8-3.1 10.5-5.6 21.7-.5 2.2-1.4 10.7-2.1 19-1.5 19.5 0 42.4 4.2 64.5.6 3 1.5 6.7 1.9 8.2.9 2.8-.5 5.1-1.9 3.1-.3-.5-3.4-2.8-6.8-5.1-23.9-16.1-45.1-37.6-59.5-60.2l-3.6-5.8 20.3-14.3c20.7-14.5 53.6-36.1 54.2-35.5.2.1-.3 2.1-1.1 4.4zm1041.6 55.3c30.2 20.1 62.6 44.1 85.6 63.3 16.3 13.6 39.4 35.4 38.7 36.6-1 1.7-13.7 3.5-24 3.4-11-.1-17.1-1.2-30-5.5-6.2-2.1-34.4-15.8-42.5-20.5-2.5-1.5-6.5-3.8-9-5.2-41.2-23.2-58.7-30.5-87.5-36.3-9.4-1.9-14.1-2.2-33-2.2-21.2 0-30.8.9-45 4.3-8.1 1.9-8.1 1.4-.9-6.3 3.8-3.9 9.2-10.1 11.9-13.6l5-6.4.6 5.5c.5 4.8 4.8 13.7 6.8 13.9 7.6.8 9.8.3 18.1-4.5 18.5-10.7 39.9-20.4 59.2-26.6 16-5.2 20.9-6.6 29.3-8.3 3-.7 3.4-.4 16.7 8.4zm-1123.2 8.4c0 1.4-.5 1.3-3.7-.6-5.8-3.4-6.1-3.8-3.4-6l2.4-1.9 2.3 3.4c1.3 1.9 2.4 4.2 2.4 5.1zm7.8 9.7c.6 1.3 5.2 6.9 10.2 12.6 5 5.7 9 10.6 8.7 10.8-.2.2-3-.2-6.1-1-13.3-3.5-27.8-4.8-49.4-4.4-16.1.2-20.8 0-19.9-.9 3.7-3.5 16-13.3 16.8-13.3.4 0 2.5 1 4.6 2.1 2.1 1.2 5.8 3.3 8.3 4.7 2.5 1.3 4.9 2.8 5.5 3.3.5.5 3 .9 5.5.9 3.5 0 5.2-.5 6.7-2.3 3.2-3.4 6.3-9.5 6.3-12.2 0-3.1 1.3-3.2 2.8-.3zm1037.2 30.8c23.9 4.9 50 14.2 50 18 0 2.3 4.8 9.6 11.1 16.6 22.6 25.5 39.9 45.3 39.9 45.8 0 .3-1.3.6-2.9.6-1.7 0-3.2.4-3.5.9-.3.5-2 1.1-3.8 1.4-1.8.3-6.2 1.3-9.8 2.2-3.6.9-7.6 1.8-9 2.1-1.4.3-3.4.9-4.5 1.4-2.1.9-5.9 1.8-11.3 2.7-1.8.3-3.5.9-3.8 1.4-.3.5-1.8.9-3.4.9-1.6 0-3.2.4-3.5 1-.3.5-1.9 1-3.5 1s-3.1.4-3.4.9c-.3.5-2 1.1-3.8 1.4-4.8.8-15.1 3.2-16.8 3.9-1.5.6-4.9 1.4-10.5 2.5-1.6.3-3.4.9-4 1.3-1.6 1.2-7.5 2-7.5 1.1 0-.5-2.6-4.9-5.9-9.7-13.4-20.3-34.3-38.4-60.2-52.2-9-4.7-30.3-13.5-41.1-16.9-4.3-1.3-7.8-2.8-7.8-3.1 0-.8 9.3-5.3 21-10.3 18.6-7.8 42.7-14.2 61-16.3 6.2-.7 31.3.2 37 1.4zm-1045.5 2.6c21.6 3.8 40.3 9.8 61.5 19.6 6.1 2.8 6.4 3.1 4.6 4.4-1.1.8-2.6 1.4-3.4 1.4-3.3 0-23.4 7.4-33.1 12.2-16.3 8-27.2 15.9-40.6 29.3-12 11.9-21.4 24.4-27 35.5-3.5 7.1-4.5 8.2-5.9 7.1-1-.8-3.5-1.4-11.4-2.8-1.8-.3-3.5-.9-3.8-1.4-.3-.5-1.8-.9-3.4-.9-1.6 0-3.1-.4-3.4-.9-.3-.5-2-1.1-3.8-1.4-1.8-.3-5.1-1-7.3-1.7-2.2-.6-6.7-1.8-10-2.6-11.3-2.8-13-3.3-17-4.4-2.2-.7-5.5-1.4-7.3-1.7-1.8-.3-3.5-.9-3.8-1.4-.3-.5-1.8-.9-3.4-.9-1.6 0-3.1-.4-3.4-.9-.3-.5-2-1.1-3.8-1.4-1.8-.3-5.1-1-7.3-1.7-2.2-.6-6.6-1.7-9.8-2.5-3.2-.7-6-1.5-6.3-1.8-1.9-1.9 69.3-71.8 75.9-74.6 8-3.3 28.9-7.7 41.2-8.5 7.9-.5 23.3.5 32 2zm889.7 35.1c-1.7 3.2-22.3 22.5-30.9 29.1-7.6 5.8-36.7 25.2-37.7 25.2-.3 0-2.9 1.4-5.8 3.1-5.6 3.3-43 22.3-50.8 25.7-2.5 1.1-6.7 3-9.4 4.2-17.7 8-43.4 16.6-44.9 15.1-3.6-3.6 38.3-36.2 83.3-64.8 27.1-17.2 52.9-28.4 83.9-36.4 6.3-1.6 11.6-3.1 11.9-3.4 1.1-1.1 1.3.4.4 2.2zm-772.4 1.4c16.6 4.4 28.2 8.6 43.2 15.5l7.4 3.5-2.9 1.8c-1.7.9-6.9 4.1-11.7 6.9-4.8 2.9-9 5.2-9.4 5.2-2.1 0-36.4-32.2-36.4-34.2 0-1.2 1.2-1 9.8 1.3zm-26.1 4.2c4.2 5.5 22.9 24.6 31.8 32.6l7 6.3-3 2.1c-19.4 14-46.3 39.5-53.1 50.3-4.4 6.9-4.8 7.3-7.8 6.8-1.7-.3-4-.9-5.1-1.4-2.1-.9-5.9-1.8-11.3-2.7-1.8-.3-3.5-.9-3.8-1.4-.3-.5-1.6-.9-3-.9-1.3 0-3.2-.4-4.2-.9-.9-.5-5.3-1.6-9.7-2.6-4.4-.9-8.8-2.1-9.7-2.6-1-.5-2.9-.9-4.2-.9-1.4 0-2.7-.4-3-.9-.3-.5-2.2-1.2-4.1-1.5-1.9-.3-5.1-.9-7-1.2-1.9-.3-3.8-1-4.1-1.5-.3-.5-1.8-.9-3.4-.9-1.6 0-3.2-.5-3.5-1-.3-.6-1.6-1-2.7-1-4 0-11.9-2.9-12.5-4.6-.2-.6 3.2-6.4 7.6-13 16.2-24.3 34.8-39.7 64.1-52.7 10.6-4.7 31-10.5 37.5-10.6 3.6 0 4.4.4 7.2 4.2zm191.7 5.6c15.1-.5 19.9-.1 33.6 2.7 16.6 3.3 36.3 10 52.4 17.7 15.5 7.5 21.1 10.9 32.9 20.4 23.2 18.6 36.2 31.6 49.4 49.1 8.9 11.8 22.2 40.7 19.8 43-.4.4-9.9.8-21.3 1-15.1.2-21.2 0-23-.9-1.8-1-4.8-1-14.5-.1-6.7.7-17.5 1.2-23.9 1.2h-11.8v-5.3c0-3.2-.6-6.2-1.6-7.7-2.7-4-13.5-14.8-18.5-18.5-10.5-7.8-38-19.7-51.2-22.1-4.5-.9-8.6-2-9.1-2.5-1.2-1.1-24.9-1.2-24.3-.2.3.5-2.3.8-5.6.9-20.3.1-29.4.7-39.4 2.6-6.2 1.1-11.1 2.3-10.8 2.7.2.4-3.1 1.6-7.3 2.5-11.1 2.6-34.6 10.6-50.2 17.1-21.4 8.9-25.9 10.5-36.8 13.4-5.6 1.5-10 2.9-9.7 3.3.3.3-4.4 1.3-10.5 2.3-9.1 1.4-12 1.5-16.1.5-2.7-.7-4.9-1.3-4.9-1.5 0-.8 3.3-8.1 3.9-8.5 1-.7 8.2-14 7.5-14-1.2 0 8-12 12.8-16.6 11.9-11.4 38.4-32.5 42.8-34.2 2.1-.8 15.1-9.2 17.2-11.2 2.1-1.9 25.1-14 27.5-14.4 2.8-.6 17.7-6.9 18.4-7.8 2.5-3.6 57.5-17.1 61.3-15 .4.2 5.4.3 11 .1zm900.3 25.9c4.3 3.2 9.2 6.6 10.8 7.6 5.9 3.6 20.3 19.6 24 26.7 2 3.8 3.2 6.9 2.8 6.9-1.4 0-15.8-8.1-17.4-9.8-.8-1-3.7-3.3-6.3-5.2-8.8-6.5-10.8-8.3-14.6-13.4-2-2.8-7.6-9.2-12.4-14.1-4.8-5-9.1-9.8-9.7-10.8-1.6-2.8 13.7 5.3 22.8 12.1zm86.9.4c10.4 13 23.8 33.8 30.4 47.2l6.2 12.3-3.9 5.9c-16 24.7-35.8 47.3-53.4 61.1l-6.7 5.2-2.3-2.6c-1.3-1.4-4.9-3.8-7.9-5.3s-7.6-4.6-10.2-6.9c-5.4-4.8-6.8-8.9-4.3-12.7 1.5-2.3 1.4-2.7-1.6-8.4-5.8-10.8-17.3-19.7-31.6-24.4l-5.3-1.8 1.7-3.1c1.2-2.5 8.6-14.7 9.9-16.5.1-.2 2.2.9 4.6 2.6 14.8 10.1 31.3 13.9 41.3 9.3 5.8-2.6 6.7-4.3 7.3-12.5.7-11.4-3.9-24.2-12.7-35.4-2.3-2.8-4.1-5.5-4.1-5.9 0-2 14.2-9.5 24-12.8 3-.9 6.4-2.1 7.5-2.6 3.7-1.4 4.5-.9 11.1 7.3zm-101.8 28.7l10.2 10.9-8.2 13.6-8.3 13.6-14 .5c-20.3.5-44.9 4.6-64.9 10.7-4.7 1.4-10 2.1-15.7 2.2-7.2.1-9.1.4-10.9 2.1-3.2 2.9-2.1 7.8 2.8 12.9 6.3 6.5 9.9 12.2 12.4 19.4 4.1 12 2.6 30.7-3.5 43.2-2.1 4.3-2.6 4.6-11 7.6-4.9 1.8-9.8 3.4-11 3.7-1.2.3-5.1 1.3-8.7 2.2-12.3 3-14.5 3.5-26 5-6.3.9-12.7 1.7-14.1 2-1.5.2-2.9.1-3.3-.2-.3-.3 2.7-4.1 6.8-8.3 21.8-22.8 36.8-51.3 42.1-80 .9-4.7 1.9-16.3 2.2-25.8.6-16.4.7-17.3 2.7-17.7 7.9-1.8 17.3-4.1 22.1-5.5 2.2-.7 5.5-1.4 7.3-1.7 1.8-.3 3.5-.9 3.8-1.4.3-.5 1.8-.9 3.4-.9 1.6 0 3.2-.5 3.5-1 .3-.6 1.9-1 3.5-1s3.1-.4 3.4-.9c.3-.5 2-1.1 3.8-1.4 5.7-.9 26.4-6.1 30.6-7.8 1.3-.5 3.4-.9 4.7-.9 1.3 0 2.7-.5 3-1 .3-.6 1.9-1 3.5-1s3.2-.5 3.5-1c.3-.6 1.9-1 3.5-1s3.2-.5 3.5-1c.3-.6 2.1-1 3.8-1 2.8 0 4.6 1.5 13.5 10.9zm-1322.3-5.9c1.1.5 3.1 1.1 4.5 1.4 1.4.2 4.3 1 6.5 1.6 5.6 1.6 11.8 3.2 17 4.4 5.6 1.3 11 2.8 13 3.6 2.1.9 6 1.8 11.3 2.7 1.8.3 3.5.9 3.8 1.4.3.5 1.8.9 3.4.9 1.6 0 3.1.4 3.4.9.3.5 2 1.1 3.8 1.4 1.8.3 7.8 1.7 13.3 3.2 11.1 3 16.3 4.3 21.5 5.3 3.4.7 3.5.9 3.7 5.7.4 9 2.5 25.9 4 32.4 6.3 27.8 24.4 59.8 48.5 85.6 3.7 4 6.8 7.6 6.8 7.9 0 1.6-20.3-.6-39.6-4.4-16.6-3.2-40.5-11.7-51.7-18.2-2.6-1.5-5-2.8-5.4-2.8-1.1 0-17-11.5-24.3-17.6-8.5-7.1-16.6-16-26.1-28.4-9.4-12.4-11.4-15.6-39.9-63.2l-2.9-4.6 9-10.5c9.5-11 10.2-11.3 16.4-8.7zm1185.2 42.3c-.4 7.3-1.1 14.6-1.6 16.3-.4 1.6-1.4 5.4-2.1 8.4-4.3 19.8-16.3 43.2-30.9 60.8-8.2 9.8-23.7 24.2-26.1 24.2-.7 0-5.1-1.3-9.9-2.9-19.9-6.6-30.2-9-56.3-13.1-15.7-2.4-39.2-3.2-59.8-2.1-49.4 2.7-75.8 5.8-98 11.3-6.3 1.6-11.9 4.5-15.7 8.1-3 2.8-3.3 3.6-3.3 9.3 0 4.6.5 6.8 2 8.7 3.9 5 17.3 9.8 35 12.6 4.1.7 10 1.6 13 2.1 12.7 2.1 46.6 4.7 71.5 5.6l19 .6-10.9 5.5c-20.6 10.3-46.2 19.5-73.6 26.3-13.2 3.3-12.8 3.3-23-.1-1.4-.4-5.9-1.5-10-2.4-4.1-.9-8.5-2.1-9.8-2.6-1.3-.5-3.4-.9-4.7-.9-1.3 0-2.7-.5-3-1-.3-.6-1.9-1-3.5-1s-3.2-.5-3.5-1c-.3-.6-1.9-1-3.5-1s-3.2-.5-3.5-1c-.3-.6-1.7-1-3-1s-3.4-.4-4.7-.9c-5.4-2-31.9-9-37.6-9.8-1.8-.3-3.5-.9-3.8-1.4-.8-1.4 6-13.6 12.9-22.9 9.4-12.6 23.9-28.2 37.7-40.6l12.2-10.9-21.8-.6c-33-1-37.2-1.2-33.9-1.6 1.7-.3 3.4-.9 4-1.4.5-.5 2.1-.9 3.6-.9s3-.4 3.3-.9c.3-.5 2-1.1 3.8-1.4 4.8-.8 9.1-1.8 10.8-2.5 1.7-.7 12-3.1 16.8-3.9 1.8-.3 3.5-.9 3.8-1.4.3-.5 1.8-.9 3.4-.9 1.6 0 3.2-.5 3.5-1 .3-.6 1.9-1 3.5-1s3.1-.4 3.4-.9c.3-.5 2-1.1 3.8-1.4 1.8-.3 5.1-1 7.3-1.7 2.2-.6 5.1-1.4 6.5-1.7 1.4-.2 3.2-.7 4-1.1 1.7-.7 12-3.1 16.8-3.9 1.8-.3 3.5-.9 3.8-1.4.3-.5 1.8-.9 3.4-.9 1.6 0 3.2-.5 3.5-1 .3-.6 1.9-1 3.5-1s3.1-.4 3.4-.9c.3-.5 2-1.1 3.8-1.4 5.4-.9 9.2-1.8 11.3-2.7 1.1-.5 3.1-1.1 4.5-1.4 1.4-.3 5.4-1.2 9-2.1 3.6-.9 8-1.9 9.8-2.2 1.8-.3 3.5-.9 3.8-1.4.3-.5 1.8-.9 3.4-.9 1.6 0 3.2-.5 3.5-1 .3-.6 1.9-1 3.5-1s3.1-.4 3.4-.9c.6-.8 1.8-1.1 10.9-2.7 2-.3 4-1 4.3-1.5.3-.5 1.6-.9 3-.9 1.3 0 3.2-.4 4.2-.9.9-.5 5.3-1.7 9.7-2.6 4.4-1 8.8-2.1 9.7-2.6 1-.5 2.9-.9 4.2-.9 1.4 0 2.8-.5 3.1-1 .3-.6 2.1-1 4-1s3.7-.5 4-1c.3-.6 1.9-1 3.5-1s3.2-.5 3.5-1c.3-.6 1.9-1 3.5-1s3.2-.5 3.5-1c.3-.6 1.9-1 3.5-1s3.1-.4 3.4-.9c.3-.5 2-1.1 3.8-1.4 7.7-1.3 15.7-3.3 16.4-4 .4-.4 2-.7 3.5-.7s3-.4 3.3-.9c.3-.5 2.3-1.2 4.3-1.5 9.1-1.6 10.3-1.9 10.9-2.7.3-.5 1.8-.9 3.4-.9 1.6 0 3.2-.5 3.5-1 .3-.6 1.9-1 3.5-1s3.1-.4 3.4-.9c.3-.5 2-1.1 3.8-1.4 4.8-.8 15.1-3.2 16.8-3.9 1.7-.7 6-1.7 10.8-2.5 1.8-.3 3.5-.9 3.8-1.4.3-.5 1.8-.9 3.4-.9 1.6 0 3.2-.5 3.5-1 .3-.6 2-1 3.7-1h3.1zm-1190.9 40.2c20.2 30 44.7 53.3 70 66.5 3.4 1.8 6.2 3.6 6.2 4.1 0 1.2-25.6 1.1-36.1-.1-14.7-1.7-24.3-3.1-28.4-4-2.2-.4-6.7-1.4-10-2.1-13.2-2.6-31.7-8.2-43-12.9-16.7-7-43.5-22.4-43.5-25.1 0-1.3 15.2-24.8 22.7-35.2 3.6-5.1 12.2-16.5 19.1-25.4l12.5-16.1 13.9 23.1c7.7 12.8 15.1 25 16.6 27.2zm135.7-47.5c2.2.6 6.7 1.8 10 2.6 11.3 2.8 13 3.3 17 4.4 2.2.7 5.5 1.4 7.3 1.7 1.8.3 3.5.9 3.8 1.4.3.5 1.8.9 3.4.9 1.6 0 3.2.4 3.5 1 .3.5 1.7 1 3 1s3.4.4 4.7.9c1.3.5 4.1 1.4 6.3 1.9 13.5 3.6 21.4 5.5 24.3 5.9 2.6.4 3.2.9 2.6 2.2-5.9 14.1-3.9 26.4 4.9 31.5 6.3 3.6 11.6 4.7 23.7 4.7 17.4 0 44-5.2 55.3-10.7l5.3-2.6 8.5 2.2c4.6 1.2 10 2.6 11.9 3.2 1.9.5 4.6 1.2 6 1.4 1.4.3 3.4.9 4.5 1.4 1.1.5 3.1 1.1 4.5 1.4 1.4.2 4.3 1 6.5 1.6 2.2.6 5.1 1.4 6.5 1.6 1.4.3 3.4.9 4.5 1.4 1.1.5 3.1 1.1 4.5 1.4 1.4.3 5.4 1.2 9 2.1 3.6.9 8 1.9 9.8 2.2 1.8.3 3.5.9 3.8 1.4.3.5 1.5.9 2.6.9 1.9 0 5.8 1 11.2 2.9 1.2.5-1.6 1.3-8 2.5-10.9 1.9-35.7 7.6-35.2 8.1.2.2 10-.8 21.8-2.1 29.3-3.4 41.2-3.5 51.5-.7 4.4 1.2 8.9 2.4 10 2.6 1.1.2-1.4.7-5.5 1.1-46 4.6-87.4 9.7-130.5 16.1-12.6 1.8-29.5 3.6-37.5 4-30.1 1.3-57.4 6.6-76 14.6l-5.3 2.3-8.6-9c-26-26.9-44.8-58-52.2-86.4-1.5-5.7-3.9-20.2-3.9-23.9 0-3.2.1-3.3 3.3-2.8 1.7.3 5 1 7.2 1.7zm287.6 20.1c11.5 3.9 13.2 4.2 24.1 4.3 11.6.1 11.7.1 14.7-2.8l3.1-3 8.3 3.3c20.9 8.5 35.7 17.2 40.2 23.9 3.2 4.7 3.2 8.3-.1 12.2-5 5.8-8 6.7-28.2 7.4-10.1.4-23.2 1.1-29 1.6-6.9.6-11 .6-11.6 0-.6-.6-2.2-1-3.7-1s-3.1-.5-3.4-1c-.3-.6-1.6-1-2.7-1-1.2 0-3.5-.5-5.2-1-1.7-.6-6.9-1.9-11.6-3.1-4.7-1.1-10.1-2.5-12-3.1-1.9-.5-5-1.2-6.8-1.5-1.8-.3-3.5-.9-3.8-1.4-.3-.5-1.8-.9-3.4-.9-1.6 0-3.1-.4-3.4-.9-.3-.5-2-1.1-3.8-1.4-1.8-.3-5.1-1-7.3-1.7-4-1.1-5.7-1.6-17-4.4-3.3-.8-7.8-2-10-2.6-2.2-.7-5.5-1.4-7.3-1.7-1.8-.3-3.5-.9-3.8-1.4-.3-.5-2-.9-3.7-1h-3.2l4.3-1.9c15.7-7 59.8-19.2 72.3-19.9.8-.1 7.1 1.8 14 4zm890.9 11c4.7.6 10.1 1.1 12 1 7.3 0 25.1 7.7 28 12.1.8 1.4 1.7 6 2 11.1l.6 8.7 7.9 8.1c4.4 4.4 10.8 9.9 14.2 12.2 7.5 5.1 40.6 37.6 39 38.2-3.4 1.3-17.6 3.7-28.7 5-22.8 2.7-50 1.5-89.5-3.9-9.9-1.4-26.1-3.4-36-4.6-9.8-1.1-18.1-2.3-18.4-2.5-.2-.3.8-2.2 2.2-4.2 3.2-4.8 8.8-23.3 7-23.3-.5 0-.8-8.2-.9-18.3-.1-15.9-.3-18.9-2.2-23.9l-2.1-5.7 5.5-1.6c12.9-3.7 40.5-9.1 48.4-9.4 1.4-.1 6.4.4 11 1zm164.1 19.9c.5 7.4 1.1 14.2 1.3 15 1.9 7 2 6.7-4.2 7.9-3.1.5-11.1 2.2-17.7 3.6s-13.3 2.8-15 3.1c-1.6.3-4.2 1-5.7 1.6-5.2 1.9-4.6-.3 1.5-6 9-8.3 21.7-22.5 30-33.4 8.6-11.3 8.4-11.5 9.8 8.2zm-889.7 21.8l2.7 2.9-30.3.6c-16.7.3-39.5 1.1-50.7 1.8-14.2.8-21.4.9-23.5.1-1.7-.5-6.7-1.8-11.1-2.8l-8-1.9 13-.8c19.9-1.2 59.6-2.4 83.6-2.5l21.5-.2zm900 20.1l2.5 4.8-5.7.6c-5.6.6-15.6 1.8-31.7 3.7-19.5 2.4-21.9 2.4-23.8.2-1.9-2-1.9-2.1 2-2.7 2.1-.4 8.3-1.8 13.8-3.1 5.5-1.2 14.7-3.3 20.5-4.5 5.8-1.2 11.6-2.5 13-2.9 5.5-1.8 6.8-1.2 9.4 3.9zm-1581.9 12.2c2.2.6 5.5 1.3 7.3 1.6 1.7.3 3.2 1 3.2 1.6 0 .6-2.8.8-8.2.3-11.9-1-13-1.4-11.7-3.8.8-1.5 1.7-1.8 3.2-1.3 1.2.4 4 1.1 6.2 1.6zm1587.9 13.4l-1.6 3.5h-40.8l-3.2-2.9-3.2-2.8 10-1.3c5.4-.6 16.7-1.9 24.9-2.9l15-1.7.3 2.3c.2 1.2-.4 3.8-1.4 5.8zm-454.8-5.5c13.5 1 21.9 2.2 34.4 4.7 4.1.9 8.6 1.8 10 2 7.8 1.5 29 8.2 29 9.1 0 2.2-47.3 13.2-48.4 11.3-.2-.3-.7-2.1-1.1-3.9l-.7-3.2-5.9 4.7-6 4.7-16.6.4c-29.4.8-82.1-3.3-107.8-8.3-10.8-2.2-20.5-5.4-20.5-6.9 0-1.2 7.6-3.7 20-6.5 14.1-3.2 43.8-6.4 74-8 21.5-1.2 25.5-1.2 39.6-.1zm-1127.8 8.6c5.6.3 10.2 1 10.2 1.5s-7.9.9-17.5.9c-17.5 0-17.6 0-16.5-2.1 1-1.9 1.8-2 7.3-1.5 3.4.3 10.8.8 16.5 1.2zm172.8-.7c1.2 1.2 16.4 6.5 23.2 8.1 5.7 1.3 6.9 3.6 2.5 4.6-8.2 1.8-19.9 5.7-26 8.7-2.5 1.1-4.6.1-2.4-1.2 1-.6 1.2-3.4.9-11-.3-10-.1-11 1.8-9.2zm1127.8 6.7c-1.2 1.7-2.4 2.4-4.1 2.2-3.6-.5-3.2-2.2.7-3.5 5-1.7 5.2-1.6 3.4 1.3zm-49.9 8.9c10.1 1 36 5.7 37.1 6.8.7.7-25.1 20.7-26.6 20.7-.4 0-2.9-2.8-5.6-6.3-2.6-3.4-7.9-9.6-11.6-13.8-3.7-4.2-6.8-7.9-6.8-8.4 0-.4 1.5-.5 3.3-.2 1.7.3 6.4.9 10.2 1.2zm302.2 3.1c-3.7 3.4-4 3.5-9 2.8-2.9-.4-8.1-1-11.7-1.3l-6.5-.6 5.5-2.2c4.3-1.7 7.6-2.2 15.5-2.2h10zm-1552.2-.5c-10.9 1.1-22.9 2.5-29.2 3.4-5.6.8-5.9.6-4.3-2.6 1-1.8 2.2-1.9 21.3-1.7 16.6.1 18.8.3 12.2.9zm1227.8 11.7c5.2 5.6 11.5 12.9 14.1 16.2l4.8 6.1-7.4 3.3c-14 6.5-20.9 8.1-34.8 8.1-12.3 0-12.6-.1-20-3.6-4.1-2-9.4-5.3-11.8-7.4-4.1-3.6-14.2-16.8-14.2-18.7 0-.4 1.3-.8 2.9-.8 9 0 50.1-10.8 53.5-14.1 1.4-1.3 2.9 0 12.9 10.9zm-997-3.9c-37.5 19.6-60.5 35.4-96.3 66.2-31.6 27.2-53.8 45.9-54.4 45.9-.8 0 17.5-29.9 24.2-39.5 8.6-12.4 15.2-20.2 25.4-30.1 21.4-20.9 39.6-31.2 75.3-42.4 5.5-1.7 31.3-6.4 37.5-6.9.8 0-4.4 3-11.7 6.8zm1142.9-2.5c13.9 1.9 28.4 3.7 32.1 4.1 6 .6 26.2 5.7 27.4 6.9.3.3-1.9.3-4.8 0-3-.2-17.3-1.4-31.9-2.5-50.5-3.9-54-4.3-60.9-7.9-3.3-1.8-6.1-3.4-6.1-3.6 0-1.4 22.7.1 44.2 3zm-1207.8-1.8c2 .8 2.1 2.4.2 2.4-3.9 0-26.7 14.4-38.3 24.2-19.4 16.4-34.7 35.9-54.8 69.8-15.2 25.6-21.9 36.1-29.7 46.7-7.4 9.9-18.1 20.4-26.8 26.2-10.2 6.9-18.7 10.2-41 16.2-4.1 1.1-9.1 2.5-11 3-1.9.6-4.6 1.3-6 1.5-1.4.3-3.4.9-4.5 1.4-1.1.5-3.1 1.1-4.5 1.4-1.4.2-4.1.9-6 1.5-1.9.5-7.3 1.9-12 3-10.9 2.7-15.9 4.1-18.8 5.2-1.3.5-3.4.9-4.7.9-1.3 0-2.7.4-3 1-.3.5-1.6 1-2.7 1-2 0-6.8 1.3-11.3 3.1-1.1.4-3.2 1-4.7 1.3-1.6.3-3.9.9-5.3 1.2-3.4.8-3.3-1.5.1-4.7 7.4-7 20.4-26.2 40-59.1 28.1-47.4 38.8-62.3 58.7-82.6 8.4-8.5 31.1-27.2 33.1-27.2.3 0 3.1-1.6 6.2-3.6 14.5-9.3 38.8-19 60.9-24.3 25.1-6.1 39.3-8 65.5-9.1 10.2-.4 18.6-.7 18.7-.8.1-.1.8.1 1.7.4zm1341.8 9.3c4.2.3 7.9.9 8.3 1.3.4.3-2.2 1-5.7 1.5-5 .7-7.5.5-12.3-.9-3.3-1-6.8-1.8-7.8-1.8-1.1 0-1.5-.5-1.1-1.1.4-.8 2.4-.9 5.8-.4 2.8.4 8.6 1 12.8 1.4zm-1506.2 1.1c0 .5-1.1 1-2.5 1s-3.3.4-4.3.9c-.9.5-7.8 2.3-15.2 4-7.4 1.8-15.6 3.7-18.2 4.3-2.6.7-5 .9-5.4.6-.3-.3.2-2 1-3.6 1.4-2.7 2.2-3.1 7.3-3.6 3.2-.4 8.8-1.1 12.5-1.6 3.7-.6 8.6-1 11-1 2.4 0 5-.5 5.8-1 2-1.3 8-1.3 8 0zm-28.4 26.2c-5.8 3.2-24.5 23.5-35.7 38.5-4 5.4-7.6 10.2-8.1 10.8-1.2 1.4.1-2.2 9.5-25.4l8.2-20.4 6-1.3c3.3-.8 8.5-1.9 11.5-2.5 3-.7 6.2-1.6 7-2 2.3-1.2 3.9 1 1.6 2.3zm946.4 4.7c5 1.4 22.9 6.1 27 7.1 1.9.5 5.3 1.4 7.5 2 2.2.7 5.5 1.4 7.3 1.7 1.8.3 3.5.9 3.8 1.4.3.5 1.7.9 3.2.9 1.5 0 3.4.4 4.2 1 1.3.8 1.3.9 0 1.4-2.7.8-23.6 2.6-38.3 3.3l-14.4.6-2.7-3.6c-2.9-3.8-5.6-11.3-5.6-15.5 0-2.6 0-2.6 8-.3zm-1077.3 131.7c-.3.3-1.2.4-1.9.1-.8-.3-.5-.6.6-.6 1.1-.1 1.7.2 1.3.5zm-10 2c-.3.3-1.2.4-1.9.1-.8-.3-.5-.6.6-.6 1.1-.1 1.7.2 1.3.5zm24.7 20.6c-1.1 1.8-6.9 6.7-15.1 12.9-7.8 5.9-20.9 12.8-28.3 14.9-11.1 3.1-16 5.8-16 8.7 0 .7-.9 1.3-1.9 1.3-1.1 0-2.3.4-2.6 1-.3.5-1.6 1-2.7 1-1.2 0-3.7.5-5.5 1.2-3.1 1.1-3.5 1-7.1-2.4-2-2-5.3-4.4-7.2-5.3-1.9-1-4.8-2.8-6.5-4.1-6.9-5.1-18.2-9.8-33.4-13.9-4.6-1.2-7.7-2.4-7-2.8.8-.3 6.8-2.9 13.4-5.7 9.8-4.2 12.6-5.1 15.5-4.5 30.2 5.4 63.5 4.6 99.5-2.5 2.2-.4 4.4-.8 4.8-.9.5 0 .5.4.1 1.1zm119.6 7.3c0 .3-10.8 9.5-24.1 20.5l-24.1 19.9-6.6-3.3c-10.8-5.4-16.2-7.7-24.7-10.7-4.4-1.5-7.3-2.9-6.5-3.2.8-.2 3.1-.9 5.1-1.6 1.9-.6 4.5-1.1 5.7-1.1 1.1 0 2.4-.5 2.7-1 .3-.6 1.9-1 3.5-1s3.1-.4 3.4-.9c.3-.5 2-1.1 3.8-1.4 1.8-.3 6.2-1.3 9.8-2.2 3.6-.9 8.1-2 10-2.5 1.9-.5 5.1-1.3 7-1.9 1.9-.5 4.6-1.3 6-1.6 1.4-.4 3.4-1 4.5-1.5 2.1-.9 5.9-1.8 11.3-2.7 1.8-.3 3.5-.9 3.8-1.4.3-.5 1.7-.9 3.2-.9 1.5 0 3.4-.5 4.2-1 1.7-1.1 2-1.2 2-.5zm-111.4 42.6c2.7.6 5.5 1.5 6.3 1.8 2.3 1.2 2.5 3.1.2 3.1-1.1 0-3 .4-4.3.9-1.3.5-7.9 3.1-14.8 5.7s-14 5.6-15.8 6.6c-1.8 1-3.7 1.8-4.2 1.8-1.6 0-24.5 13.2-30.4 17.6l-5.9 4.4-5.6-3.1c-3.1-1.6-6.7-3.8-8-4.8l-2.4-1.9 2.3-4.8c1.2-2.7 3.1-6.1 4.1-7.5 1-1.4 2.3-4.8 3-7.5 1.4-5.5 2.2-6.4 6.1-6.4 1.5 0 2.9-.4 3.3-.9.3-.6 2.7-.8 5.3-.5 3.3.4 7.6-.2 14.7-2.2 5.5-1.5 12-3.1 14.5-3.5 5.9-1 25.3-.3 31.6 1.2zm24.4 30.6c-25.4 24-52.8 41.5-84.8 54.4-4 1.6-7.5 2.9-7.9 2.9-.3 0-.3-3 0-6.8l.5-6.7 6.3-5.9c17.7-16.3 49.6-32.7 84.4-43.3 4.4-1.3 8.5-2.6 9-2.8.6-.2 1.2-.4 1.4-.4.2-.1-3.8 3.8-8.9 8.6z" fill="#20c2ef" stroke="#000" stroke-width=".1"/></svg>