<svg xmlns="http://www.w3.org/2000/svg" viewBox="0 0 512 512"><path d="M327.832 51.182v92.217h-29.121V51.182c0-8.042 6.519-14.561 14.561-14.561s14.56 6.519 14.56 14.561zm-194.141 51.447c0-5.361-4.346-9.707-9.707-9.707H104.57c-5.361 0-9.707 4.346-9.707 9.707v40.77h38.828v-40.77zM75.449 494.793c0 5.361 4.346 9.707 9.707 9.707h50.477c5.361 0 9.707-4.346 9.707-9.707V463.73H75.449v31.063zm409.637-331.981h-31.063v99.012h31.063c5.361 0 9.707-4.346 9.707-9.707v-79.598c0-5.361-4.346-9.707-9.707-9.707zm0 145.606h-31.063v38.828h31.063c5.361 0 9.707-4.346 9.707-9.707v-19.414c0-5.361-4.346-9.707-9.707-9.707zM366.66 494.793c0 5.361 4.346 9.707 9.707 9.707h50.477c5.361 0 9.707-4.346 9.707-9.707V463.73H366.66v31.063z" fill="#909b91"/><path d="M504.5 395.781v67.464c0 5.361-4.346 9.707-9.707 9.707H17.207c-5.361 0-9.707-4.346-9.707-9.707v-67.464c0-5.361 4.346-9.707 9.707-9.707h250.441c0-10.722 8.692-19.414 19.414-19.414h157.254c10.722 0 19.414 8.692 19.414 19.414h31.063c5.361 0 9.707 4.346 9.707 9.707z" fill="#d6e2d0"/><path d="M483.145 434.124v-38.343c0-5.361-4.346-9.707-9.707-9.707h21.355c5.361 0 9.707 4.346 9.707 9.707v38.343h-21.355z" fill="#c7d9c4"/><path d="M46.328 269.59V162.813c0-21.444 17.384-38.828 38.828-38.828h300.918c0-5.361 4.346-9.707 9.707-9.707 5.361 0 9.707 4.346 9.707 9.707h19.414c21.444 0 38.828 17.384 38.828 38.828v223.262H267.648V269.59c0-10.722-8.692-19.414-19.414-19.414H167.08a19.414 19.414 0 00-19.037 15.607l-1.523 7.615c-1.391 6.954-6.401 12.403-12.828 14.575v1.032c0 5.361-4.346 9.707-9.707 9.707H104.57c-5.361 0-9.707-4.346-9.707-9.707H65.742c-10.722-.001-19.414-8.693-19.414-19.415zM7.5 424.902v38.343c0 5.361 4.346 9.707 9.707 9.707h477.586c5.361 0 9.707-4.346 9.707-9.707v-38.343H7.5z" fill="#afc1a9"/><path d="M504.5 424.902v38.343c0 5.361-4.346 9.707-9.707 9.707h-21.355c5.361 0 9.707-4.346 9.707-9.707v-38.343H504.5zm-79.598-300.918h-19.414c21.444 0 38.828 17.384 38.828 38.828v223.262h19.414V162.813c0-21.445-17.384-38.829-38.828-38.829z" fill="#a7b8a1"/><path d="M33.166 372.488h162.222c3.303 0 6.393 1.628 8.26 4.352 3.512 5.124 1.562 12.176-4.085 14.766l-81.111 37.209a10.017 10.017 0 01-8.352 0l-81.111-37.209c-5.646-2.59-7.597-9.642-4.085-14.766a10.02 10.02 0 018.262-4.352z" fill="#fa8c73"/><path d="M203.649 376.84c3.512 5.124 1.562 12.176-4.085 14.766l-81.111 37.209a10.017 10.017 0 01-8.352 0l-15.733-7.217c.021-.009.043-.015.063-.025l105.049-48.19a9.998 9.998 0 014.169 3.457z" fill="#f07462"/><path d="M133.691 287.972v22.387c0 5.361-4.346 9.707-9.707 9.707H104.57c-5.361 0-9.707-4.346-9.707-9.707v-21.355h32.619c2.163 0 4.25-.369 6.209-1.032z" fill="#909b91"/><path d="M366.66 240.469c-26.805 0-48.535 21.73-48.535 48.535s21.73 48.535 48.535 48.535 48.535-21.73 48.535-48.535-21.73-48.535-48.535-48.535zm0 67.949c-10.722 0-19.414-8.692-19.414-19.414s8.692-19.414 19.414-19.414 19.414 8.692 19.414 19.414-8.692 19.414-19.414 19.414zM138.545 196.787c0 13.403-10.865 24.268-24.268 24.268S90.01 210.19 90.01 196.787s10.865-24.268 24.268-24.268 24.267 10.865 24.267 24.268z" fill="#d6e2d0"/><path d="M327.832 181.934v-9.121c0-5.523 4.477-10 10-10h67.363c5.523 0 10 4.477 10 10v9.121c0 5.523-4.477 10-10 10h-67.363c-5.523 0-10-4.478-10-10z" fill="#909b91"/><path d="M415.195 12.354v106.778a4.854 4.854 0 01-4.854 4.854H381.22a4.854 4.854 0 01-4.854-4.854V12.354A4.854 4.854 0 01381.22 7.5h29.121a4.854 4.854 0 014.854 4.854z" fill="#f4998a"/><path d="M424.902 46.621v38.242c0 5.523-4.477 10-10 10H376.66c-5.523 0-10-4.477-10-10V46.621c0-5.523 4.477-10 10-10h38.242c5.523 0 10 4.477 10 10z" fill="#f26152"/><path d="M424.902 46.328v38.828c0 5.361-4.346 9.707-9.707 9.707h-19.414c5.361 0 9.707-4.346 9.707-9.707V46.328c0-5.361-4.346-9.707-9.707-9.707h19.414c5.361 0 9.707 4.346 9.707 9.707z" fill="#dd5652"/><path d="M494.793 378.574H471.23v-23.828h13.855c9.488 0 17.207-7.719 17.207-17.207v-19.414c0-9.488-7.719-17.207-17.207-17.207H471.23v-31.594h13.855c9.488 0 17.207-7.719 17.207-17.207V172.52c0-9.488-7.719-17.207-17.207-17.207h-14.462c-3.594-21.993-22.729-38.828-45.722-38.828h-2.207V100.53c5.75-2.871 9.707-8.815 9.707-15.667V46.621c0-6.852-3.958-12.796-9.707-15.667v-18.6C422.695 5.542 417.154 0 410.342 0h-29.121c-6.812 0-12.354 5.542-12.354 12.354v18.601c-5.75 2.871-9.707 8.815-9.707 15.667v38.242c0 6.852 3.958 12.796 9.707 15.667v15.954h-33.535V51.182c0-12.164-9.896-22.061-22.061-22.061s-22.061 9.896-22.061 22.061v65.303H141.19V102.63c0-9.488-7.719-17.207-17.207-17.207H104.57c-9.488 0-17.207 7.719-17.207 17.207v13.855h-2.207c-25.545 0-46.328 20.783-46.328 46.328V269.59c0 14.84 12.074 26.914 26.914 26.914h21.621v13.855c0 9.488 7.719 17.207 17.207 17.207h2.207v12.18h-2.207a7.5 7.5 0 000 15h2.207v10.242h-73.61a17.507 17.507 0 00-14.446 7.611 17.508 17.508 0 00-2.634 6.011C7.118 379.189 0 386.669 0 395.781v67.464c0 9.488 7.719 17.207 17.207 17.207h50.742v14.341c0 9.488 7.719 17.207 17.207 17.207h50.477c9.488 0 17.207-7.719 17.207-17.207v-14.341h206.32v14.341c0 9.488 7.719 17.207 17.207 17.207h50.477c9.488 0 17.207-7.719 17.207-17.207v-14.341h50.742c9.488 0 17.207-7.719 17.207-17.207v-67.464c0-9.488-7.719-17.207-17.207-17.207zM471.23 170.313h13.855a2.21 2.21 0 012.207 2.207v79.598a2.21 2.21 0 01-2.207 2.207H471.23v-84.012zm0 145.605h13.855a2.21 2.21 0 012.207 2.207v19.414a2.21 2.21 0 01-2.207 2.207H471.23v-23.828zM383.867 15h23.828v14.121h-23.828V15zm-9.707 58.242h21.621a7.5 7.5 0 000-15H374.16V46.621c0-1.378 1.122-2.5 2.5-2.5h38.242c1.378 0 2.5 1.122 2.5 2.5v38.242c0 1.378-1.122 2.5-2.5 2.5H376.66a2.503 2.503 0 01-2.5-2.5V73.242zm33.535 29.121v14.121h-23.828v-14.121h23.828zM306.211 51.182c0-3.893 3.167-7.061 7.061-7.061s7.061 3.167 7.061 7.061v65.303h-14.121V51.182h-.001zm-203.848 51.447a2.21 2.21 0 012.207-2.207h19.414a2.21 2.21 0 012.207 2.207v13.855h-23.828v-13.855zm28.682 94.158c0 9.246-7.522 16.768-16.768 16.768s-16.768-7.522-16.768-16.768 7.522-16.768 16.768-16.768 16.768 7.523 16.768 16.768zm-65.303 84.717c-6.569 0-11.914-5.345-11.914-11.914V162.813c0-17.274 14.054-31.328 31.328-31.328h21.621v34.429c-13.909 3.38-24.268 15.94-24.268 30.874s10.359 27.494 24.268 30.874v32.222a7.5 7.5 0 0015 0v-32.222c13.909-3.38 24.268-15.94 24.268-30.874s-10.359-27.494-24.268-30.874v-34.429h303.125c17.274 0 31.328 14.054 31.328 31.328v215.276H275.148V269.59c0-14.84-12.074-26.914-26.914-26.914H167.08c-12.785 0-23.884 9.099-26.392 21.636l-1.523 7.615c-1.11 5.55-6.023 9.578-11.683 9.578l-61.74-.001zm38.828 31.062a2.21 2.21 0 01-2.207-2.207v-13.855h23.828v13.855a2.21 2.21 0 01-2.207 2.207H104.57zm33.27 182.227a2.21 2.21 0 01-2.207 2.207H85.156a2.21 2.21 0 01-2.207-2.207v-14.341h54.891v14.341zm291.211 0a2.21 2.21 0 01-2.207 2.207h-50.477a2.21 2.21 0 01-2.207-2.207v-14.341h54.891v14.341zM497 417.402H375.396a7.5 7.5 0 000 15H497v30.843a2.21 2.21 0 01-2.207 2.207H17.207A2.21 2.21 0 0115 463.245v-67.464a2.21 2.21 0 012.207-2.207h2.382a17.508 17.508 0 006.274 4.849l81.11 37.208a17.498 17.498 0 0014.607 0l81.11-37.208a17.478 17.478 0 009.579-11.25 17.481 17.481 0 00-2.435-14.574 17.507 17.507 0 00-14.446-7.611h-53.204a7.5 7.5 0 000 15h53.204c.83 0 1.606.409 2.075 1.093.576.839.466 1.671.35 2.093a2.485 2.485 0 01-1.376 1.615l-81.111 37.208a2.51 2.51 0 01-2.097 0l-81.111-37.208c-.925-.424-1.258-1.194-1.375-1.615s-.226-1.253.35-2.093a2.513 2.513 0 012.074-1.092h73.611v6.086a7.5 7.5 0 0015 0v-58.508h2.207c9.488 0 17.207-7.719 17.207-17.207v-17.63c6.392-3.799 11.148-10.187 12.683-17.862l1.523-7.615c1.11-5.549 6.023-9.577 11.683-9.577h81.154c6.569 0 11.914 5.345 11.914 11.914v108.984h-31.49a7.5 7.5 0 000 15h266.134a2.21 2.21 0 012.207 2.207v21.621zM337.832 199.434h67.363c9.649 0 17.5-7.851 17.5-17.5v-9.121c0-9.649-7.851-17.5-17.5-17.5h-67.363c-9.649 0-17.5 7.851-17.5 17.5v9.121c0 9.649 7.851 17.5 17.5 17.5zm-2.5-26.621c0-1.378 1.122-2.5 2.5-2.5h67.363c1.378 0 2.5 1.122 2.5 2.5v9.121c0 1.378-1.122 2.5-2.5 2.5h-67.363a2.503 2.503 0 01-2.5-2.5v-9.121zm31.328 143.105c14.84 0 26.914-12.074 26.914-26.914S381.5 262.09 366.66 262.09s-26.914 12.074-26.914 26.914 12.074 26.914 26.914 26.914zm0-38.828c6.569 0 11.914 5.345 11.914 11.914s-5.345 11.914-11.914 11.914-11.914-5.345-11.914-11.914 5.345-11.914 11.914-11.914zm-11.429 147.812a7.5 7.5 0 01-7.5 7.5H191.934a7.5 7.5 0 010-15h155.798a7.5 7.5 0 017.499 7.5zm11.429-79.863c30.898 0 56.035-25.137 56.035-56.035s-25.137-56.035-56.035-56.035-56.035 25.137-56.035 56.035 25.137 56.035 56.035 56.035zm0-97.07c22.627 0 41.035 18.408 41.035 41.035s-18.408 41.035-41.035 41.035-41.035-18.408-41.035-41.035 18.408-41.035 41.035-41.035z"/></svg>