<svg xmlns="http://www.w3.org/2000/svg" viewBox="0 0 512 512"><path d="M37.5 105.417h437c16.569 0 30 13.431 30 30V434.5c0 16.569-13.431 30-30 30h-437c-16.569 0-30-13.431-30-30V135.417c0-16.569 13.431-30 30-30z" fill="#d6e2d0"/><path d="M504.5 134.375v301.167c0 15.993-13.038 28.958-29.121 28.958h-21.355c16.083 0 29.121-12.965 29.121-28.958V134.375c0-15.993-13.038-28.958-29.121-28.958h21.355c16.083 0 29.121 12.965 29.121 28.958z" fill="#afc1a9"/><path d="M37.5 47.5h437c16.569 0 30 13.431 30 30v299.083c0 16.569-13.431 30-30 30h-437c-16.569 0-30-13.431-30-30V77.5c0-16.569 13.431-30 30-30z" fill="#909b91"/><path d="M100.688 100.59c0 13.328-10.865 24.132-24.268 24.132s-24.268-10.804-24.268-24.132S63.017 76.458 76.42 76.458s24.268 10.805 24.268 24.132zm53.388-24.132c-13.403 0-24.268 10.804-24.268 24.132s10.865 24.132 24.268 24.132 24.268-10.804 24.268-24.132-10.865-24.132-24.268-24.132z" fill="#f26152"/><path d="M74.38 84.804c1.895 1.885 1.204 5.628-1.544 8.361s-6.513 3.42-8.408 1.536c-1.895-1.885-1.204-5.628 1.544-8.361 2.748-2.734 6.513-3.421 8.408-1.536zm77.427 0c-1.895-1.885-5.66-1.197-8.408 1.536s-3.44 6.477-1.544 8.361c1.895 1.885 5.66 1.197 8.408-1.536s3.439-6.477 1.544-8.361z" fill="#fa8c73"/><path d="M441.644 95.764v183.787c0 5.331-4.346 9.653-9.707 9.653h-28.641c-5.361 0-9.707-4.322-9.707-9.653V95.764c0-5.331 4.346-9.653 9.707-9.653h28.641c5.361 0 9.707 4.322 9.707 9.653z" fill="#efa96b"/><path d="M389.562 121.951h56.11c11.046 0 20 8.954 20 20v91.413c0 11.046-8.954 20-20 20h-56.11c-11.046 0-20-8.954-20-20v-91.413c0-11.046 8.954-20 20-20z" fill="#dd5652"/><path d="M423.942 253.364h-34.967c-10.722 0-19.414-8.643-19.414-19.306v-92.802c0-10.662 8.692-19.306 19.414-19.306h34.967c10.722 0 19.414 8.643 19.414 19.306v92.802c0 10.663-8.692 19.306-19.414 19.306z" fill="#f26152"/><path d="M284.061 277.339l-18.413-155.634c-2.242-18.947 12.645-35.594 31.83-35.594s34.072 16.648 31.83 35.594l-18.413 155.634c-.8 6.766-6.567 11.865-13.417 11.865s-12.616-5.099-13.417-11.865z" fill="#afc1a9"/><path d="M314.06 121.705l-18.413 155.634c-.471 3.983-2.671 7.378-5.793 9.505-3.122-2.127-5.322-5.522-5.793-9.505l-18.413-155.634c-1.934-16.344 8.883-30.968 24.206-34.679 15.323 3.712 26.14 18.335 24.206 34.679z" fill="#d6e2d0"/><path d="M278.478 327.431h174.141c5.523 0 10 4.477 10 10v18.611c0 5.523-4.477 10-10 10H278.478c-5.523 0-10-4.477-10-10v-18.611c0-5.523 4.477-10 10-10z" fill="#fbca5c"/><path d="M452.912 327.431h-32.953c-1.825 6.083-2.822 12.568-2.822 19.306s.997 13.222 2.822 19.306h32.953c5.361 0 9.707-4.322 9.707-9.653v-19.306c0-5.332-4.346-9.653-9.707-9.653zm-12.549 26.545h-.971c-4.021 0-7.28-3.241-7.28-7.24s3.259-7.24 7.28-7.24h.971c4.021 0 7.28 3.241 7.28 7.24s-3.258 7.24-7.28 7.24z" fill="#e5a854"/><path d="M101.004 331.313c0-21.904 17.856-39.66 39.883-39.66s39.883 17.757 39.883 39.66c0 21.904-17.856 39.66-39.883 39.66s-39.883-17.756-39.883-39.66z" fill="#f26152"/><path d="M129.492 331.313c0 21.904-17.856 39.661-39.883 39.661s-39.883-17.757-39.883-39.661 17.856-39.66 39.883-39.66 39.883 17.756 39.883 39.66zm11.395-100.41c-22.027 0-39.883 17.757-39.883 39.66s17.856 39.66 39.883 39.66 39.883-17.757 39.883-39.66-17.856-39.66-39.883-39.66z" fill="#fbca5c"/><path d="M49.726 270.563c0-21.904 17.856-39.66 39.883-39.66s39.883 17.757 39.883 39.66-17.856 39.66-39.883 39.66-39.883-17.756-39.883-39.66z" fill="#d6e2d0"/><path d="M475.379 47.5H36.621C20.538 47.5 7.5 60.465 7.5 76.458v301.167c0 15.993 13.038 28.958 29.121 28.958h438.757c16.083 0 29.121-12.965 29.121-28.958V76.458c.001-15.993-13.037-28.958-29.12-28.958zM22.061 76.458c0-7.984 6.531-14.479 14.561-14.479h179.095v132.726H22.061V76.458zm0 301.167V209.184h193.655v182.92H36.621c-8.029 0-14.56-6.495-14.56-14.479zm467.878 0c0 7.984-6.531 14.479-14.561 14.479H230.276V61.979h245.103c8.029 0 14.561 6.495 14.561 14.479v301.167h-.001z" fill="#afc1a9"/><path d="M144.782 271.13v-1.134c0-4.143 3.357-7.5 7.5-7.5s7.5 3.357 7.5 7.5v1.134c0 4.143-3.357 7.5-7.5 7.5s-7.5-3.358-7.5-7.5zM512 76.458v359.084C512 455.645 495.572 472 475.379 472H36.621C16.428 472 0 455.645 0 435.542V76.458C0 56.355 16.428 40 36.621 40h49.991c4.143 0 7.5 3.357 7.5 7.5s-3.357 7.5-7.5 7.5H36.621C24.699 55 15 64.626 15 76.458v117.986h53.92v-63.112c-13.909-3.365-24.268-15.872-24.268-30.742 0-17.441 14.251-31.632 31.768-31.632s31.768 14.19 31.768 31.632c0 14.87-10.358 27.377-24.268 30.742v63.112h62.656v-63.112c-13.909-3.365-24.268-15.872-24.268-30.742 0-17.441 14.251-31.632 31.768-31.632s31.768 14.19 31.768 31.632c0 14.87-10.358 27.377-24.268 30.742v63.112h53.92V55h-98.792c-4.143 0-7.5-3.357-7.5-7.5s3.357-7.5 7.5-7.5h358.675C495.572 40 512 56.355 512 76.458zm-357.924 40.765c9.246 0 16.768-7.462 16.768-16.633s-7.521-16.632-16.768-16.632-16.768 7.461-16.768 16.632 7.522 16.633 16.768 16.633zm-77.656 0c9.246 0 16.768-7.462 16.768-16.633S85.666 83.958 76.42 83.958s-16.768 7.461-16.768 16.632 7.522 16.633 16.768 16.633zM15 377.625c0 11.832 9.699 21.458 21.621 21.458h178.875V209.444H15v168.181zM497 76.458C497 64.626 487.301 55 475.379 55H230.496v344.083h174.345c4.143 0 7.5 3.357 7.5 7.5s-3.357 7.5-7.5 7.5H36.621A36.535 36.535 0 0115 407.034v28.508C15 447.374 24.699 457 36.621 457h438.758c11.922 0 21.621-9.626 21.621-21.458v-28.508a36.535 36.535 0 01-21.621 7.049h-42.063c-4.143 0-7.5-3.357-7.5-7.5s3.357-7.5 7.5-7.5h42.063c11.922 0 21.621-9.626 21.621-21.458V76.458zM101.004 278.63c4.143 0 7.5-3.357 7.5-7.5v-1.134c0-4.143-3.357-7.5-7.5-7.5s-7.5 3.357-7.5 7.5v1.134a7.5 7.5 0 007.5 7.5zm51.278 67.989c4.143 0 7.5-3.357 7.5-7.5v-1.134c0-4.143-3.357-7.5-7.5-7.5s-7.5 3.357-7.5 7.5v1.134a7.5 7.5 0 007.5 7.5zm320.89-204.668v91.413c0 13.987-10.498 25.569-24.027 27.282v18.558c0 9.649-7.851 17.5-17.5 17.5h-28.056c-9.649 0-17.5-7.851-17.5-17.5v-18.558c-13.53-1.713-24.027-13.295-24.027-27.282v-91.413c0-13.987 10.497-25.569 24.027-27.282V96.111c0-9.649 7.851-17.5 17.5-17.5h28.056c9.649 0 17.5 7.851 17.5 17.5v18.558c13.529 1.713 24.027 13.295 24.027 27.282zm-72.083-27.5h33.056v-18.34c0-1.379-1.121-2.5-2.5-2.5h-28.056a2.502 2.502 0 00-2.5 2.5v18.34zm33.056 146.413h-33.056v18.34c0 1.379 1.121 2.5 2.5 2.5h28.056c1.379 0 2.5-1.121 2.5-2.5v-18.34zm24.027-118.913c0-6.893-5.607-12.5-12.5-12.5h-56.11c-6.893 0-12.5 5.607-12.5 12.5v38.206h52.569c4.143 0 7.5 3.357 7.5 7.5s-3.357 7.5-7.5 7.5h-52.569v38.207c0 6.893 5.607 12.5 12.5 12.5h56.11c6.893 0 12.5-5.607 12.5-12.5v-4.422h-52.568c-4.143 0-7.5-3.357-7.5-7.5s3.357-7.5 7.5-7.5h52.568v-52.569h-52.568c-4.143 0-7.5-3.357-7.5-7.5s3.357-7.5 7.5-7.5h52.568v-4.422zm-181.559 136.27L258.2 122.586a39.294 39.294 0 019.656-30.69c7.502-8.442 18.299-13.284 29.622-13.284s22.121 4.842 29.623 13.285a39.288 39.288 0 019.656 30.689L318.345 278.22c-1.247 10.538-10.218 18.484-20.865 18.484-10.649 0-19.62-7.946-20.867-18.483zm-3.516-157.397l18.413 155.634c.354 2.99 2.92 5.246 5.97 5.246 3.049 0 5.615-2.256 5.969-5.247l18.413-155.633c.824-6.969-1.297-13.703-5.972-18.964a24.639 24.639 0 00-18.41-8.249 24.641 24.641 0 00-18.411 8.249c-4.675 5.261-6.797 11.996-5.972 18.964zm24.382 14.601c4.143 0 7.5-3.357 7.5-7.5v-11.947c0-4.143-3.357-7.5-7.5-7.5s-7.5 3.357-7.5 7.5v11.947a7.5 7.5 0 007.5 7.5zM78.214 278.63c4.143 0 7.5-3.357 7.5-7.5v-1.134c0-4.143-3.357-7.5-7.5-7.5s-7.5 3.357-7.5 7.5v1.134a7.5 7.5 0 007.5 7.5zm391.905 58.453v19.306c0 9.458-7.719 17.153-17.207 17.153H278.479c-9.649 0-17.5-7.851-17.5-17.5v-18.611c0-9.649 7.851-17.5 17.5-17.5h174.434c9.487 0 17.206 7.694 17.206 17.152zm-138.139-2.152h-53.502a2.502 2.502 0 00-2.5 2.5v18.611c0 1.379 1.121 2.5 2.5 2.5h14.674v-9.231c0-4.143 3.357-7.5 7.5-7.5s7.5 3.357 7.5 7.5v9.231h23.828v-23.611zm78.589 23.611a75.13 75.13 0 01-.001-23.612H346.98v23.611h23.828v-9.231c0-4.143 3.357-7.5 7.5-7.5s7.5 3.357 7.5 7.5v9.231h24.761v.001zm44.55-21.111c0-1.379-1.121-2.5-2.5-2.5h-26.813a59.94 59.94 0 00-1.17 11.806c0 3.983.393 7.936 1.171 11.806h26.812c1.379 0 2.5-1.121 2.5-2.5v-18.612zm-14.756 1.805h-.971c-4.143 0-7.5 3.357-7.5 7.5s3.357 7.5 7.5 7.5h.971c4.143 0 7.5-3.357 7.5-7.5s-3.357-7.5-7.5-7.5zm-339.359 7.383c4.143 0 7.5-3.357 7.5-7.5v-1.134c0-4.143-3.357-7.5-7.5-7.5s-7.5 3.357-7.5 7.5v1.134c0 4.143 3.357 7.5 7.5 7.5zm-58.778-8.067c0-12.953 5.331-25.189 14.556-34.011-8.968-8.586-14.556-20.644-14.556-33.978 0-26.005 21.256-47.161 47.383-47.161a47.274 47.274 0 0125.62 7.504c7.642-4.922 16.434-7.504 25.659-7.504 26.127 0 47.383 21.156 47.383 47.161 0 13.081-5.295 25.222-14.523 34.007 9.207 8.817 14.523 21.033 14.523 33.981 0 26.005-21.256 47.161-47.383 47.161a47.697 47.697 0 01-25.652-7.508 47.27 47.27 0 01-25.627 7.508c-26.128.001-47.383-21.155-47.383-47.16zm94.766-67.989c0 10.942-3.764 21.025-10.069 29.036 4.315 2.057 9.046 3.124 13.965 3.124a32.463 32.463 0 0016.898-4.72c9.696-5.905 15.484-16.163 15.484-27.44 0-17.733-14.526-32.161-32.383-32.161-4.913 0-9.646 1.068-13.965 3.126 6.307 8.011 10.07 18.093 10.07 29.035zm-10.072 97.028c4.313 2.057 9.039 3.122 13.968 3.122 17.856 0 32.383-14.428 32.383-32.161 0-9.895-4.566-19.167-12.327-25.252a47.556 47.556 0 01-20.056 4.424c-3.126 0-6.201-.296-9.197-.878a46.886 46.886 0 015.292 20.762c.007.125.01.251.01.378v1.134c0 .127-.003.253-.01.378-.211 10.578-3.937 20.313-10.063 28.093zm-69.694-97.028c0 17.733 14.526 32.16 32.383 32.16s32.384-14.427 32.384-32.16-14.527-32.161-32.384-32.161-32.383 14.428-32.383 32.161zm0 67.989c0 17.733 14.526 32.161 32.383 32.161s32.384-14.428 32.384-32.161c0-9.625-4.291-18.666-11.771-24.806a7.425 7.425 0 01-.524-.473 47.3 47.3 0 01-20.088 4.45 47.28 47.28 0 01-20.046-4.432c-7.765 6.086-12.338 15.37-12.338 25.261zm20.988 8.067c4.143 0 7.5-3.357 7.5-7.5v-1.134c0-4.143-3.357-7.5-7.5-7.5s-7.5 3.357-7.5 7.5v1.134c0 4.143 3.357 7.5 7.5 7.5z"/></svg>